<svg width="18" height="20" viewBox="0 0 18 20" fill="none" xmlns="http://www.w3.org/2000/svg">
<g clip-path="url(#clip0_1_49)">
<path d="M6.76593 5.88463C7.83798 4.59463 6.67203 2.8999 5.95434 1.74531C5.54854 1.07611 4.95212 0.126825 4.11269 0.0060876C3.31525 -0.0833658 2.59237 0.834636 2.06578 1.3391C0.797435 2.53231 0.0934278 4.08528 0.0188743 5.85823C0.0278395 6.06109 0.0278395 6.39202 0 6.08993C0.125513 7.15507 0.242062 8.16204 0.605862 9.17145C0.937105 10.1232 1.39858 10.9996 1.92564 11.8433C3.05856 13.6158 4.3689 15.3325 5.9265 16.7555C7.4421 18.1511 9.14832 19.4024 11.1716 19.8541C13.0699 20.253 14.921 19.8375 16.4172 18.5641C16.9585 18.1056 17.956 17.4389 17.998 16.6445C18.04 15.8448 17.4247 15.2025 16.8976 14.722C15.7694 13.6764 14.1094 11.9372 12.5749 13.2071C11.9785 13.715 11.3443 14.654 10.5427 14.787C9.74994 14.9224 8.98034 14.3256 8.40704 13.8524C7.12454 12.7682 5.87035 11.2944 5.11066 9.75363C4.79357 9.06782 4.50904 8.18648 4.97524 7.50262C5.45511 6.83392 6.25255 6.5152 6.76593 5.88463Z" fill="#D7AD6C"/>
</g>
<defs>
<clipPath id="clip0_1_49">
<rect width="18" height="20" fill="white"/>
</clipPath>
</defs>
</svg>
