<svg width="66" height="66" viewBox="0 0 66 66" fill="none" xmlns="http://www.w3.org/2000/svg">
<path d="M26.2876 65.5561C25.7347 64.6083 25.2608 64.0554 24.9448 63.0285C24.5499 61.8437 24.2339 60.6589 23.839 59.474C23.523 58.5262 23.365 57.6573 23.207 56.8674C22.0222 58.9211 20.6794 60.8169 19.0996 62.6336C18.7837 63.0285 18.0728 62.7126 18.1518 62.1596C18.4677 60.5799 18.9417 59.0791 19.4946 57.5783C18.7047 57.8943 17.9148 58.2892 17.1249 58.4472C15.8611 58.6841 14.6763 58.8421 13.4124 58.8421C12.7805 58.8421 12.4646 58.0522 13.0175 57.7363C14.0443 57.1044 15.2292 56.5515 16.335 56.1565C17.5988 55.7616 18.7837 55.0507 20.0475 54.7347C20.2845 54.6557 20.5214 54.6557 20.6794 54.7347C21.1533 53.7079 21.6273 52.681 22.1012 51.6541C21.5483 51.8911 20.9954 52.1281 20.3635 52.3651C19.5736 52.681 18.7837 52.918 17.9148 53.1549C17.1249 53.3919 16.493 53.2339 15.7031 53.1549C14.9922 53.076 14.8342 52.0491 15.4662 51.7331C17.8358 50.3903 20.6794 49.2845 23.365 48.9685C23.444 48.7315 23.602 48.4946 23.681 48.2576C24.9448 45.651 26.1296 42.9654 27.4724 40.3587C26.9985 39.8058 26.6036 39.2529 26.2876 38.621C25.1028 39.6478 23.365 40.1218 22.0222 40.8327C21.9432 40.8327 21.8642 40.9117 21.8642 40.9117C21.8642 41.0697 21.8642 41.2276 21.7853 41.3856C21.5483 41.9385 21.3113 42.4914 21.0743 43.0443C20.6004 43.9922 20.2055 44.7031 19.3366 45.335C18.9417 45.572 18.4677 45.335 18.4677 44.8611C18.3887 43.9132 18.6257 43.2023 18.9417 42.4124C18.9417 42.3334 19.0206 42.2544 19.0206 42.2544C18.5467 42.4124 18.0728 42.5704 17.5988 42.5704C16.9669 42.6494 16.572 42.0175 16.651 41.4646C16.73 40.6747 17.1249 40.2798 17.7568 39.9638C17.8358 39.8848 17.9148 39.8848 17.9938 39.8058H17.9148C17.4409 39.6478 16.8879 39.5689 16.414 39.3319C16.0191 39.1739 15.9401 38.7789 15.7031 38.463C15.4661 38.147 15.7031 37.7521 16.0981 37.7521C17.5198 37.6731 19.1786 37.7521 20.6004 38.463C22.1012 37.6731 23.76 36.7252 25.4187 36.2513C25.2608 35.6984 25.1818 35.1455 25.1818 34.5926C24.8658 34.1186 24.6288 33.7237 24.4709 33.2497C22.3382 32.9338 20.2845 32.5389 18.1518 32.2229C17.2039 32.0649 16.256 31.9069 15.3872 31.828C15.2292 31.9859 15.0712 32.2229 14.9132 32.3808C14.2023 33.0128 13.4914 33.6447 12.7805 34.2766C11.2797 35.5404 9.69996 36.7252 7.96221 37.5151C6.93535 37.989 5.9085 36.6463 6.69839 35.7774C7.96221 34.2766 9.62097 33.1707 11.2007 32.1439C11.5957 31.9069 11.9906 31.67 12.3856 31.354C11.5957 31.196 10.8058 31.117 10.0159 30.9591C9.14704 32.0649 8.27816 32.9338 7.01434 33.9606C6.22446 34.5925 5.35558 35.2245 4.56569 35.8564C3.53884 36.6463 2.66996 37.0412 1.48513 37.5151C0.695238 37.8311 -0.0946526 36.8043 0.458269 36.1723C1.16917 35.3825 1.56411 34.7505 2.43299 34.1186C3.45984 33.4077 4.4867 32.6968 5.43457 31.9859C6.22446 31.433 7.01434 30.9591 7.72524 30.6431C5.43457 30.0902 3.14389 29.4583 1.01119 28.5104C0.537262 28.2735 0.616248 27.5626 1.16917 27.4836C2.74895 27.3256 4.32872 27.3256 5.9085 27.4046C5.35558 26.7726 4.80265 26.1407 4.40771 25.4298C3.7758 24.245 3.22288 23.2182 2.90692 22.0333C2.74894 21.4804 3.38086 20.9275 3.85479 21.3224C4.80266 22.1123 5.67153 23.0602 6.38243 24.008C7.17232 25.0349 8.19918 25.9828 8.91008 27.0886C9.06805 27.3256 9.06805 27.4836 9.14704 27.7205C10.2529 27.7995 11.3587 27.9575 12.5436 28.1155C12.1486 27.6415 11.7537 27.1676 11.3587 26.6937C10.8058 25.9828 10.3319 25.3508 9.85794 24.6399C9.38401 23.929 9.30502 23.2972 9.14704 22.5863C8.98906 21.9543 9.93693 21.4804 10.4109 21.8753C12.4646 23.6921 14.2813 26.0617 15.5451 28.5894C15.7821 28.5894 16.0191 28.6684 16.335 28.6684C19.1786 29.0633 22.1012 29.3793 25.0238 29.8532C25.4187 29.1423 25.9717 28.5104 26.5246 27.9575C25.0238 27.1676 23.918 25.5088 22.7331 24.403C22.6541 24.324 22.6541 24.324 22.5751 24.245C22.4172 24.324 22.2592 24.324 22.1012 24.324C21.4693 24.324 20.9164 24.245 20.2845 24.166C19.2576 24.0081 18.3887 23.8501 17.5988 23.2182C17.2829 22.9812 17.3619 22.3493 17.7568 22.1913C18.6257 21.8754 19.3366 21.8753 20.2845 21.8753C20.3634 21.8753 20.4424 21.8753 20.5214 21.8753C20.2055 21.4804 19.9685 21.0855 19.7315 20.6115C19.4946 19.9796 19.8895 19.4267 20.5214 19.3477C21.2323 19.1897 21.7853 19.5057 22.3382 19.9796C22.4172 20.0586 22.4962 20.1376 22.5751 20.2166V20.1376C22.5751 19.5847 22.4962 19.1107 22.5751 18.5578C22.5751 18.1629 22.8911 17.9259 23.1281 17.61C23.365 17.294 23.839 17.373 23.918 17.7679C24.3919 19.1107 24.8658 20.7695 24.6288 22.1913C25.8927 23.5341 27.4724 24.8769 28.4203 26.4567C28.8942 26.2197 29.2892 25.9828 29.8421 25.7458C30.1581 25.3509 30.553 24.9559 30.948 24.6399C30.632 22.5072 30.316 20.3745 30.0001 18.3208C29.8421 17.373 29.6841 16.5041 29.5261 15.5562C29.2892 15.4772 29.0522 15.3983 28.8153 15.2403C27.9464 14.7664 27.1565 14.2924 26.3666 13.7395C24.7078 12.7126 23.0491 11.6068 21.7853 10.185C21.0744 9.31612 22.0222 7.9733 23.0491 8.44724C24.8658 9.15814 26.3666 10.422 27.8674 11.6068C28.2623 11.9227 28.5783 12.2387 28.9732 12.5547C28.8153 11.7648 28.7363 10.9749 28.6573 10.185C27.3145 9.71107 26.2086 9.15815 24.8658 8.21028C23.9969 7.65736 23.2071 7.02544 22.3382 6.47252C21.2323 5.68263 20.6794 5.05074 19.8105 4.02388C19.2576 3.39197 19.9685 2.36511 20.7584 2.68106C21.7853 3.07601 22.4172 3.31295 23.365 3.94486C24.3919 4.65576 25.3397 5.44569 26.3666 6.15659C27.1565 6.70951 27.7884 7.34141 28.4203 7.97332C28.1833 5.60366 28.1044 3.23397 28.3413 0.943298C28.4203 0.390376 29.1312 0.311377 29.3682 0.78531C30.0001 2.2861 30.553 3.7869 30.948 5.28768C31.3429 4.57678 31.8168 3.78691 32.3698 3.23399C33.2386 2.28613 34.1075 1.49623 35.1344 0.706341C35.6083 0.390386 36.3192 0.785349 36.0822 1.41726C35.6083 2.60209 35.0554 3.62893 34.2655 4.65578C33.4756 5.76163 32.9227 6.94647 32.1328 7.97332C31.9748 8.1313 31.8168 8.28928 31.6589 8.36827C31.8958 9.47411 32.1328 10.58 32.2908 11.6858C32.6067 11.1329 32.9227 10.659 33.2386 10.106C33.7126 9.39513 34.1865 8.6842 34.7394 8.05229C35.2923 7.42038 35.8453 7.18343 36.5562 6.78849C37.1091 6.47253 37.899 7.18344 37.583 7.73637C36.4772 10.264 34.8184 12.7126 32.8437 14.6084C32.9227 14.8453 32.9227 15.0823 33.0017 15.3982C33.4756 18.2418 34.1075 21.0855 34.5814 24.008C35.2923 24.166 36.0032 24.482 36.7141 24.7979C36.8721 22.9812 38.2149 21.3224 39.0048 19.7426C39.0048 19.6636 39.0838 19.5847 39.0838 19.5847C39.0048 19.4267 38.9258 19.3477 38.8468 19.1107C38.6889 18.5578 38.5309 17.9259 38.4519 17.373C38.2939 16.3461 38.1359 15.4773 38.5309 14.5294C38.6889 14.1344 39.2418 14.0554 39.5577 14.3714C40.1107 15.0823 40.4266 15.7932 40.5846 16.6621C40.5846 16.7411 40.5846 16.8201 40.6636 16.8201C40.9795 16.4251 41.2955 16.0302 41.6114 15.7142C42.0854 15.3193 42.7963 15.5563 43.0332 16.0302C43.4282 16.6621 43.3492 17.294 43.0332 17.9259C42.9543 18.0049 42.9543 18.0839 42.8753 18.1629H42.9543C43.4282 18.0049 43.9021 17.7679 44.455 17.6889C44.85 17.6099 45.1659 17.8469 45.4819 17.9259C45.7979 18.0049 45.8768 18.4788 45.6399 18.7158C44.455 19.5847 43.1122 20.5326 41.6114 20.7695C40.7426 22.5073 39.8737 24.561 38.5309 25.9038C39.0048 26.2987 39.4788 26.7726 39.9527 27.2466C40.4266 27.4045 40.9005 27.6415 41.2955 27.9575C43.1912 27.0096 45.1659 26.0618 46.9827 25.1139C47.8516 24.719 48.6414 24.245 49.5103 23.8501C49.5103 23.6131 49.5103 23.3762 49.5893 23.1392C49.7473 22.1913 49.9843 21.2435 50.2212 20.3746C50.6952 18.4788 51.2481 16.5831 52.196 14.9243C52.7489 13.9765 54.3286 14.4504 54.2497 15.5562C54.0917 17.452 53.3808 19.3477 52.7489 21.1645C52.5909 21.6384 52.3539 22.0333 52.196 22.5072C52.9069 22.1123 53.6178 21.7964 54.3287 21.4014C54.3287 19.9796 54.5656 18.7158 55.0395 17.215C55.3555 16.1882 55.6715 15.2403 55.9084 14.2924C56.3034 13.0286 56.7773 12.2387 57.4092 11.1329C57.8831 10.422 59.068 10.8169 58.989 11.6068C58.91 12.7126 58.91 13.4236 58.594 14.4504C58.1991 15.6352 57.8042 16.8201 57.4092 18.0049C57.0933 18.9528 56.7773 19.7426 56.3034 20.4535C58.4361 19.5057 60.6478 18.7158 63.0174 18.1629C63.5703 18.0839 63.8863 18.7158 63.4913 19.1107C62.3065 20.2166 61.0427 21.0855 59.6999 22.0333C60.5688 22.1913 61.3587 22.4283 62.1485 22.7442C63.3334 23.2972 64.3602 23.8501 65.3871 24.6399C65.861 25.0349 65.703 25.8248 64.9921 25.7458C63.7283 25.6668 62.5435 25.4298 61.3587 25.0349C60.0948 24.6399 58.752 24.482 57.4882 24.008C57.2512 23.9291 57.0933 23.7711 56.9353 23.6131C55.9874 24.166 54.9606 24.7189 53.9337 25.2718C54.5656 25.4298 55.1185 25.5088 55.7505 25.7458C56.5403 25.9828 57.3302 26.2197 58.1201 26.5357C58.91 26.8517 59.3049 27.3256 59.9368 27.7995C60.4108 28.2734 59.9369 29.1423 59.3049 29.0633C56.6193 28.7474 53.6967 27.9575 51.2481 26.6937C51.0111 26.7727 50.7741 26.9307 50.5372 27.0886C48.0095 28.4314 45.4029 29.9322 42.7963 31.275C42.8753 31.8279 42.8753 32.4599 42.7963 33.0128C44.534 32.6968 46.4298 33.4077 48.1675 33.6447C48.2465 33.6447 48.3255 33.6447 48.4045 33.6447C48.4835 33.4867 48.5625 33.4077 48.7204 33.3287C49.1944 33.0128 49.7473 32.6968 50.3002 32.3808C51.2481 31.9069 51.959 31.512 52.9858 31.512C53.4598 31.512 53.6967 32.0649 53.4598 32.3808C52.9858 33.1707 52.3539 33.5657 51.564 34.1186C51.4851 34.1186 51.4851 34.1976 51.4061 34.1976C51.88 34.3556 52.3539 34.5135 52.7489 34.7505C53.3018 35.0665 53.3018 35.7774 52.9068 36.2513C52.4329 36.8042 51.801 36.8832 51.0901 36.8042C51.0111 36.8042 50.9321 36.8042 50.7742 36.7252C50.7742 36.7252 50.7741 36.8042 50.8531 36.8042C51.1691 37.1992 51.4851 37.5941 51.801 38.068C52.038 38.384 51.88 38.779 51.88 39.1739C51.88 39.4899 51.4851 39.7268 51.1691 39.5689C49.9843 38.779 48.6414 37.7521 47.9305 36.4093C46.1138 36.0933 43.9811 35.9353 42.3223 35.1455C42.0854 35.8563 41.7694 36.5673 41.3745 37.1992C41.3745 37.7521 41.2955 38.226 41.1375 38.6999C42.6383 40.2007 44.1391 41.7806 45.6399 43.2813C46.2718 43.9132 46.9827 44.6241 47.6146 45.2561C47.8516 45.1771 48.0885 45.0981 48.3255 45.0981C49.2734 44.9401 50.2212 44.9401 51.1691 44.8611C53.0648 44.7031 55.0396 44.7031 56.9353 45.0981C58.0411 45.335 58.0411 46.9938 56.9353 47.3097C55.0396 47.7837 53.0648 47.7047 51.1691 47.6257C50.6952 47.6257 50.2212 47.5467 49.7473 47.5467C50.3002 48.0996 50.8531 48.6526 51.4061 49.2845C52.7489 48.8895 54.0127 48.7316 55.5925 48.6526C56.6193 48.6526 57.6462 48.6525 58.673 48.5736C60.0158 48.5736 60.8847 48.7316 62.1485 49.0475C63.0174 49.2055 63.0174 50.5483 62.1485 50.7063C61.1217 50.9432 60.4108 51.1802 59.3049 51.1802C58.0411 51.1802 56.8563 51.1802 55.5925 51.1802C54.6446 51.1802 53.7757 51.1012 52.9068 50.9432C54.4866 52.681 55.9084 54.5767 57.0933 56.6304C57.3302 57.1044 56.8563 57.6573 56.3824 57.3413C54.9606 56.5515 53.6967 55.6036 52.4329 54.5767C52.5119 55.4456 52.5909 56.3145 52.5119 57.1044C52.3539 58.4472 52.1959 59.553 51.722 60.8168C51.564 61.3697 50.6952 61.4487 50.5372 60.8168C50.2212 59.632 50.0632 58.3682 50.0632 57.1044C50.0632 55.7616 49.7473 54.4188 49.8263 53.1549C49.8263 52.918 49.9053 52.76 49.9843 52.523C49.1154 51.7331 48.3255 51.0222 47.5356 50.2323C47.6146 50.8643 47.6146 51.4172 47.6936 52.0491C47.6936 52.918 47.7726 53.7079 47.6936 54.5767C47.6146 55.3666 47.2986 55.9195 46.9827 56.6304C46.7457 57.2623 45.7189 57.1043 45.5609 56.4724C45.008 53.7868 44.85 50.7853 45.3239 48.0996C45.1659 47.9417 44.929 47.7047 44.771 47.5467C42.7173 45.572 40.5056 43.5973 38.4519 41.4646C37.978 41.7015 37.425 41.8595 36.8721 42.0175C37.504 43.5183 37.425 45.335 37.662 46.8358C37.662 46.9148 37.662 46.9938 37.662 47.0728C37.82 47.1518 37.978 47.1518 38.1359 47.3097C38.6099 47.7047 39.0838 48.0996 39.4787 48.4946C40.2686 49.2055 40.8216 49.8374 41.1375 50.8642C41.2955 51.2592 40.8216 51.7331 40.4266 51.5752C39.5577 51.3382 38.9258 50.9432 38.2149 50.3113C38.1359 50.2323 38.1359 50.2323 38.0569 50.1533C38.0569 50.6273 38.0569 51.1802 37.899 51.6541C37.741 52.286 37.0301 52.444 36.5562 52.2071C35.8453 51.8911 35.6083 51.3382 35.4503 50.6273C35.4503 50.5483 35.4503 50.4693 35.3713 50.3113L35.2923 50.3903C34.9764 50.7853 34.7394 51.2592 34.4235 51.6541C34.1865 51.9701 33.7916 51.9701 33.3966 52.0491C33.0807 52.1281 32.7647 51.8121 32.8437 51.4961C33.2386 50.0743 33.7915 48.5736 34.8974 47.4677C34.6604 45.809 34.2655 43.9132 34.2655 42.1755C33.5546 42.1755 32.8437 42.0965 32.1328 41.9385C31.6589 42.0965 31.1059 42.1755 30.632 42.1755C29.6841 44.0712 28.6573 45.9669 27.7094 47.8627C27.3145 48.7316 26.8405 49.5215 26.4456 50.3903C26.6036 50.6273 26.6826 50.7853 26.8405 51.0222C27.2355 51.8911 27.6304 52.76 27.9464 53.6289C28.6573 55.4456 29.3682 57.2623 29.5261 59.237C29.6051 60.3429 28.0254 60.8958 27.4724 59.948C26.4456 58.2892 25.8927 56.3934 25.4187 54.4977C25.2608 54.0238 25.1818 53.5499 25.1028 53.1549C24.7078 53.8658 24.3919 54.5767 23.9969 55.2876C24.7868 56.3934 25.3398 57.5783 25.8927 59.0791C26.2086 60.027 26.5246 61.0538 26.9195 62.0017C27.3145 63.2655 27.4724 64.1344 27.5514 65.4772C27.9464 65.8721 26.7615 66.267 26.2876 65.5561ZM28.9732 33.6447C28.6573 33.8027 28.2623 33.8026 28.0254 33.5657C27.9464 33.5657 27.9464 33.5657 27.8674 33.5657C27.8674 33.7237 27.8674 33.9606 27.8674 34.1186C28.4993 34.8295 29.2892 35.4614 30.0791 36.0144C30.553 35.3035 31.0269 34.5136 31.5009 33.8027C30.711 33.8027 29.8421 33.7237 28.9732 33.6447ZM31.5009 27.5625C31.3429 27.6415 31.1849 27.6415 30.948 27.7205C30.474 28.5104 30.0791 29.4583 29.8421 30.4061C30.711 30.6431 31.5009 30.8011 32.3698 31.117C32.1328 30.3272 31.8958 29.4583 31.6589 28.5894C31.4219 28.3524 31.3429 27.9575 31.4219 27.6415C31.5799 27.6415 31.5799 27.5625 31.5009 27.5625ZM37.425 29.6952C37.583 29.3793 37.899 29.1423 38.2939 29.1423L38.3729 29.0633C38.2939 28.9054 38.1359 28.7474 38.0569 28.5894C37.1091 28.3524 36.1612 28.3524 35.2134 28.3524C35.2923 29.2213 35.2923 30.0902 35.2923 31.0381C36.0032 30.6431 36.7141 30.1692 37.425 29.6952ZM39.3208 35.6984C39.2418 34.7505 39.0048 33.8027 38.6099 32.8548C37.82 33.1708 36.9511 33.4867 36.1612 33.8027C36.8721 34.3556 37.504 34.8295 38.1359 35.3825C38.4519 35.4614 38.7678 35.6984 38.8468 36.0144L38.9258 36.0933C39.0838 36.0143 39.2418 35.8564 39.3208 35.6984ZM35.5293 37.5151C34.9764 36.8042 34.4235 36.1723 33.8705 35.4614C33.5546 36.2513 33.3176 37.1202 32.9227 37.9101C33.0017 38.226 32.8437 38.621 32.5277 38.779C32.5277 38.858 32.5277 38.858 32.4487 38.937C32.6067 39.0159 32.7647 39.0159 33.0017 39.0949C33.9495 38.6999 34.7394 38.147 35.5293 37.5151Z" fill="#D6AC6C"/>
</svg>
