<svg width="429" height="123" viewBox="0 0 429 123" fill="none" xmlns="http://www.w3.org/2000/svg">
<g clip-path="url(#clip0_1_4548)">
<path d="M66.7865 2.23401C66.9248 2.17118 67.1323 2.23401 67.2015 2.42249C67.2707 2.48532 70.8677 10.9042 81.5897 19.2602C91.4816 26.988 109.605 36.1608 139.627 36.1608C146.544 36.1608 152.631 35.3441 157.958 34.0875C157.958 34.276 158.027 34.4645 158.096 34.653C152.701 35.9724 146.613 36.7263 139.627 36.7263C109.398 36.7263 91.1357 27.4906 81.1747 19.7C70.3143 11.2812 66.6481 2.73663 66.5789 2.61097C66.5098 2.48532 66.5789 2.29684 66.7865 2.23401Z" fill="#D7AD6C"/>
<path d="M-12.6933 43.387C28.1885 43.387 52.607 32.0153 65.8884 22.4027C80.2766 12.0361 85.0496 1.48112 85.1187 1.35547C85.1879 1.22981 85.0496 1.04133 84.9112 0.978505C84.7729 0.915678 84.5654 0.978505 84.4962 1.10416C84.427 1.22981 79.7232 11.6592 65.4733 21.9C52.2611 31.4498 28.0502 42.8216 -12.6933 42.8216C-64.4354 42.8216 -95.6329 31.5126 -112.719 21.9629C-131.188 11.6592 -137.552 1.22981 -137.621 1.16699C-137.691 1.04133 -137.898 0.978505 -138.037 1.04133C-138.175 1.10416 -138.244 1.29264 -138.175 1.4183C-138.106 1.54395 -131.742 12.0361 -113.134 22.4027C-95.9787 31.9524 -64.6429 43.387 -12.6933 43.387Z" fill="#D7AD6C"/>
<path d="M29.4337 56.3296C73.5667 56.3296 99.8528 41.3767 114.172 28.874C129.667 15.3033 134.786 1.48124 134.855 1.35559C134.924 1.22994 134.786 1.04145 134.647 0.978625C134.509 0.915798 134.301 1.04145 134.232 1.16711C134.163 1.29276 129.113 14.9891 113.688 28.497C99.5069 40.9369 73.3592 55.7642 29.4337 55.7642C-26.3897 55.7642 -60.0775 40.8741 -78.4778 28.4342C-98.3999 14.9263 -105.248 1.29276 -105.248 1.16711C-105.317 1.04145 -105.525 0.978625 -105.663 1.04145C-105.801 1.10428 -105.871 1.29276 -105.801 1.41842C-105.732 1.54407 -98.8841 15.3661 -78.8236 28.9368C-60.3542 41.4395 -26.5281 56.3296 29.4337 56.3296Z" fill="#D7AD6C"/>
<path d="M20.8562 48.2875C20.8562 47.9106 20.5103 47.5964 20.0953 47.5964C19.6802 47.5964 19.3344 47.9106 19.3344 48.2875C19.3344 48.6645 19.6802 48.9786 20.0953 48.9786C20.4412 48.9786 20.8562 48.6645 20.8562 48.2875Z" fill="#FAD6BB"/>
<path d="M148.275 21.8999C148.828 21.8999 149.381 21.7743 149.866 21.523C150.696 21.146 151.318 20.4549 151.595 19.701C151.872 18.8842 151.802 18.0675 151.387 17.3135C150.765 16.2455 149.589 15.6172 148.275 15.6172C147.721 15.6172 147.168 15.7428 146.684 15.9942C144.954 16.8109 144.332 18.6957 145.162 20.2664C145.784 21.2717 146.96 21.8999 148.275 21.8999ZM148.275 16.1826C149.381 16.1826 150.35 16.7481 150.834 17.5648C151.18 18.1931 151.249 18.8842 151.042 19.5753C150.834 20.2664 150.281 20.769 149.658 21.0832C149.243 21.2717 148.828 21.3973 148.344 21.3973C147.237 21.3973 146.269 20.8319 145.784 20.0151C145.093 18.7586 145.646 17.1879 147.029 16.4968C147.375 16.2455 147.79 16.1826 148.275 16.1826Z" fill="#FAD6BB"/>
<path d="M185.629 16.9367C187.012 16.9995 188.188 15.9943 188.257 14.6749C188.326 13.4184 187.22 12.3503 185.767 12.2875C184.383 12.2246 183.207 13.2299 183.138 14.5492C183.138 15.8058 184.245 16.8739 185.629 16.9367Z" fill="#FAD6BB"/>
<path d="M181.132 106.78C181.201 106.78 181.34 106.78 181.409 106.78C183.346 106.654 184.729 105.083 184.591 103.387C184.453 101.691 182.723 100.371 180.856 100.497C179.956 100.56 179.057 100.937 178.504 101.628C177.881 102.256 177.604 103.073 177.674 103.953C177.812 105.523 179.334 106.78 181.132 106.78ZM181.201 101C182.654 101 183.899 102.068 184.038 103.387C184.176 104.832 183 106.089 181.409 106.214C179.818 106.34 178.435 105.272 178.296 103.827C178.227 103.136 178.504 102.445 178.988 101.942C179.472 101.439 180.164 101.062 180.925 101.062C180.994 101 181.063 101 181.201 101Z" fill="#FAD6BB"/>
<path d="M96.1174 51.5546C96.325 51.5546 96.5325 51.4918 96.8092 51.429C97.2242 51.2405 97.5701 50.9892 97.7084 50.6122C97.916 50.2352 97.916 49.7955 97.7084 49.4185C97.4317 48.853 96.8092 48.4761 96.1174 48.4761C95.9099 48.4761 95.7024 48.5389 95.4257 48.6017C94.5264 48.9159 94.1114 49.8583 94.5264 50.6122C94.8031 51.1777 95.4257 51.5546 96.1174 51.5546ZM96.1174 48.9787C96.5325 48.9787 96.9475 49.23 97.155 49.607C97.2934 49.8583 97.2934 50.1096 97.155 50.3609C97.0167 50.6122 96.8092 50.8007 96.5325 50.9263C95.9791 51.1148 95.3565 50.8635 95.0798 50.3609C94.8723 49.8583 95.0798 49.2928 95.7024 49.0415C95.8407 48.9787 95.9791 48.9787 96.1174 48.9787Z" fill="#FAD6BB"/>
<path d="M121.228 85.5444C121.435 85.5444 121.643 85.4815 121.919 85.4187C122.334 85.2302 122.68 84.9789 122.819 84.602C123.026 84.225 123.026 83.7852 122.819 83.4082C122.542 82.8428 121.919 82.4658 121.228 82.4658C121.02 82.4658 120.813 82.5287 120.536 82.5915C120.121 82.78 119.775 83.0313 119.637 83.4082C119.429 83.7852 119.429 84.225 119.637 84.602C119.913 85.1674 120.536 85.5444 121.228 85.5444ZM121.228 83.0313C121.643 83.0313 122.058 83.2826 122.265 83.6595C122.404 83.9109 122.404 84.1622 122.265 84.4135C122.127 84.6648 121.919 84.8533 121.643 84.9789C121.089 85.1674 120.467 84.9161 120.19 84.4135C120.052 84.1622 120.052 83.9109 120.19 83.6595C120.328 83.4082 120.536 83.2198 120.813 83.0941C120.951 83.0313 121.089 83.0313 121.228 83.0313Z" fill="#FAD6BB"/>
<path d="M101.79 93.0207C101.928 93.0207 102.066 93.0207 102.205 92.9579C102.482 92.8322 102.689 92.6438 102.827 92.3924C102.966 92.1411 102.966 91.8898 102.827 91.6385C102.62 91.1359 101.928 90.8846 101.375 91.0731C100.821 91.2616 100.545 91.8898 100.752 92.3924C100.96 92.8322 101.375 93.0207 101.79 93.0207ZM101.79 91.6385C101.997 91.6385 102.136 91.7642 102.205 91.8898C102.274 92.0155 102.274 92.1411 102.205 92.204C102.136 92.3296 102.066 92.3925 101.928 92.4553C101.651 92.5181 101.375 92.4553 101.306 92.204C101.236 91.9527 101.306 91.7013 101.582 91.6385C101.651 91.6385 101.721 91.6385 101.79 91.6385Z" fill="#FAD6BB"/>
<path d="M138.106 63.6802C139.42 63.1776 140.043 61.8582 139.49 60.6645C138.936 59.4708 137.483 58.9053 136.169 59.408C134.855 59.9106 134.232 61.2299 134.786 62.4237C135.339 63.6174 136.861 64.1828 138.106 63.6802Z" fill="#FAD6BB"/>
<path d="M90.791 112.309C91.2752 112.309 91.6903 112.183 92.1053 111.995C93.4888 111.366 94.0422 109.796 93.3505 108.476C92.8662 107.597 91.8978 107.094 90.791 107.094C90.3068 107.094 89.8918 107.22 89.4767 107.408C88.785 107.722 88.3008 108.288 88.0932 108.916C87.8857 109.544 87.9549 110.298 88.3008 110.926C88.7158 111.806 89.6842 112.309 90.791 112.309ZM90.7218 107.722C91.5519 107.722 92.3128 108.162 92.7279 108.853C93.2813 109.858 92.8662 111.052 91.7595 111.618C91.4136 111.743 91.0677 111.869 90.7218 111.869C89.8918 111.869 89.1308 111.429 88.7158 110.738C88.4391 110.235 88.3699 109.733 88.5774 109.167C88.785 108.665 89.1308 108.225 89.6842 107.974C90.0301 107.785 90.376 107.722 90.7218 107.722Z" fill="#FAD6BB"/>
<path d="M55.8582 56.9578C55.4432 56.9578 55.0281 57.2719 55.0281 57.6489C55.0281 58.0258 55.374 58.4028 55.789 58.4028C56.2041 58.4028 56.6191 58.0887 56.6191 57.7117C56.6883 57.3347 56.3424 56.9578 55.8582 56.9578Z" fill="#FAD6BB"/>
<path d="M74.051 84.7904C73.7051 83.7852 72.5291 83.1569 71.4223 83.471C70.3156 83.7852 69.6238 84.8532 69.9697 85.9213C70.3156 86.9265 71.4915 87.5548 72.6675 87.2407C73.7051 86.9265 74.3968 85.7956 74.051 84.7904Z" fill="#FAD6BB"/>
<path d="M157.89 122.989C165.776 122.989 172.209 117.146 172.209 109.984C172.209 102.822 165.776 96.9788 157.89 96.9788C150.004 96.9788 143.571 102.822 143.571 109.984C143.571 117.209 150.004 122.989 157.89 122.989ZM157.89 97.607C165.43 97.607 171.586 103.199 171.586 110.047C171.586 116.895 165.43 122.487 157.89 122.487C150.35 122.487 144.193 116.895 144.193 110.047C144.193 103.199 150.35 97.607 157.89 97.607Z" fill="#FAD6BB"/>
<path d="M158.028 117.712C158.166 117.712 158.305 117.586 158.305 117.461V101.251C158.305 101.125 158.166 101 158.028 101C157.89 101 157.751 101.125 157.751 101.251V117.461C157.751 117.586 157.89 117.712 158.028 117.712Z" fill="#FAD6BB"/>
<path d="M158.028 103.827C158.097 103.827 158.166 103.827 158.236 103.764L160.034 102.13C160.172 102.005 160.172 101.816 160.034 101.754C159.896 101.628 159.688 101.628 159.619 101.754L158.028 103.199L156.368 101.691C156.229 101.565 156.022 101.565 155.953 101.691C155.814 101.816 155.814 102.005 155.953 102.068L157.89 103.827C157.89 103.827 157.959 103.827 158.028 103.827Z" fill="#FAD6BB"/>
<path d="M158.028 105.649C158.097 105.649 158.166 105.649 158.236 105.586L160.034 103.953C160.172 103.827 160.172 103.639 160.034 103.576C159.896 103.45 159.688 103.45 159.619 103.576L158.028 105.021L156.368 103.513C156.229 103.387 156.022 103.387 155.953 103.513C155.884 103.639 155.814 103.827 155.953 103.89L157.89 105.649C157.89 105.586 157.959 105.649 158.028 105.649Z" fill="#FAD6BB"/>
<path d="M159.965 117.209C160.034 117.209 160.103 117.209 160.172 117.146C160.311 117.021 160.311 116.832 160.172 116.769L158.235 115.01C158.097 114.885 157.89 114.885 157.82 115.01L156.022 116.644C155.884 116.769 155.884 116.958 156.022 117.021C156.16 117.084 156.368 117.146 156.437 117.021L158.028 115.576L159.757 117.084C159.826 117.209 159.896 117.209 159.965 117.209Z" fill="#FAD6BB"/>
<path d="M159.965 115.45C160.034 115.45 160.103 115.45 160.172 115.387C160.311 115.262 160.311 115.073 160.172 115.01L158.235 113.251C158.166 113.188 158.097 113.188 158.028 113.188C157.959 113.188 157.89 113.188 157.82 113.251L156.022 114.885C155.884 115.01 155.884 115.199 156.022 115.262C156.16 115.324 156.368 115.387 156.437 115.262L158.028 113.817L159.757 115.387C159.826 115.45 159.896 115.45 159.965 115.45Z" fill="#FAD6BB"/>
<path d="M150.488 113.942C150.557 113.942 150.626 113.942 150.626 113.879L165.776 105.335C165.914 105.272 165.983 105.083 165.845 104.958C165.776 104.832 165.568 104.769 165.43 104.895L150.281 113.439C150.142 113.502 150.073 113.691 150.211 113.816C150.281 113.879 150.419 113.942 150.488 113.942Z" fill="#FAD6BB"/>
<path d="M165.43 107.345C165.568 107.345 165.706 107.282 165.706 107.157C165.776 107.031 165.637 106.843 165.499 106.843L163.354 106.403L163.908 104.267C163.977 104.141 163.839 103.953 163.7 103.953C163.562 103.89 163.354 104.015 163.354 104.141L162.732 106.528C162.732 106.591 162.732 106.654 162.801 106.717C162.87 106.78 162.939 106.843 163.009 106.843L165.43 107.345Z" fill="#FAD6BB"/>
<path d="M163.77 108.288C163.908 108.288 164.046 108.225 164.046 108.099C164.115 107.973 163.977 107.785 163.839 107.785L161.694 107.345L162.248 105.209C162.317 105.083 162.179 104.895 162.04 104.895C161.902 104.832 161.694 104.958 161.694 105.083L161.072 107.471C161.003 107.596 161.141 107.785 161.279 107.785L163.7 108.288H163.77Z" fill="#FAD6BB"/>
<path d="M152.079 115.136C152.217 115.136 152.356 115.073 152.356 114.947L152.978 112.56C152.978 112.497 152.978 112.434 152.909 112.371C152.84 112.308 152.771 112.246 152.702 112.246L150.281 111.743C150.142 111.68 149.935 111.806 149.935 111.932C149.866 112.057 150.004 112.246 150.142 112.246L152.287 112.685L151.733 114.822C151.664 114.947 151.802 115.136 151.941 115.136C152.01 115.136 152.079 115.136 152.079 115.136Z" fill="#FAD6BB"/>
<path d="M153.739 114.193C153.878 114.193 154.016 114.131 154.016 114.005L154.639 111.617C154.708 111.492 154.569 111.303 154.431 111.303L152.01 110.801C151.872 110.738 151.664 110.863 151.664 110.989C151.595 111.115 151.733 111.303 151.872 111.303L154.016 111.743L153.463 113.879C153.393 114.005 153.532 114.193 153.67 114.193H153.739Z" fill="#FAD6BB"/>
<path d="M165.637 113.816C165.775 113.816 165.845 113.754 165.914 113.691C165.983 113.565 165.983 113.377 165.775 113.314L150.557 104.895C150.419 104.832 150.211 104.832 150.142 105.021C150.073 105.146 150.073 105.335 150.281 105.398L165.499 113.816C165.568 113.816 165.637 113.816 165.637 113.816Z" fill="#FAD6BB"/>
<path d="M150.488 107.408H150.557L153.186 106.843C153.255 106.843 153.324 106.78 153.393 106.717C153.463 106.654 153.463 106.591 153.463 106.528L152.84 104.329C152.771 104.204 152.632 104.078 152.494 104.141C152.356 104.204 152.217 104.329 152.287 104.455L152.84 106.403L150.488 106.905C150.35 106.968 150.211 107.094 150.281 107.22C150.211 107.345 150.35 107.408 150.488 107.408Z" fill="#FAD6BB"/>
<path d="M152.148 108.35H152.217L154.846 107.785C154.915 107.785 154.984 107.722 155.054 107.659C155.123 107.596 155.123 107.534 155.123 107.471L154.5 105.272C154.431 105.146 154.293 105.021 154.154 105.083C154.016 105.146 153.878 105.272 153.947 105.397L154.5 107.345L152.148 107.848C152.01 107.911 151.872 108.036 151.941 108.162C151.872 108.288 152.01 108.35 152.148 108.35Z" fill="#FAD6BB"/>
<path d="M163.631 114.508H163.7C163.839 114.445 163.977 114.319 163.908 114.193L163.354 112.246L165.706 111.743C165.845 111.68 165.983 111.555 165.914 111.429C165.845 111.303 165.706 111.178 165.568 111.241L162.939 111.806C162.801 111.869 162.663 111.995 162.732 112.12L163.354 114.319C163.354 114.382 163.493 114.508 163.631 114.508Z" fill="#FAD6BB"/>
<path d="M161.971 113.565H162.04C162.178 113.502 162.317 113.377 162.248 113.251L161.694 111.303L164.046 110.801C164.184 110.738 164.323 110.612 164.254 110.487C164.184 110.361 164.046 110.235 163.908 110.298L161.279 110.864C161.141 110.926 161.002 111.052 161.072 111.178L161.694 113.377C161.694 113.502 161.833 113.565 161.971 113.565Z" fill="#FAD6BB"/>
<path d="M156.022 97.607C156.16 97.607 156.299 97.4814 156.299 97.3557V95.0939H159.412V97.3557C159.412 97.4814 159.55 97.607 159.688 97.607C159.827 97.607 159.965 97.4814 159.965 97.3557V94.8426C159.965 94.717 159.827 94.5913 159.688 94.5913H155.953C155.815 94.5913 155.676 94.717 155.676 94.8426V97.3557C155.745 97.4814 155.884 97.607 156.022 97.607Z" fill="#FAD6BB"/>
<path d="M157.89 95.3453C158.028 95.3453 158.166 95.2196 158.166 95.094V34.5912C158.166 34.4655 158.028 34.3398 157.89 34.3398C157.751 34.3398 157.613 34.4655 157.613 34.5912V95.0312C157.613 95.2196 157.751 95.3453 157.89 95.3453Z" fill="#FAD6BB"/>
<path d="M70.454 80.6438C76.818 80.6438 82.006 75.9317 82.006 70.1516C82.006 64.3715 76.818 59.6594 70.454 59.6594C64.09 59.6594 58.9019 64.3715 58.9019 70.1516C58.9019 75.9317 64.09 80.6438 70.454 80.6438ZM70.454 60.2249C76.4721 60.2249 81.3835 64.6856 81.3835 70.1516C81.3835 75.6176 76.4721 80.0783 70.454 80.0783C64.4359 80.0783 59.5245 75.6176 59.5245 70.1516C59.5245 64.6856 64.4359 60.2249 70.454 60.2249Z" fill="#FAD6BB"/>
<path d="M70.523 76.3714C70.6614 76.3714 70.7997 76.2458 70.7997 76.1201V63.1148C70.7997 62.9892 70.6614 62.8635 70.523 62.8635C70.3847 62.8635 70.2464 62.9892 70.2464 63.1148V76.1201C70.2464 76.2458 70.3847 76.3714 70.523 76.3714Z" fill="#FAD6BB"/>
<path d="M70.5922 65.251C70.6614 65.251 70.7306 65.251 70.7997 65.1881L72.2524 63.8687C72.3907 63.7431 72.3907 63.5546 72.2524 63.4918C72.114 63.3661 71.9065 63.3661 71.8373 63.4918L70.5922 64.6227L69.2779 63.429C69.1395 63.3033 68.932 63.3033 68.8629 63.429C68.7245 63.5546 68.7245 63.7431 68.8629 63.8059L70.3847 65.1881C70.3847 65.1881 70.4539 65.251 70.5922 65.251Z" fill="#FAD6BB"/>
<path d="M70.5922 66.696C70.6614 66.696 70.7306 66.696 70.7997 66.6332L72.2524 65.3138C72.3907 65.1882 72.3907 64.9997 72.2524 64.9369C72.114 64.8112 71.9065 64.8112 71.8373 64.9369L70.5922 66.0677L69.2779 64.874C69.1395 64.7484 68.932 64.7484 68.8629 64.874C68.7937 64.9997 68.7245 65.1882 68.8629 65.251L70.3847 66.6332C70.3847 66.6332 70.4539 66.696 70.5922 66.696Z" fill="#FAD6BB"/>
<path d="M72.114 75.9944C72.1832 75.9944 72.2524 75.9944 72.3215 75.9315C72.4599 75.8059 72.4599 75.6174 72.3215 75.5546L70.7997 74.1724C70.6614 74.0467 70.4538 74.0467 70.3847 74.1724L68.932 75.4917C68.7937 75.6174 68.7937 75.8059 68.932 75.8687C69.0704 75.9944 69.2779 75.9944 69.3471 75.8687L70.5922 74.7378L71.9065 75.9315C71.9757 75.9944 72.0448 75.9944 72.114 75.9944Z" fill="#FAD6BB"/>
<path d="M72.114 74.5494C72.1832 74.5494 72.2524 74.5494 72.3215 74.4865C72.4599 74.3609 72.4599 74.1724 72.3215 74.1096L70.7997 72.7274C70.7305 72.6645 70.6614 72.6646 70.5922 72.6646C70.523 72.6646 70.4538 72.6645 70.3847 72.7274L68.932 74.0468C68.7937 74.1724 68.7937 74.3609 68.932 74.4237C69.0704 74.5494 69.2779 74.5494 69.3471 74.4237L70.5922 73.2928L71.9065 74.4865C71.9757 74.5494 72.0448 74.5494 72.114 74.5494Z" fill="#FAD6BB"/>
<path d="M64.505 73.3558C64.5741 73.3558 64.6433 73.3558 64.6433 73.293L76.8179 66.4448C76.9563 66.382 77.0255 66.1935 76.8871 66.0678C76.8179 65.9422 76.6104 65.8794 76.4721 66.005L64.2974 72.8532C64.1591 72.916 64.0899 73.1045 64.2283 73.2302C64.2974 73.293 64.3666 73.3558 64.505 73.3558Z" fill="#FAD6BB"/>
<path d="M76.4721 68.0781C76.6104 68.0781 76.7488 68.0153 76.7488 67.8896C76.8179 67.7639 76.6796 67.5755 76.5412 67.5755L74.8811 67.1985L75.2961 65.565C75.3653 65.4393 75.2269 65.2508 75.0886 65.2508C74.9502 65.188 74.7427 65.3137 74.7427 65.4393L74.2585 67.387C74.1893 67.5126 74.3277 67.7011 74.466 67.7011L76.4721 68.1409C76.4721 68.0781 76.4721 68.0781 76.4721 68.0781Z" fill="#FAD6BB"/>
<path d="M75.1578 68.832C75.2961 68.832 75.4345 68.7692 75.4345 68.6435C75.5037 68.5178 75.3653 68.3294 75.227 68.3294L73.5668 67.9524L73.9818 66.3189C74.051 66.1932 73.9127 66.0047 73.7743 66.0047C73.636 65.9419 73.4284 66.0676 73.4284 66.1932L72.9442 68.1409C72.875 68.2665 73.0134 68.455 73.1517 68.455L75.1578 68.8948C75.0886 68.832 75.1578 68.832 75.1578 68.832Z" fill="#FAD6BB"/>
<path d="M65.7501 74.2981C65.8885 74.2981 66.0268 74.2353 66.0268 74.1097L66.511 72.162C66.511 72.0992 66.511 72.0363 66.4419 71.9735C66.3727 71.9107 66.3035 71.8479 66.2344 71.8479L64.2283 71.4081C64.09 71.3452 63.8824 71.4709 63.8824 71.5966C63.8133 71.7222 63.9516 71.9107 64.09 71.9107L65.7501 72.2877L65.3351 73.9212C65.2659 74.0468 65.4043 74.2353 65.5426 74.2353C65.7501 74.2981 65.7501 74.2981 65.7501 74.2981Z" fill="#FAD6BB"/>
<path d="M67.1336 73.5442C67.2719 73.5442 67.4103 73.4814 67.4103 73.3557L67.8945 71.4081C67.9637 71.2824 67.8253 71.094 67.687 71.094L65.6809 70.6542C65.5426 70.5913 65.3351 70.717 65.3351 70.8426C65.2659 70.9683 65.4042 71.1568 65.5426 71.1568L67.2028 71.5337L66.7877 73.1673C66.7185 73.2929 66.8569 73.4814 66.9952 73.4814C67.0644 73.5442 67.0644 73.5442 67.1336 73.5442Z" fill="#FAD6BB"/>
<path d="M76.6796 73.2931C76.818 73.2931 76.8871 73.2303 76.9563 73.1674C77.0255 73.0418 77.0255 72.8533 76.818 72.7905L64.5742 66.0051C64.4358 65.9423 64.2283 65.9423 64.1591 66.1308C64.0899 66.2564 64.0899 66.4449 64.2975 66.5077L76.5413 73.2931C76.6104 73.2303 76.6104 73.2931 76.6796 73.2931Z" fill="#FAD6BB"/>
<path d="M64.505 68.1411H64.5741L66.7185 67.7013C66.7877 67.7013 66.8569 67.6385 66.9261 67.5757C66.9952 67.5129 66.9952 67.45 66.9952 67.3872L66.511 65.628C66.4418 65.5024 66.3035 65.3767 66.1652 65.4396C66.0268 65.5024 65.8885 65.628 65.9576 65.7537L66.3727 67.2616L64.5741 67.6385C64.4358 67.7014 64.2975 67.827 64.3666 67.9527C64.2283 68.0155 64.3666 68.1411 64.505 68.1411Z" fill="#FAD6BB"/>
<path d="M65.8193 68.8323H65.8885L68.0329 68.3925C68.1712 68.3297 68.3096 68.204 68.2404 68.0784L67.7562 66.3192C67.687 66.1936 67.5487 66.0679 67.4103 66.1307C67.272 66.1936 67.1336 66.3192 67.2028 66.4449L67.6178 67.9527L65.8193 68.3297C65.681 68.3925 65.5426 68.5182 65.6118 68.6438C65.5426 68.7695 65.681 68.8323 65.8193 68.8323Z" fill="#FAD6BB"/>
<path d="M75.0886 73.7957H75.1577C75.2961 73.7329 75.4344 73.6072 75.3653 73.4815L74.9502 71.9737L76.7487 71.5967C76.8871 71.5339 77.0254 71.4082 76.9563 71.2826C76.8871 71.1569 76.7487 71.0313 76.6104 71.0941L74.466 71.5339C74.3277 71.5967 74.1893 71.7224 74.2585 71.848L74.7427 73.6072C74.8119 73.7329 74.9502 73.7957 75.0886 73.7957Z" fill="#FAD6BB"/>
<path d="M73.7052 73.0418H73.7743C73.9127 72.9789 74.051 72.8533 73.9818 72.7276L73.5668 71.2198L75.3653 70.8428C75.5037 70.78 75.642 70.6543 75.5728 70.5287C75.5037 70.403 75.3653 70.2774 75.227 70.3402L73.0826 70.78C73.0134 70.78 72.9442 70.8428 72.8751 70.9056C72.8059 70.9685 72.8059 71.0313 72.8059 71.0941L73.2901 72.8533C73.4285 72.979 73.5668 73.0418 73.7052 73.0418Z" fill="#FAD6BB"/>
<path d="M68.9321 60.2874C69.0705 60.2874 69.2088 60.1618 69.2088 60.0361V58.3398H71.7683V60.0361C71.7683 60.1618 71.9066 60.2874 72.045 60.2874C72.1833 60.2874 72.3217 60.1618 72.3217 60.0361V58.0885C72.3217 57.9628 72.1833 57.8372 72.045 57.8372H68.9321C68.7938 57.8372 68.6554 57.9628 68.6554 58.0885V60.0361C68.6554 60.1618 68.7938 60.2874 68.9321 60.2874Z" fill="#FAD6BB"/>
<path d="M70.7998 58.0258C70.9381 58.0258 71.0765 57.9001 71.0765 57.7745V51.5545C71.0765 51.4289 70.9381 51.3032 70.7998 51.3032C70.6614 51.3032 70.5231 51.4289 70.5231 51.5545V57.7745C70.5231 57.9001 70.6614 58.0258 70.7998 58.0258Z" fill="#FAD6BB"/>
<path d="M113.065 71.3455C113.204 71.3455 113.273 71.2827 113.342 71.2199L120.674 60.1622C120.743 60.0994 120.743 59.9737 120.674 59.9109L114.103 48.602C114.034 48.5391 113.964 48.4763 113.826 48.4763C113.688 48.4763 113.619 48.5391 113.549 48.602L106.217 59.5968C106.148 59.6596 106.148 59.7853 106.217 59.8481L112.788 71.2827C112.858 71.2827 112.996 71.3455 113.065 71.3455ZM120.052 59.9737L113.134 70.4659L106.84 59.6596L113.757 49.2302L120.052 59.9737Z" fill="#FAD6BB"/>
<path d="M113.065 71.3454C113.203 71.3454 113.273 71.2198 113.342 71.0941L117.769 61.1674C117.769 61.1045 117.769 61.0417 117.769 60.9789L114.034 48.916C113.964 48.7904 113.895 48.7275 113.757 48.7275C113.619 48.7275 113.48 48.7904 113.48 48.916L109.122 60.7904C109.122 60.8532 109.122 60.9161 109.122 60.9789L112.719 71.1569C112.858 71.1569 112.927 71.3454 113.065 71.3454ZM117.216 60.9789L113.134 70.026L109.814 60.7904L113.757 49.8584L117.216 60.9789Z" fill="#FAD6BB"/>
<path d="M117.423 61.1674C117.492 61.1674 117.492 61.2303 117.562 61.2303L120.536 60.225C120.674 60.1622 120.744 60.0365 120.744 59.8481C120.674 59.7224 120.467 59.6596 120.328 59.7224L117.354 60.7277L109.537 60.5392L106.632 59.3454C106.494 59.2826 106.286 59.3454 106.217 59.4711C106.148 59.5968 106.217 59.7852 106.355 59.8481L109.33 61.0418C109.399 61.0418 109.399 60.979 109.468 60.979L117.423 61.1674Z" fill="#FAD6BB"/>
<path d="M113.757 45.649C113.895 45.649 114.034 45.5234 114.034 45.3977V19.3243C114.034 19.1987 113.895 19.073 113.757 19.073C113.619 19.073 113.48 19.1987 113.48 19.3243V45.3349C113.411 45.5234 113.549 45.649 113.757 45.649Z" fill="#FAD6BB"/>
<path d="M113.895 48.4134C114.933 48.4134 115.763 47.6595 115.763 46.7171C115.763 45.7747 114.933 45.0208 113.895 45.0208C112.858 45.0208 112.028 45.7747 112.028 46.7171C112.028 47.6595 112.858 48.4134 113.895 48.4134ZM113.895 45.649C114.587 45.649 115.14 46.1516 115.14 46.7799C115.14 47.4082 114.587 47.9108 113.895 47.9108C113.204 47.9108 112.65 47.4082 112.65 46.7799C112.65 46.1516 113.204 45.649 113.895 45.649Z" fill="#FAD6BB"/>
<path d="M172.901 97.8584C172.486 97.8584 172.07 98.1725 172.07 98.5495C172.07 98.9265 172.416 99.3034 172.831 99.3034C173.246 99.3034 173.661 98.9893 173.661 98.6123C173.661 98.2354 173.385 97.8584 172.901 97.8584Z" fill="#FAD6BB"/>
<path d="M170.479 49.7955C170.687 49.7955 170.964 49.7955 171.171 49.7326C172.486 49.4185 173.246 48.162 172.831 46.9682C172.555 46.0258 171.586 45.3347 170.479 45.3347C170.272 45.3347 169.995 45.3347 169.788 45.3975C168.473 45.7117 167.713 46.9682 168.128 48.162C168.404 49.1044 169.442 49.7955 170.479 49.7955ZM170.479 45.9002C171.31 45.9002 172.001 46.4028 172.278 47.0939C172.555 47.9735 172.001 48.9159 171.033 49.1672C170.064 49.4185 169.027 48.9159 168.75 48.0363C168.473 47.1567 169.027 46.2143 169.995 45.963C170.134 45.9002 170.341 45.9002 170.479 45.9002Z" fill="#FAD6BB"/>
</g>
<path d="M360.27 2.23401C360.132 2.17118 359.924 2.23401 359.855 2.42249C359.786 2.48532 356.189 10.9042 345.467 19.2602C335.575 26.988 317.451 36.1608 287.43 36.1608C280.512 36.1608 274.425 35.3441 269.099 34.0875C269.099 34.276 269.03 34.4645 268.96 34.653C274.356 35.9724 280.443 36.7263 287.43 36.7263C317.659 36.7263 335.921 27.4906 345.882 19.7C356.742 11.2812 360.408 2.73663 360.478 2.61097C360.547 2.48532 360.478 2.29684 360.27 2.23401Z" fill="#D7AD6C"/>
<path d="M439.75 43.387C398.868 43.387 374.45 32.0153 361.168 22.4027C346.78 12.0361 342.007 1.48112 341.938 1.35547C341.869 1.22981 342.007 1.04133 342.145 0.978505C342.284 0.915678 342.491 0.978505 342.56 1.10416C342.63 1.22981 347.333 11.6592 361.583 21.9C374.795 31.4498 399.006 42.8216 439.75 42.8216C491.492 42.8216 522.689 31.5126 539.775 21.9629C558.245 11.6592 564.609 1.22981 564.678 1.16699C564.747 1.04133 564.955 0.978505 565.093 1.04133C565.231 1.10416 565.301 1.29264 565.231 1.4183C565.162 1.54395 558.798 12.0361 540.19 22.4027C523.035 31.9524 491.699 43.387 439.75 43.387Z" fill="#D7AD6C"/>
<path d="M397.623 56.3296C353.49 56.3296 327.204 41.3767 312.885 28.874C297.39 15.3033 292.271 1.48124 292.202 1.35559C292.133 1.22994 292.271 1.04145 292.409 0.978625C292.548 0.915798 292.755 1.04145 292.824 1.16711C292.893 1.29276 297.943 14.9891 313.369 28.497C327.55 40.9369 353.697 55.7642 397.623 55.7642C453.446 55.7642 487.134 40.8741 505.534 28.4342C525.456 14.9263 532.305 1.29276 532.305 1.16711C532.374 1.04145 532.581 0.978625 532.72 1.04145C532.858 1.10428 532.927 1.29276 532.858 1.41842C532.789 1.54407 525.941 15.3661 505.88 28.9368C487.411 41.4395 453.585 56.3296 397.623 56.3296Z" fill="#D7AD6C"/>
<path d="M406.2 48.2875C406.2 47.9106 406.546 47.5964 406.961 47.5964C407.376 47.5964 407.722 47.9106 407.722 48.2875C407.722 48.6645 407.376 48.9786 406.961 48.9786C406.615 48.9786 406.2 48.6645 406.2 48.2875Z" fill="#FAD6BB"/>
<path d="M278.782 21.8999C278.229 21.8999 277.675 21.7743 277.191 21.523C276.361 21.146 275.738 20.4549 275.462 19.701C275.185 18.8842 275.254 18.0675 275.669 17.3135C276.292 16.2455 277.468 15.6172 278.782 15.6172C279.335 15.6172 279.889 15.7428 280.373 15.9942C282.102 16.8109 282.725 18.6957 281.895 20.2664C281.272 21.2717 280.096 21.8999 278.782 21.8999ZM278.782 16.1826C277.675 16.1826 276.707 16.7481 276.222 17.5648C275.877 18.1931 275.807 18.8842 276.015 19.5753C276.222 20.2664 276.776 20.769 277.398 21.0832C277.813 21.2717 278.229 21.3973 278.713 21.3973C279.82 21.3973 280.788 20.8319 281.272 20.0151C281.964 18.7586 281.411 17.1879 280.027 16.4968C279.681 16.2455 279.266 16.1826 278.782 16.1826Z" fill="#FAD6BB"/>
<path d="M241.428 16.9367C240.044 16.9995 238.869 15.9943 238.799 14.6749C238.73 13.4184 239.837 12.3503 241.29 12.2875C242.673 12.2246 243.849 13.2299 243.918 14.5492C243.918 15.8058 242.811 16.8739 241.428 16.9367Z" fill="#FAD6BB"/>
<path d="M245.924 106.78C245.855 106.78 245.717 106.78 245.648 106.78C243.711 106.654 242.327 105.083 242.466 103.387C242.604 101.691 244.333 100.371 246.201 100.497C247.1 100.56 247.999 100.937 248.553 101.628C249.175 102.256 249.452 103.073 249.383 103.953C249.245 105.523 247.723 106.78 245.924 106.78ZM245.855 101C244.402 101 243.157 102.068 243.019 103.387C242.881 104.832 244.057 106.089 245.648 106.214C247.239 106.34 248.622 105.272 248.76 103.827C248.83 103.136 248.553 102.445 248.069 101.942C247.584 101.439 246.893 101.062 246.132 101.062C246.063 101 245.993 101 245.855 101Z" fill="#FAD6BB"/>
<path d="M330.939 51.5546C330.732 51.5546 330.524 51.4918 330.247 51.429C329.832 51.2405 329.486 50.9892 329.348 50.6122C329.141 50.2352 329.141 49.7955 329.348 49.4185C329.625 48.853 330.247 48.4761 330.939 48.4761C331.147 48.4761 331.354 48.5389 331.631 48.6017C332.53 48.9159 332.945 49.8583 332.53 50.6122C332.253 51.1777 331.631 51.5546 330.939 51.5546ZM330.939 48.9787C330.524 48.9787 330.109 49.23 329.901 49.607C329.763 49.8583 329.763 50.1096 329.901 50.3609C330.04 50.6122 330.247 50.8007 330.524 50.9263C331.077 51.1148 331.7 50.8635 331.977 50.3609C332.184 49.8583 331.977 49.2928 331.354 49.0415C331.216 48.9787 331.077 48.9787 330.939 48.9787Z" fill="#FAD6BB"/>
<path d="M305.829 85.5444C305.621 85.5444 305.414 85.4815 305.137 85.4187C304.722 85.2302 304.376 84.9789 304.238 84.602C304.03 84.225 304.03 83.7852 304.238 83.4082C304.515 82.8428 305.137 82.4658 305.829 82.4658C306.036 82.4658 306.244 82.5287 306.521 82.5915C306.936 82.78 307.282 83.0313 307.42 83.4082C307.627 83.7852 307.627 84.225 307.42 84.602C307.143 85.1674 306.521 85.5444 305.829 85.5444ZM305.829 83.0313C305.414 83.0313 304.999 83.2826 304.791 83.6595C304.653 83.9109 304.653 84.1622 304.791 84.4135C304.93 84.6648 305.137 84.8533 305.414 84.9789C305.967 85.1674 306.59 84.9161 306.867 84.4135C307.005 84.1622 307.005 83.9109 306.867 83.6595C306.728 83.4082 306.521 83.2198 306.244 83.0941C306.106 83.0313 305.967 83.0313 305.829 83.0313Z" fill="#FAD6BB"/>
<path d="M325.267 93.0207C325.129 93.0207 324.99 93.0207 324.852 92.9579C324.575 92.8322 324.368 92.6438 324.229 92.3924C324.091 92.1411 324.091 91.8898 324.229 91.6385C324.437 91.1359 325.129 90.8846 325.682 91.0731C326.235 91.2616 326.512 91.8898 326.304 92.3924C326.097 92.8322 325.682 93.0207 325.267 93.0207ZM325.267 91.6385C325.059 91.6385 324.921 91.7642 324.852 91.8898C324.783 92.0155 324.783 92.1411 324.852 92.204C324.921 92.3296 324.99 92.3925 325.129 92.4553C325.405 92.5181 325.682 92.4553 325.751 92.204C325.82 91.9527 325.751 91.7013 325.474 91.6385C325.405 91.6385 325.336 91.6385 325.267 91.6385Z" fill="#FAD6BB"/>
<path d="M288.95 63.6802C287.636 63.1776 287.014 61.8582 287.567 60.6645C288.12 59.4708 289.573 58.9053 290.887 59.408C292.202 59.9106 292.824 61.2299 292.271 62.4237C291.717 63.6174 290.196 64.1828 288.95 63.6802Z" fill="#FAD6BB"/>
<path d="M336.266 112.309C335.781 112.309 335.366 112.183 334.951 111.995C333.568 111.366 333.014 109.796 333.706 108.476C334.19 107.597 335.159 107.094 336.266 107.094C336.75 107.094 337.165 107.22 337.58 107.408C338.272 107.722 338.756 108.288 338.963 108.916C339.171 109.544 339.102 110.298 338.756 110.926C338.341 111.806 337.372 112.309 336.266 112.309ZM336.335 107.722C335.505 107.722 334.744 108.162 334.329 108.853C333.775 109.858 334.19 111.052 335.297 111.618C335.643 111.743 335.989 111.869 336.335 111.869C337.165 111.869 337.926 111.429 338.341 110.738C338.617 110.235 338.687 109.733 338.479 109.167C338.272 108.665 337.926 108.225 337.372 107.974C337.026 107.785 336.681 107.722 336.335 107.722Z" fill="#FAD6BB"/>
<path d="M371.198 56.9578C371.613 56.9578 372.028 57.2719 372.028 57.6489C372.028 58.0258 371.683 58.4028 371.268 58.4028C370.853 58.4028 370.437 58.0887 370.437 57.7117C370.368 57.3347 370.714 56.9578 371.198 56.9578Z" fill="#FAD6BB"/>
<path d="M353.006 84.7904C353.351 83.7852 354.527 83.1569 355.634 83.471C356.741 83.7852 357.433 84.8532 357.087 85.9213C356.741 86.9265 355.565 87.5548 354.389 87.2407C353.351 86.9265 352.66 85.7956 353.006 84.7904Z" fill="#FAD6BB"/>
<path d="M269.167 122.989C261.281 122.989 254.848 117.146 254.848 109.984C254.848 102.822 261.281 96.9788 269.167 96.9788C277.053 96.9788 283.486 102.822 283.486 109.984C283.486 117.209 277.053 122.989 269.167 122.989ZM269.167 97.607C261.627 97.607 255.47 103.199 255.47 110.047C255.47 116.895 261.627 122.487 269.167 122.487C276.707 122.487 282.863 116.895 282.863 110.047C282.863 103.199 276.707 97.607 269.167 97.607Z" fill="#FAD6BB"/>
<path d="M269.029 117.712C268.89 117.712 268.752 117.586 268.752 117.461V101.251C268.752 101.125 268.89 101 269.029 101C269.167 101 269.305 101.125 269.305 101.251V117.461C269.305 117.586 269.167 117.712 269.029 117.712Z" fill="#FAD6BB"/>
<path d="M269.029 103.827C268.959 103.827 268.89 103.827 268.821 103.764L267.022 102.13C266.884 102.005 266.884 101.816 267.022 101.754C267.161 101.628 267.368 101.628 267.438 101.754L269.029 103.199L270.689 101.691C270.827 101.565 271.035 101.565 271.104 101.691C271.242 101.816 271.242 102.005 271.104 102.068L269.167 103.827C269.167 103.827 269.098 103.827 269.029 103.827Z" fill="#FAD6BB"/>
<path d="M269.029 105.649C268.959 105.649 268.89 105.649 268.821 105.586L267.022 103.953C266.884 103.827 266.884 103.639 267.022 103.576C267.161 103.45 267.368 103.45 267.438 103.576L269.029 105.021L270.689 103.513C270.827 103.387 271.035 103.387 271.104 103.513C271.173 103.639 271.242 103.827 271.104 103.89L269.167 105.649C269.167 105.586 269.098 105.649 269.029 105.649Z" fill="#FAD6BB"/>
<path d="M267.092 117.209C267.023 117.209 266.953 117.209 266.884 117.146C266.746 117.021 266.746 116.832 266.884 116.769L268.821 115.01C268.959 114.885 269.167 114.885 269.236 115.01L271.035 116.644C271.173 116.769 271.173 116.958 271.035 117.021C270.896 117.084 270.689 117.146 270.62 117.021L269.029 115.576L267.299 117.084C267.23 117.209 267.161 117.209 267.092 117.209Z" fill="#FAD6BB"/>
<path d="M267.092 115.45C267.023 115.45 266.953 115.45 266.884 115.387C266.746 115.262 266.746 115.073 266.884 115.01L268.821 113.251C268.89 113.188 268.959 113.188 269.029 113.188C269.098 113.188 269.167 113.188 269.236 113.251L271.035 114.885C271.173 115.01 271.173 115.199 271.035 115.262C270.896 115.324 270.689 115.387 270.62 115.262L269.029 113.817L267.299 115.387C267.23 115.45 267.161 115.45 267.092 115.45Z" fill="#FAD6BB"/>
<path d="M276.568 113.942C276.499 113.942 276.43 113.942 276.43 113.879L261.281 105.335C261.143 105.272 261.073 105.083 261.212 104.958C261.281 104.832 261.488 104.769 261.627 104.895L276.776 113.439C276.914 113.502 276.983 113.691 276.845 113.816C276.776 113.879 276.638 113.942 276.568 113.942Z" fill="#FAD6BB"/>
<path d="M261.627 107.345C261.489 107.345 261.35 107.282 261.35 107.157C261.281 107.031 261.419 106.843 261.558 106.843L263.702 106.403L263.149 104.267C263.08 104.141 263.218 103.953 263.356 103.953C263.495 103.89 263.702 104.015 263.702 104.141L264.325 106.528C264.325 106.591 264.325 106.654 264.255 106.717C264.186 106.78 264.117 106.843 264.048 106.843L261.627 107.345Z" fill="#FAD6BB"/>
<path d="M263.287 108.288C263.149 108.288 263.01 108.225 263.01 108.099C262.941 107.973 263.079 107.785 263.218 107.785L265.362 107.345L264.809 105.209C264.74 105.083 264.878 104.895 265.016 104.895C265.155 104.832 265.362 104.958 265.362 105.083L265.985 107.471C266.054 107.596 265.916 107.785 265.777 107.785L263.356 108.288H263.287Z" fill="#FAD6BB"/>
<path d="M274.977 115.136C274.839 115.136 274.701 115.073 274.701 114.947L274.078 112.56C274.078 112.497 274.078 112.434 274.147 112.371C274.216 112.308 274.286 112.246 274.355 112.246L276.776 111.743C276.914 111.68 277.122 111.806 277.122 111.932C277.191 112.057 277.053 112.246 276.914 112.246L274.77 112.685L275.323 114.822C275.392 114.947 275.254 115.136 275.116 115.136C275.047 115.136 274.977 115.136 274.977 115.136Z" fill="#FAD6BB"/>
<path d="M273.317 114.193C273.179 114.193 273.041 114.131 273.041 114.005L272.418 111.617C272.349 111.492 272.487 111.303 272.626 111.303L275.047 110.801C275.185 110.738 275.392 110.863 275.392 110.989C275.462 111.115 275.323 111.303 275.185 111.303L273.041 111.743L273.594 113.879C273.663 114.005 273.525 114.193 273.386 114.193H273.317Z" fill="#FAD6BB"/>
<path d="M261.419 113.816C261.281 113.816 261.212 113.754 261.143 113.691C261.074 113.565 261.074 113.377 261.281 113.314L276.499 104.895C276.638 104.832 276.845 104.832 276.914 105.021C276.984 105.146 276.984 105.335 276.776 105.398L261.558 113.816C261.489 113.816 261.419 113.816 261.419 113.816Z" fill="#FAD6BB"/>
<path d="M276.568 107.408H276.499L273.871 106.843C273.802 106.843 273.732 106.78 273.663 106.717C273.594 106.654 273.594 106.591 273.594 106.528L274.217 104.329C274.286 104.204 274.424 104.078 274.562 104.141C274.701 104.204 274.839 104.329 274.77 104.455L274.217 106.403L276.568 106.905C276.707 106.968 276.845 107.094 276.776 107.22C276.845 107.345 276.707 107.408 276.568 107.408Z" fill="#FAD6BB"/>
<path d="M274.908 108.35H274.839L272.21 107.785C272.141 107.785 272.072 107.722 272.003 107.659C271.934 107.596 271.934 107.534 271.934 107.471L272.556 105.272C272.626 105.146 272.764 105.021 272.902 105.083C273.041 105.146 273.179 105.272 273.11 105.397L272.556 107.345L274.908 107.848C275.047 107.911 275.185 108.036 275.116 108.162C275.185 108.288 275.047 108.35 274.908 108.35Z" fill="#FAD6BB"/>
<path d="M263.425 114.508H263.356C263.218 114.445 263.08 114.319 263.149 114.193L263.702 112.246L261.35 111.743C261.212 111.68 261.073 111.555 261.143 111.429C261.212 111.303 261.35 111.178 261.489 111.241L264.117 111.806C264.255 111.869 264.394 111.995 264.325 112.12L263.702 114.319C263.702 114.382 263.564 114.508 263.425 114.508Z" fill="#FAD6BB"/>
<path d="M265.086 113.565H265.016C264.878 113.502 264.74 113.377 264.809 113.251L265.362 111.303L263.01 110.801C262.872 110.738 262.734 110.612 262.803 110.487C262.872 110.361 263.01 110.235 263.149 110.298L265.777 110.864C265.916 110.926 266.054 111.052 265.985 111.178L265.362 113.377C265.362 113.502 265.224 113.565 265.086 113.565Z" fill="#FAD6BB"/>
<path d="M271.034 97.607C270.896 97.607 270.758 97.4814 270.758 97.3557V95.0939H267.645V97.3557C267.645 97.4814 267.507 97.607 267.368 97.607C267.23 97.607 267.091 97.4814 267.091 97.3557V94.8426C267.091 94.717 267.23 94.5913 267.368 94.5913H271.104C271.242 94.5913 271.38 94.717 271.38 94.8426V97.3557C271.311 97.4814 271.173 97.607 271.034 97.607Z" fill="#FAD6BB"/>
<path d="M269.167 95.3453C269.028 95.3453 268.89 95.2196 268.89 95.094V34.5912C268.89 34.4655 269.028 34.3398 269.167 34.3398C269.305 34.3398 269.443 34.4655 269.443 34.5912V95.0312C269.443 95.2196 269.305 95.3453 269.167 95.3453Z" fill="#FAD6BB"/>
<path d="M356.603 80.6438C350.239 80.6438 345.051 75.9317 345.051 70.1516C345.051 64.3715 350.239 59.6594 356.603 59.6594C362.967 59.6594 368.155 64.3715 368.155 70.1516C368.155 75.9317 362.967 80.6438 356.603 80.6438ZM356.603 60.2249C350.585 60.2249 345.673 64.6856 345.673 70.1516C345.673 75.6176 350.585 80.0783 356.603 80.0783C362.621 80.0783 367.532 75.6176 367.532 70.1516C367.532 64.6856 362.621 60.2249 356.603 60.2249Z" fill="#FAD6BB"/>
<path d="M356.534 76.3714C356.395 76.3714 356.257 76.2458 356.257 76.1201V63.1148C356.257 62.9892 356.395 62.8635 356.534 62.8635C356.672 62.8635 356.81 62.9892 356.81 63.1148V76.1201C356.81 76.2458 356.672 76.3714 356.534 76.3714Z" fill="#FAD6BB"/>
<path d="M356.464 65.251C356.395 65.251 356.326 65.251 356.257 65.1881L354.804 63.8687C354.666 63.7431 354.666 63.5546 354.804 63.4918C354.943 63.3661 355.15 63.3661 355.219 63.4918L356.464 64.6227L357.779 63.429C357.917 63.3033 358.125 63.3033 358.194 63.429C358.332 63.5546 358.332 63.7431 358.194 63.8059L356.672 65.1881C356.672 65.1881 356.603 65.251 356.464 65.251Z" fill="#FAD6BB"/>
<path d="M356.464 66.696C356.395 66.696 356.326 66.696 356.257 66.6332L354.804 65.3138C354.666 65.1882 354.666 64.9997 354.804 64.9369C354.943 64.8112 355.15 64.8112 355.219 64.9369L356.464 66.0677L357.779 64.874C357.917 64.7484 358.125 64.7484 358.194 64.874C358.263 64.9997 358.332 65.1882 358.194 65.251L356.672 66.6332C356.672 66.6332 356.603 66.696 356.464 66.696Z" fill="#FAD6BB"/>
<path d="M354.943 75.9944C354.873 75.9944 354.804 75.9944 354.735 75.9315C354.597 75.8059 354.597 75.6174 354.735 75.5546L356.257 74.1724C356.395 74.0467 356.603 74.0467 356.672 74.1724L358.125 75.4917C358.263 75.6174 358.263 75.8059 358.125 75.8687C357.986 75.9944 357.779 75.9944 357.71 75.8687L356.464 74.7378L355.15 75.9315C355.081 75.9944 355.012 75.9944 354.943 75.9944Z" fill="#FAD6BB"/>
<path d="M354.943 74.5494C354.873 74.5494 354.804 74.5494 354.735 74.4865C354.597 74.3609 354.597 74.1724 354.735 74.1096L356.257 72.7274C356.326 72.6645 356.395 72.6646 356.464 72.6646C356.534 72.6646 356.603 72.6645 356.672 72.7274L358.125 74.0468C358.263 74.1724 358.263 74.3609 358.125 74.4237C357.986 74.5494 357.779 74.5494 357.71 74.4237L356.464 73.2928L355.15 74.4865C355.081 74.5494 355.012 74.5494 354.943 74.5494Z" fill="#FAD6BB"/>
<path d="M362.552 73.3558C362.482 73.3558 362.413 73.3558 362.413 73.293L350.239 66.4448C350.1 66.382 350.031 66.1935 350.169 66.0678C350.239 65.9422 350.446 65.8794 350.585 66.005L362.759 72.8532C362.897 72.916 362.967 73.1045 362.828 73.2302C362.759 73.293 362.69 73.3558 362.552 73.3558Z" fill="#FAD6BB"/>
<path d="M350.585 68.0781C350.446 68.0781 350.308 68.0153 350.308 67.8896C350.239 67.7639 350.377 67.5755 350.515 67.5755L352.176 67.1985L351.76 65.565C351.691 65.4393 351.83 65.2508 351.968 65.2508C352.106 65.188 352.314 65.3137 352.314 65.4393L352.798 67.387C352.867 67.5126 352.729 67.7011 352.591 67.7011L350.585 68.1409C350.585 68.0781 350.585 68.0781 350.585 68.0781Z" fill="#FAD6BB"/>
<path d="M351.899 68.832C351.76 68.832 351.622 68.7692 351.622 68.6435C351.553 68.5178 351.691 68.3294 351.83 68.3294L353.49 67.9524L353.075 66.3189C353.006 66.1932 353.144 66.0047 353.282 66.0047C353.421 65.9419 353.628 66.0676 353.628 66.1932L354.112 68.1409C354.182 68.2665 354.043 68.455 353.905 68.455L351.899 68.8948C351.968 68.832 351.899 68.832 351.899 68.832Z" fill="#FAD6BB"/>
<path d="M361.307 74.2981C361.168 74.2981 361.03 74.2353 361.03 74.1097L360.546 72.162C360.546 72.0992 360.546 72.0363 360.615 71.9735C360.684 71.9107 360.753 71.8479 360.822 71.8479L362.828 71.4081C362.967 71.3452 363.174 71.4709 363.174 71.5966C363.243 71.7222 363.105 71.9107 362.967 71.9107L361.307 72.2877L361.722 73.9212C361.791 74.0468 361.652 74.2353 361.514 74.2353C361.307 74.2981 361.307 74.2981 361.307 74.2981Z" fill="#FAD6BB"/>
<path d="M359.923 73.5442C359.785 73.5442 359.646 73.4814 359.646 73.3557L359.162 71.4081C359.093 71.2824 359.231 71.094 359.37 71.094L361.376 70.6542C361.514 70.5913 361.722 70.717 361.722 70.8426C361.791 70.9683 361.652 71.1568 361.514 71.1568L359.854 71.5337L360.269 73.1673C360.338 73.2929 360.2 73.4814 360.061 73.4814C359.992 73.5442 359.992 73.5442 359.923 73.5442Z" fill="#FAD6BB"/>
<path d="M350.377 73.2931C350.239 73.2931 350.17 73.2303 350.1 73.1674C350.031 73.0418 350.031 72.8533 350.239 72.7905L362.483 66.0051C362.621 65.9423 362.828 65.9423 362.898 66.1308C362.967 66.2564 362.967 66.4449 362.759 66.5077L350.515 73.2931C350.446 73.2303 350.446 73.2931 350.377 73.2931Z" fill="#FAD6BB"/>
<path d="M362.552 68.1411H362.483L360.338 67.7013C360.269 67.7013 360.2 67.6385 360.131 67.5757C360.061 67.5129 360.061 67.45 360.061 67.3872L360.546 65.628C360.615 65.5024 360.753 65.3767 360.892 65.4396C361.03 65.5024 361.168 65.628 361.099 65.7537L360.684 67.2616L362.483 67.6385C362.621 67.7014 362.759 67.827 362.69 67.9527C362.828 68.0155 362.69 68.1411 362.552 68.1411Z" fill="#FAD6BB"/>
<path d="M361.237 68.8323H361.168L359.024 68.3925C358.885 68.3297 358.747 68.204 358.816 68.0784L359.3 66.3192C359.37 66.1936 359.508 66.0679 359.646 66.1307C359.785 66.1936 359.923 66.3192 359.854 66.4449L359.439 67.9527L361.237 68.3297C361.376 68.3925 361.514 68.5182 361.445 68.6438C361.514 68.7695 361.376 68.8323 361.237 68.8323Z" fill="#FAD6BB"/>
<path d="M351.968 73.7957H351.899C351.761 73.7329 351.622 73.6072 351.691 73.4815L352.106 71.9737L350.308 71.5967C350.17 71.5339 350.031 71.4082 350.1 71.2826C350.17 71.1569 350.308 71.0313 350.446 71.0941L352.591 71.5339C352.729 71.5967 352.867 71.7224 352.798 71.848L352.314 73.6072C352.245 73.7329 352.106 73.7957 351.968 73.7957Z" fill="#FAD6BB"/>
<path d="M353.352 73.0418H353.282C353.144 72.9789 353.006 72.8533 353.075 72.7276L353.49 71.2198L351.691 70.8428C351.553 70.78 351.415 70.6543 351.484 70.5287C351.553 70.403 351.691 70.2774 351.83 70.3402L353.974 70.78C354.043 70.78 354.112 70.8428 354.182 70.9056C354.251 70.9685 354.251 71.0313 354.251 71.0941L353.767 72.8533C353.628 72.979 353.49 73.0418 353.352 73.0418Z" fill="#FAD6BB"/>
<path d="M358.125 60.2874C357.986 60.2874 357.848 60.1618 357.848 60.0361V58.3398H355.288V60.0361C355.288 60.1618 355.15 60.2874 355.012 60.2874C354.873 60.2874 354.735 60.1618 354.735 60.0361V58.0885C354.735 57.9628 354.873 57.8372 355.012 57.8372H358.125C358.263 57.8372 358.401 57.9628 358.401 58.0885V60.0361C358.401 60.1618 358.263 60.2874 358.125 60.2874Z" fill="#FAD6BB"/>
<path d="M356.257 58.0258C356.119 58.0258 355.98 57.9001 355.98 57.7745V51.5545C355.98 51.4289 356.119 51.3032 356.257 51.3032C356.395 51.3032 356.534 51.4289 356.534 51.5545V57.7745C356.534 57.9001 356.395 58.0258 356.257 58.0258Z" fill="#FAD6BB"/>
<path d="M313.992 71.3455C313.853 71.3455 313.784 71.2827 313.715 71.2199L306.382 60.1622C306.313 60.0994 306.313 59.9737 306.382 59.9109L312.954 48.602C313.023 48.5391 313.092 48.4763 313.231 48.4763C313.369 48.4763 313.438 48.5391 313.507 48.602L320.84 59.5968C320.909 59.6596 320.909 59.7853 320.84 59.8481L314.268 71.2827C314.199 71.2827 314.061 71.3455 313.992 71.3455ZM307.005 59.9737L313.922 70.4659L320.217 59.6596L313.3 49.2302L307.005 59.9737Z" fill="#FAD6BB"/>
<path d="M313.992 71.3454C313.853 71.3454 313.784 71.2198 313.715 71.0941L309.288 61.1674C309.288 61.1045 309.288 61.0417 309.288 60.9789L313.023 48.916C313.092 48.7904 313.162 48.7275 313.3 48.7275C313.438 48.7275 313.577 48.7904 313.577 48.916L317.935 60.7904C317.935 60.8532 317.935 60.9161 317.935 60.9789L314.337 71.1569C314.199 71.1569 314.13 71.3454 313.992 71.3454ZM309.841 60.9789L313.922 70.026L317.243 60.7904L313.3 49.8584L309.841 60.9789Z" fill="#FAD6BB"/>
<path d="M309.634 61.1674C309.564 61.1674 309.564 61.2303 309.495 61.2303L306.521 60.225C306.382 60.1622 306.313 60.0365 306.313 59.8481C306.382 59.7224 306.59 59.6596 306.728 59.7224L309.703 60.7277L317.519 60.5392L320.425 59.3454C320.563 59.2826 320.771 59.3454 320.84 59.4711C320.909 59.5968 320.84 59.7852 320.701 59.8481L317.727 61.0418C317.658 61.0418 317.658 60.979 317.589 60.979L309.634 61.1674Z" fill="#FAD6BB"/>
<path d="M313.3 45.649C313.161 45.649 313.023 45.5234 313.023 45.3977V19.3243C313.023 19.1987 313.161 19.073 313.3 19.073C313.438 19.073 313.576 19.1987 313.576 19.3243V45.3349C313.646 45.5234 313.507 45.649 313.3 45.649Z" fill="#FAD6BB"/>
<path d="M313.161 48.4134C312.124 48.4134 311.294 47.6595 311.294 46.7171C311.294 45.7747 312.124 45.0208 313.161 45.0208C314.199 45.0208 315.029 45.7747 315.029 46.7171C315.029 47.6595 314.199 48.4134 313.161 48.4134ZM313.161 45.649C312.47 45.649 311.916 46.1516 311.916 46.7799C311.916 47.4082 312.47 47.9108 313.161 47.9108C313.853 47.9108 314.407 47.4082 314.407 46.7799C314.407 46.1516 313.853 45.649 313.161 45.649Z" fill="#FAD6BB"/>
<path d="M254.156 97.8584C254.571 97.8584 254.986 98.1725 254.986 98.5495C254.986 98.9265 254.64 99.3034 254.225 99.3034C253.81 99.3034 253.395 98.9893 253.395 98.6123C253.395 98.2354 253.672 97.8584 254.156 97.8584Z" fill="#FAD6BB"/>
<path d="M256.577 49.7955C256.37 49.7955 256.093 49.7955 255.885 49.7326C254.571 49.4185 253.81 48.162 254.225 46.9682C254.502 46.0258 255.47 45.3347 256.577 45.3347C256.785 45.3347 257.061 45.3347 257.269 45.3975C258.583 45.7117 259.344 46.9682 258.929 48.162C258.652 49.1044 257.615 49.7955 256.577 49.7955ZM256.577 45.9002C255.747 45.9002 255.055 46.4028 254.779 47.0939C254.502 47.9735 255.055 48.9159 256.024 49.1672C256.992 49.4185 258.03 48.9159 258.306 48.0363C258.583 47.1567 258.03 46.2143 257.061 45.963C256.923 45.9002 256.715 45.9002 256.577 45.9002Z" fill="#FAD6BB"/>
<path d="M215.125 37.57C215.125 37.0122 214.669 36.5583 214.109 36.5583C213.558 36.5583 213.092 37.0047 213.09 37.5071L214.109 52.5947L215.125 37.57Z" fill="#D6AC6C"/>
<path d="M213.092 97.0505C213.092 97.6083 213.548 98.062 214.109 98.062C214.659 98.062 215.125 97.6157 215.127 97.1133L214.108 82.0256L213.092 97.0505Z" fill="#D6AC6C"/>
<path d="M244.047 66.2964L228.897 67.3104L244.01 68.3217C244.557 68.3076 245 67.8567 245 67.3104C245 66.7622 244.551 66.2984 244.047 66.2964Z" fill="#D6AC6C"/>
<path d="M184.206 68.3215L199.326 67.3097L184.233 66.2986C183.673 66.2986 183.217 66.7524 183.217 67.3102C183.217 67.8565 183.66 68.3075 184.206 68.3215Z" fill="#D6AC6C"/>
<path d="M202.279 55.5222L194.746 46.9408C194.601 46.7961 194.407 46.7166 194.202 46.7166C193.996 46.7166 193.803 46.7961 193.658 46.9404C193.513 47.0855 193.432 47.2778 193.432 47.4823C193.432 47.6811 193.507 47.8743 193.612 47.981L202.279 55.5222Z" fill="#D6AC6C"/>
<path d="M234.553 47.2465C234.551 47.0422 234.468 46.8509 234.321 46.7077C234.177 46.5672 233.986 46.4897 233.784 46.4897C233.581 46.4897 233.384 46.5661 233.276 46.6739L225.801 55.3886L234.334 47.7909C234.477 47.6446 234.555 47.4511 234.553 47.2465Z" fill="#D6AC6C"/>
<path d="M226.207 78.8008L233.937 87.2072C234.081 87.3439 234.27 87.4192 234.468 87.4192C234.681 87.4192 234.878 87.3349 235.025 87.1825C235.313 86.882 235.314 86.3973 235.047 86.1413L226.207 78.8008Z" fill="#D6AC6C"/>
<path d="M194.378 88.35C194.521 88.4829 194.707 88.556 194.902 88.556C195.112 88.556 195.313 88.4751 195.423 88.3598L202.694 79.4761L194.34 87.2675C194.051 87.5763 194.068 88.0621 194.378 88.35Z" fill="#D6AC6C"/>
<path d="M207.879 52.5484C207.821 52.4135 207.688 52.3262 207.54 52.3262C207.49 52.3262 207.441 52.3365 207.394 52.3565C207.207 52.4365 207.121 52.653 207.185 52.8049L209.707 57.6997L207.879 52.5484Z" fill="#D6AC6C"/>
<path d="M205.903 34.3194C205.854 34.1655 205.713 34.062 205.551 34.062C205.514 34.062 205.477 34.0678 205.441 34.079C205.347 34.1083 205.27 34.1726 205.224 34.2597C205.178 34.3464 205.169 34.4458 205.186 34.5039L207.191 39.6299L205.903 34.3194Z" fill="#D6AC6C"/>
<path d="M230.557 91.4746L232.99 96.3713C233.057 96.4857 233.176 96.5542 233.31 96.5542C233.375 96.5542 233.437 96.5375 233.494 96.5046C233.579 96.455 233.64 96.3757 233.665 96.2807C233.691 96.1859 233.677 96.0871 233.648 96.034L230.557 91.4746Z" fill="#D6AC6C"/>
<path d="M244.028 49.944C243.964 49.823 243.838 49.748 243.7 49.748C243.641 49.748 243.583 49.7623 243.562 49.7719L238.857 52.6559L243.873 50.4404C244.053 50.3459 244.122 50.1234 244.028 49.944Z" fill="#D6AC6C"/>
<path d="M181.042 87.1632C181.106 87.2847 181.232 87.3603 181.37 87.3603C181.429 87.3603 181.486 87.346 181.507 87.3364L186.217 84.4612L181.198 86.6677C181.018 86.7616 180.948 86.9841 181.042 87.1632Z" fill="#D6AC6C"/>
<path d="M221.38 52.6187C221.327 52.5916 221.271 52.5779 221.213 52.5779C221.073 52.5779 220.947 52.6545 220.9 52.7438L218.716 57.7976L221.541 53.1128C221.586 53.0255 221.594 52.9261 221.563 52.8327C221.533 52.7394 221.468 52.6633 221.38 52.6187Z" fill="#D6AC6C"/>
<path d="M229.685 62.462C229.731 62.375 229.74 62.2756 229.711 62.182C229.662 62.0276 229.521 61.9238 229.359 61.9238C229.325 61.9238 229.291 61.9285 229.285 61.9285C229.285 61.9285 224.132 63.9138 224.132 63.9138L229.468 62.6419C229.563 62.6126 229.64 62.5488 229.685 62.462Z" fill="#D6AC6C"/>
<path d="M228.386 74.5695C228.438 74.5955 228.494 74.6089 228.551 74.6089C228.692 74.6089 228.818 74.5312 228.881 74.4066C228.973 74.2256 228.899 74.0044 228.752 73.9292L223.661 71.7922L228.386 74.5695Z" fill="#D6AC6C"/>
<path d="M217.94 77.0842L219.462 82.3343C219.515 82.4791 219.655 82.5763 219.809 82.5763C219.852 82.5763 219.894 82.5689 219.935 82.5541C220.126 82.4849 220.225 82.2738 220.17 82.1186L217.94 77.0842Z" fill="#D6AC6C"/>
<path d="M207.908 82.4079C207.954 82.4273 208.002 82.4374 208.051 82.4374C208.2 82.4374 208.333 82.3496 208.378 82.2483L210.192 77.0535L207.712 81.9263C207.633 82.1128 207.72 82.3288 207.908 82.4079Z" fill="#D6AC6C"/>
<path d="M199.008 73.4087C198.97 73.4993 198.97 73.599 199.007 73.6901C199.064 73.8283 199.198 73.9179 199.348 73.9179C199.396 73.9179 199.443 73.9086 199.454 73.9056L204.414 71.4836L199.209 73.2108C199.117 73.248 199.046 73.3184 199.008 73.4087Z" fill="#D6AC6C"/>
<path d="M199.471 60.3499C199.328 60.3499 199.197 60.4331 199.136 60.5618C199.095 60.6507 199.09 60.7503 199.124 60.8426C199.157 60.9349 199.225 61.0085 199.279 61.0354L204.43 63.0269L199.627 60.3849C199.577 60.3616 199.525 60.3499 199.471 60.3499Z" fill="#D6AC6C"/>
<path d="M185.16 77.4649C185.16 77.6552 185.315 77.8101 185.507 77.8101C185.698 77.8101 185.854 77.6552 185.854 77.4649C185.854 77.2744 185.698 77.1194 185.507 77.1194C185.315 77.1194 185.16 77.2744 185.16 77.4649Z" fill="#D6AC6C"/>
<path d="M192.067 58.8507C192.709 58.8507 193.23 58.3313 193.23 57.6929C193.23 57.0543 192.709 56.5349 192.067 56.5349C191.426 56.5349 190.904 57.0543 190.904 57.6929C190.904 58.3313 191.426 58.8507 192.067 58.8507Z" fill="#D6AC6C"/>
<path d="M201.476 45.1555C201.557 45.1555 201.623 45.0897 201.623 45.0088C201.623 44.9279 201.557 44.8621 201.476 44.8621C201.395 44.8621 201.329 44.9279 201.329 45.0088C201.329 45.0897 201.395 45.1555 201.476 45.1555Z" fill="#D6AC6C"/>
<path d="M223.19 47.1145C223.513 47.1145 223.776 46.8528 223.776 46.5309C223.776 46.2092 223.513 45.9475 223.19 45.9475C222.866 45.9475 222.603 46.2092 222.603 46.5309C222.603 46.8528 222.866 47.1145 223.19 47.1145Z" fill="#D6AC6C"/>
<path d="M238.407 60.8024C238.532 60.8024 238.635 60.7008 238.635 60.5763C238.635 60.4514 238.532 60.3499 238.407 60.3499C238.282 60.3499 238.18 60.4514 238.18 60.5763C238.18 60.7008 238.282 60.8024 238.407 60.8024Z" fill="#D6AC6C"/>
<path d="M234.474 78.6959C234.474 78.633 234.422 78.5818 234.359 78.5818C234.296 78.5818 234.244 78.633 234.244 78.6959C234.244 78.7589 234.296 78.8104 234.359 78.8104C234.422 78.8104 234.474 78.7589 234.474 78.6959Z" fill="#D6AC6C"/>
<path d="M224.32 91.0315C223.373 91.0315 222.603 91.798 222.603 92.7401C222.603 93.6821 223.373 94.4488 224.32 94.4488C225.266 94.4488 226.036 93.6821 226.036 92.7401C226.036 91.798 225.266 91.0315 224.32 91.0315Z" fill="#D6AC6C"/>
<path d="M206.33 90.4331C206.274 90.4331 206.228 90.4789 206.228 90.535C206.228 90.5911 206.274 90.6367 206.33 90.6367C206.386 90.6367 206.432 90.5911 206.432 90.535C206.432 90.4789 206.386 90.4331 206.33 90.4331Z" fill="#D6AC6C"/>
<path d="M240.669 74.1946C240.378 74.1946 240.141 74.4305 240.141 74.7202C240.141 75.0102 240.378 75.2462 240.669 75.2462C240.96 75.2462 241.197 75.0102 241.197 74.7202C241.197 74.4305 240.96 74.1946 240.669 74.1946Z" fill="#D6AC6C"/>
<defs>
<clipPath id="clip0_1_4548">
<rect width="188" height="122" fill="white" transform="translate(0 1)"/>
</clipPath>
</defs>
</svg>
