<svg width="1187" height="195" viewBox="0 0 1187 195" fill="none" xmlns="http://www.w3.org/2000/svg">
<path d="M159.639 67.5375C211.739 67.5375 242.739 49.3375 259.639 34.1375C277.939 17.5375 283.939 0.8375 284.039 0.6375C284.139 0.4375 284.039 0.1375 283.739 0.0375C283.539 -0.0625 283.239 0.0375 283.139 0.3375C283.039 0.5375 277.039 17.1375 258.939 33.4375C242.239 48.5375 211.339 66.6375 159.639 66.6375C93.8392 66.6375 54.1392 48.6375 32.4392 33.5375C8.93921 17.1375 0.839203 0.5375 0.839203 0.4375C0.739197 0.2375 0.43924 0.1375 0.239227 0.2375C0.0392151 0.3375 -0.060791 0.6375 0.0392151 0.8375C0.139221 1.0375 8.2392 17.7375 31.9392 34.2375C53.6392 49.3375 93.5392 67.5375 159.639 67.5375Z" fill="#D7AD6C"/>
<path d="M381.338 2.0375C381.538 1.9375 381.838 2.0375 381.938 2.3375C382.038 2.4375 387.238 15.8375 402.738 29.1375C417.038 41.4375 443.238 56.0375 486.638 56.0375C496.638 56.0375 505.438 54.7375 513.138 52.7375C513.138 53.0375 513.238 53.3375 513.338 53.6375C505.538 55.7375 496.738 56.9375 486.638 56.9375C442.938 56.9375 416.538 42.2375 402.138 29.8375C386.438 16.4375 381.138 2.8375 381.038 2.6375C380.938 2.4375 381.038 2.1375 381.338 2.0375Z" fill="#D7AD6C"/>
<path d="M266.439 67.5392C325.539 67.5392 360.839 49.4392 380.039 34.1392C400.839 17.6392 407.739 0.83923 407.839 0.63923C407.939 0.43923 407.739 0.139231 407.539 0.0392305C407.339 -0.0607695 407.039 0.0392303 406.939 0.23923C406.839 0.43923 400.039 17.0392 379.439 33.3392C360.339 48.5392 325.339 66.6392 266.439 66.6392C191.639 66.6392 146.539 48.6392 121.839 33.4392C95.1393 17.0392 85.9393 0.43923 85.8393 0.33923C85.7393 0.13923 85.4393 0.0392304 85.2393 0.13923C85.0393 0.23923 84.9393 0.53923 85.0393 0.73923C85.1393 0.93923 94.3393 17.6392 121.239 34.1392C146.039 49.3392 191.339 67.5392 266.439 67.5392Z" fill="#D7AD6C"/>
<path d="M327.339 88.1393C391.139 88.1393 429.139 64.3393 449.839 44.4393C472.239 22.8393 479.639 0.839294 479.739 0.639294C479.839 0.439294 479.639 0.139294 479.439 0.039294C479.239 -0.060706 478.939 0.139294 478.839 0.339294C478.739 0.539294 471.439 22.3393 449.139 43.8393C428.639 63.6393 390.839 87.2393 327.339 87.2393C246.639 87.2393 197.939 63.5393 171.339 43.7393C142.539 22.2393 132.639 0.539294 132.639 0.339294C132.539 0.139294 132.239 0.0392938 132.039 0.139294C131.839 0.239294 131.739 0.539294 131.839 0.739294C131.939 0.939294 141.839 22.9393 170.839 44.5393C197.539 64.4393 246.439 88.1393 327.339 88.1393Z" fill="#D7AD6C"/>
<path d="M314.939 75.3393C314.939 74.7393 314.439 74.2393 313.839 74.2393C313.239 74.2393 312.739 74.7393 312.739 75.3393C312.739 75.9393 313.239 76.4393 313.839 76.4393C314.339 76.4393 314.939 75.9393 314.939 75.3393Z" fill="#FAD6BB"/>
<path d="M499.139 33.3391C499.939 33.3391 500.739 33.1391 501.439 32.7391C502.639 32.1391 503.539 31.0391 503.939 29.8391C504.339 28.5391 504.239 27.2391 503.639 26.0391C502.739 24.3391 501.039 23.3391 499.139 23.3391C498.339 23.3391 497.539 23.5391 496.839 23.9391C494.339 25.2391 493.439 28.2391 494.639 30.7391C495.539 32.3391 497.239 33.3391 499.139 33.3391ZM499.139 24.2391C500.739 24.2391 502.139 25.1391 502.839 26.4391C503.339 27.4391 503.439 28.5391 503.139 29.6391C502.839 30.7391 502.039 31.5391 501.139 32.0391C500.539 32.3391 499.939 32.5391 499.239 32.5391C497.639 32.5391 496.239 31.6391 495.539 30.3391C494.539 28.3391 495.339 25.8391 497.339 24.7391C497.839 24.3391 498.439 24.2391 499.139 24.2391Z" fill="#FAD6BB"/>
<path d="M553.139 25.4391C555.139 25.5391 556.839 23.9391 556.939 21.8391C557.039 19.8391 555.439 18.1391 553.339 18.0391C551.339 17.9391 549.639 19.5391 549.539 21.6391C549.539 23.6391 551.139 25.3391 553.139 25.4391Z" fill="#FAD6BB"/>
<path d="M546.639 168.439C546.739 168.439 546.939 168.439 547.039 168.439C549.839 168.239 551.839 165.739 551.639 163.039C551.439 160.339 548.939 158.239 546.239 158.439C544.939 158.539 543.639 159.139 542.839 160.239C541.939 161.239 541.539 162.539 541.639 163.939C541.839 166.439 544.039 168.439 546.639 168.439ZM546.739 159.239C548.839 159.239 550.639 160.939 550.839 163.039C551.039 165.339 549.339 167.339 547.039 167.539C544.739 167.739 542.739 166.039 542.539 163.739C542.439 162.639 542.839 161.539 543.539 160.739C544.239 159.939 545.239 159.339 546.339 159.339C546.439 159.239 546.539 159.239 546.739 159.239Z" fill="#FAD6BB"/>
<path d="M423.739 80.5392C424.039 80.5392 424.339 80.4392 424.739 80.3392C425.339 80.0392 425.839 79.6392 426.039 79.0392C426.339 78.4392 426.339 77.7392 426.039 77.1392C425.639 76.2392 424.739 75.6392 423.739 75.6392C423.439 75.6392 423.139 75.7392 422.739 75.8392C421.439 76.3392 420.839 77.8392 421.439 79.0392C421.839 79.9392 422.739 80.5392 423.739 80.5392ZM423.739 76.4392C424.339 76.4392 424.939 76.8392 425.239 77.4392C425.439 77.8392 425.439 78.2392 425.239 78.6392C425.039 79.0392 424.739 79.3392 424.339 79.5392C423.539 79.8392 422.639 79.4392 422.239 78.6392C421.939 77.8392 422.239 76.9392 423.139 76.5392C423.339 76.4392 423.539 76.4392 423.739 76.4392Z" fill="#FAD6BB"/>
<path d="M460.039 134.639C460.339 134.639 460.639 134.539 461.039 134.439C461.639 134.139 462.139 133.739 462.339 133.139C462.639 132.539 462.639 131.839 462.339 131.239C461.939 130.339 461.039 129.739 460.039 129.739C459.739 129.739 459.439 129.839 459.039 129.939C458.439 130.239 457.939 130.639 457.739 131.239C457.439 131.839 457.439 132.539 457.739 133.139C458.139 134.039 459.039 134.639 460.039 134.639ZM460.039 130.639C460.639 130.639 461.239 131.039 461.539 131.639C461.739 132.039 461.739 132.439 461.539 132.839C461.339 133.239 461.039 133.539 460.639 133.739C459.839 134.039 458.939 133.639 458.539 132.839C458.339 132.439 458.339 132.039 458.539 131.639C458.739 131.239 459.039 130.939 459.439 130.739C459.639 130.639 459.839 130.639 460.039 130.639Z" fill="#FAD6BB"/>
<path d="M431.939 146.539C432.139 146.539 432.339 146.539 432.539 146.439C432.939 146.239 433.239 145.939 433.439 145.539C433.639 145.139 433.639 144.739 433.439 144.339C433.139 143.539 432.139 143.139 431.339 143.439C430.539 143.739 430.139 144.739 430.439 145.539C430.739 146.239 431.339 146.539 431.939 146.539ZM431.939 144.339C432.239 144.339 432.439 144.539 432.539 144.739C432.639 144.939 432.639 145.139 432.539 145.239C432.439 145.439 432.339 145.539 432.139 145.639C431.739 145.739 431.339 145.639 431.239 145.239C431.139 144.839 431.239 144.439 431.639 144.339C431.739 144.339 431.839 144.339 431.939 144.339Z" fill="#FAD6BB"/>
<path d="M484.439 99.8393C486.339 99.0393 487.239 96.9393 486.439 95.0393C485.639 93.1393 483.539 92.2393 481.639 93.0393C479.739 93.8393 478.839 95.9393 479.639 97.8393C480.439 99.7393 482.639 100.639 484.439 99.8393Z" fill="#FAD6BB"/>
<path d="M416.039 177.239C416.739 177.239 417.339 177.039 417.939 176.739C419.939 175.739 420.739 173.239 419.739 171.139C419.039 169.739 417.639 168.939 416.039 168.939C415.339 168.939 414.739 169.139 414.139 169.439C413.139 169.939 412.439 170.839 412.139 171.839C411.839 172.839 411.939 174.039 412.439 175.039C413.039 176.439 414.439 177.239 416.039 177.239ZM415.939 169.939C417.139 169.939 418.239 170.639 418.839 171.739C419.639 173.339 419.039 175.239 417.439 176.139C416.939 176.339 416.439 176.539 415.939 176.539C414.739 176.539 413.639 175.839 413.039 174.739C412.639 173.939 412.539 173.139 412.839 172.239C413.139 171.439 413.639 170.739 414.439 170.339C414.939 170.039 415.439 169.939 415.939 169.939Z" fill="#FAD6BB"/>
<path d="M365.539 89.1392C364.939 89.1392 364.339 89.6392 364.339 90.2392C364.339 90.8392 364.839 91.4392 365.439 91.4392C366.039 91.4392 366.639 90.9392 366.639 90.3392C366.739 89.7392 366.239 89.1392 365.539 89.1392Z" fill="#FAD6BB"/>
<path d="M182.439 83.6392C180.439 83.5392 178.739 85.1392 178.639 87.2392C178.539 89.2392 180.139 90.9392 182.239 91.0392C184.239 91.1392 185.939 89.5392 186.039 87.4392C186.139 85.4392 184.539 83.7392 182.439 83.6392Z" fill="#FAD6BB"/>
<path d="M391.839 133.439C391.339 131.839 389.639 130.839 388.039 131.339C386.439 131.839 385.439 133.539 385.939 135.239C386.439 136.839 388.139 137.839 389.839 137.339C391.339 136.839 392.339 135.039 391.839 133.439Z" fill="#FAD6BB"/>
<path d="M137.539 117.939C137.739 117.939 137.839 117.939 138.039 117.839C138.539 117.739 138.839 117.439 139.139 116.939C139.339 116.539 139.439 116.039 139.239 115.539C138.939 114.639 137.939 114.039 137.039 114.339C136.539 114.439 136.239 114.739 135.939 115.239C135.739 115.639 135.639 116.139 135.739 116.639C136.039 117.339 136.739 117.939 137.539 117.939ZM137.539 115.239C137.939 115.239 138.239 115.539 138.439 115.839C138.539 116.039 138.439 116.339 138.339 116.539C138.239 116.739 138.039 116.939 137.839 116.939C137.339 117.039 136.839 116.839 136.739 116.339C136.639 116.139 136.739 115.839 136.839 115.639C136.939 115.439 137.139 115.239 137.339 115.239C137.439 115.239 137.539 115.239 137.539 115.239Z" fill="#FAD6BB"/>
<path d="M233.539 22.2392C233.639 22.2392 233.639 22.2392 233.739 22.2392C234.439 22.1392 235.039 21.8392 235.439 21.3392C235.839 20.8392 236.039 20.2392 236.039 19.5392C235.939 18.2392 234.739 17.1392 233.339 17.2392C231.939 17.3392 230.939 18.5392 231.039 19.9392C231.239 21.2392 232.239 22.2392 233.539 22.2392ZM233.539 18.2392C234.339 18.2392 235.039 18.8392 235.139 19.7392C235.139 20.1392 235.039 20.5392 234.739 20.9392C234.439 21.2392 234.039 21.4392 233.639 21.5392C232.739 21.6392 232.039 20.9392 231.939 20.1392C231.839 19.2392 232.539 18.5392 233.339 18.4392C233.439 18.2392 233.539 18.2392 233.539 18.2392Z" fill="#FAD6BB"/>
<path d="M207.439 26.3392C207.339 25.2392 206.339 24.3392 205.239 24.4392C204.139 24.5392 203.239 25.5392 203.339 26.6392C203.439 27.7392 204.439 28.6392 205.539 28.5392C206.739 28.4392 207.539 27.4392 207.439 26.3392Z" fill="#FAD6BB"/>
<path d="M273.739 56.8392H273.839C274.739 56.7392 275.339 56.0392 275.339 55.1392C275.239 54.2392 274.439 53.6392 273.639 53.6392C272.739 53.7392 272.139 54.4392 272.139 55.3392C272.239 56.2392 272.939 56.8392 273.739 56.8392ZM273.739 54.5392C274.139 54.5392 274.439 54.8392 274.439 55.1392C274.439 55.5392 274.139 55.8392 273.839 55.8392H273.739C273.339 55.8392 273.039 55.5392 273.039 55.2392C273.039 54.9392 273.339 54.6392 273.739 54.5392Z" fill="#FAD6BB"/>
<path d="M292.839 29.2392C292.639 27.2392 290.939 25.7392 288.839 25.8392C286.839 26.0392 285.339 27.7392 285.439 29.8392C285.639 31.8392 287.339 33.3392 289.439 33.2392C291.539 33.0392 293.039 31.2392 292.839 29.2392Z" fill="#FAD6BB"/>
<path d="M202.639 138.639C202.739 138.639 202.939 138.639 203.039 138.639C205.839 138.439 207.839 135.939 207.639 133.239C207.439 130.539 205.039 128.439 202.239 128.639C200.939 128.739 199.639 129.339 198.839 130.439C197.939 131.439 197.539 132.739 197.639 134.139C197.839 136.539 200.039 138.639 202.639 138.639ZM202.639 129.439C204.739 129.439 206.539 131.139 206.739 133.239C206.939 135.539 205.239 137.539 202.939 137.739C200.639 137.939 198.639 136.239 198.439 133.939C198.339 132.839 198.739 131.739 199.439 130.939C200.139 130.139 201.139 129.539 202.239 129.539C202.439 129.439 202.539 129.439 202.639 129.439Z" fill="#FAD6BB"/>
<path d="M111.839 47.5392C112.139 47.5392 112.439 47.4392 112.839 47.3392C114.139 46.8392 114.739 45.3392 114.139 44.1392C113.739 43.2392 112.839 42.6392 111.839 42.6392C111.539 42.6392 111.239 42.7392 110.839 42.8392C110.239 43.1392 109.739 43.5392 109.539 44.1392C109.239 44.7392 109.239 45.4392 109.539 46.0392C109.939 46.9392 110.839 47.5392 111.839 47.5392ZM111.839 43.5392C112.439 43.5392 113.039 43.9392 113.339 44.5392C113.639 45.3392 113.239 46.2392 112.439 46.6392C111.639 46.9392 110.739 46.5392 110.339 45.7392C110.139 45.3392 110.139 44.9392 110.339 44.5392C110.539 44.1392 110.839 43.8392 111.239 43.6392C111.439 43.5392 111.639 43.5392 111.839 43.5392Z" fill="#FAD6BB"/>
<path d="M159.939 27.7391C160.339 27.7391 160.739 27.6391 161.039 27.4391C162.239 26.8391 162.739 25.3391 162.139 24.1391C161.739 23.3391 160.839 22.8391 159.939 22.8391C159.539 22.8391 159.139 22.9391 158.839 23.1391C157.639 23.7391 157.139 25.2391 157.739 26.4391C158.239 27.2391 159.039 27.7391 159.939 27.7391ZM159.939 23.7391C160.539 23.7391 161.039 24.0391 161.339 24.6391C161.739 25.4391 161.439 26.3391 160.639 26.7391C159.839 27.1391 158.939 26.8391 158.539 26.0391C158.139 25.2391 158.439 24.3391 159.239 23.9391C159.539 23.7391 159.739 23.7391 159.939 23.7391Z" fill="#FAD6BB"/>
<path d="M225.639 104.739C225.939 104.739 226.139 104.639 226.339 104.539C227.139 104.139 227.439 103.139 227.039 102.439C226.639 101.639 225.639 101.339 224.939 101.739C224.139 102.139 223.839 103.139 224.239 103.839C224.439 104.439 225.039 104.739 225.639 104.739ZM225.639 102.439C225.939 102.439 226.139 102.539 226.239 102.839C226.439 103.139 226.239 103.639 225.939 103.739C225.639 103.939 225.139 103.739 225.039 103.439C224.839 103.139 225.039 102.639 225.339 102.539C225.439 102.439 225.539 102.439 225.639 102.439Z" fill="#FAD6BB"/>
<path d="M513.039 194.239C524.439 194.239 533.739 184.939 533.739 173.539C533.739 162.139 524.439 152.839 513.039 152.839C501.639 152.839 492.339 162.139 492.339 173.539C492.339 185.039 501.639 194.239 513.039 194.239ZM513.039 153.839C523.939 153.839 532.839 162.739 532.839 173.639C532.839 184.539 523.939 193.439 513.039 193.439C502.139 193.439 493.239 184.539 493.239 173.639C493.239 162.739 502.139 153.839 513.039 153.839Z" fill="#FAD6BB"/>
<path d="M513.239 185.839C513.439 185.839 513.639 185.639 513.639 185.439V159.639C513.639 159.439 513.439 159.239 513.239 159.239C513.039 159.239 512.839 159.439 512.839 159.639V185.439C512.839 185.639 513.039 185.839 513.239 185.839Z" fill="#FAD6BB"/>
<path d="M513.239 163.739C513.339 163.739 513.439 163.739 513.539 163.639L516.139 161.039C516.339 160.839 516.339 160.539 516.139 160.439C515.939 160.239 515.639 160.239 515.539 160.439L513.239 162.739L510.839 160.339C510.639 160.139 510.339 160.139 510.239 160.339C510.039 160.539 510.039 160.839 510.239 160.939L513.039 163.739C513.039 163.739 513.139 163.739 513.239 163.739Z" fill="#FAD6BB"/>
<path d="M513.239 166.639C513.339 166.639 513.439 166.639 513.539 166.539L516.139 163.939C516.339 163.739 516.339 163.439 516.139 163.339C515.939 163.139 515.639 163.139 515.539 163.339L513.239 165.639L510.839 163.239C510.639 163.039 510.339 163.039 510.239 163.239C510.139 163.439 510.039 163.739 510.239 163.839L513.039 166.639C513.039 166.539 513.139 166.639 513.239 166.639Z" fill="#FAD6BB"/>
<path d="M516.039 185.039C516.139 185.039 516.239 185.039 516.339 184.939C516.539 184.739 516.539 184.439 516.339 184.339L513.539 181.539C513.339 181.339 513.039 181.339 512.939 181.539L510.339 184.139C510.139 184.339 510.139 184.639 510.339 184.739C510.539 184.839 510.839 184.939 510.939 184.739L513.239 182.439L515.739 184.839C515.839 185.039 515.939 185.039 516.039 185.039Z" fill="#FAD6BB"/>
<path d="M516.039 182.239C516.139 182.239 516.239 182.239 516.339 182.139C516.539 181.939 516.539 181.639 516.339 181.539L513.539 178.739C513.439 178.639 513.339 178.639 513.239 178.639C513.139 178.639 513.039 178.639 512.939 178.739L510.339 181.339C510.139 181.539 510.139 181.839 510.339 181.939C510.539 182.039 510.839 182.139 510.939 181.939L513.239 179.639L515.739 182.139C515.839 182.239 515.939 182.239 516.039 182.239Z" fill="#FAD6BB"/>
<path d="M502.339 179.839C502.439 179.839 502.539 179.839 502.539 179.739L524.439 166.139C524.639 166.039 524.739 165.739 524.539 165.539C524.439 165.339 524.139 165.239 523.939 165.439L502.039 179.039C501.839 179.139 501.739 179.439 501.939 179.639C502.039 179.739 502.239 179.839 502.339 179.839Z" fill="#FAD6BB"/>
<path d="M523.939 169.339C524.139 169.339 524.339 169.239 524.339 169.039C524.439 168.839 524.239 168.539 524.039 168.539L520.939 167.839L521.739 164.439C521.839 164.239 521.639 163.939 521.439 163.939C521.239 163.839 520.939 164.039 520.939 164.239L520.039 168.039C520.039 168.139 520.039 168.239 520.139 168.339C520.239 168.439 520.339 168.539 520.439 168.539L523.939 169.339Z" fill="#FAD6BB"/>
<path d="M521.539 170.839C521.739 170.839 521.939 170.739 521.939 170.539C522.039 170.339 521.839 170.039 521.639 170.039L518.539 169.339L519.339 165.939C519.439 165.739 519.239 165.439 519.039 165.439C518.839 165.339 518.539 165.539 518.539 165.739L517.639 169.539C517.539 169.739 517.739 170.039 517.939 170.039L521.439 170.839H521.539Z" fill="#FAD6BB"/>
<path d="M504.639 181.739C504.839 181.739 505.039 181.639 505.039 181.439L505.939 177.639C505.939 177.539 505.939 177.439 505.839 177.339C505.739 177.239 505.639 177.139 505.539 177.139L502.039 176.339C501.839 176.239 501.539 176.439 501.539 176.639C501.439 176.839 501.639 177.139 501.839 177.139L504.939 177.839L504.139 181.239C504.039 181.439 504.239 181.739 504.439 181.739C504.539 181.739 504.639 181.739 504.639 181.739Z" fill="#FAD6BB"/>
<path d="M507.039 180.239C507.239 180.239 507.439 180.139 507.439 179.939L508.339 176.139C508.439 175.939 508.239 175.639 508.039 175.639L504.539 174.839C504.339 174.739 504.039 174.939 504.039 175.139C503.939 175.339 504.139 175.639 504.339 175.639L507.439 176.339L506.639 179.739C506.539 179.939 506.739 180.239 506.939 180.239H507.039Z" fill="#FAD6BB"/>
<path d="M524.239 179.639C524.439 179.639 524.539 179.539 524.639 179.439C524.739 179.239 524.739 178.939 524.439 178.839L502.439 165.439C502.239 165.339 501.939 165.339 501.839 165.639C501.739 165.839 501.739 166.139 502.039 166.239L524.039 179.639C524.139 179.639 524.239 179.639 524.239 179.639Z" fill="#FAD6BB"/>
<path d="M502.339 169.439H502.439L506.239 168.539C506.339 168.539 506.439 168.439 506.539 168.339C506.639 168.239 506.639 168.139 506.639 168.039L505.739 164.539C505.639 164.339 505.439 164.139 505.239 164.239C505.039 164.339 504.839 164.539 504.939 164.739L505.739 167.839L502.339 168.639C502.139 168.739 501.939 168.939 502.039 169.139C501.939 169.339 502.139 169.439 502.339 169.439Z" fill="#FAD6BB"/>
<path d="M504.739 170.939H504.839L508.639 170.039C508.739 170.039 508.839 169.939 508.939 169.839C509.039 169.739 509.039 169.639 509.039 169.539L508.139 166.039C508.039 165.839 507.839 165.639 507.639 165.739C507.439 165.839 507.239 166.039 507.339 166.239L508.139 169.339L504.739 170.139C504.539 170.239 504.339 170.439 504.439 170.639C504.339 170.839 504.539 170.939 504.739 170.939Z" fill="#FAD6BB"/>
<path d="M521.339 180.739H521.439C521.639 180.639 521.839 180.439 521.739 180.239L520.939 177.139L524.339 176.339C524.539 176.239 524.739 176.039 524.639 175.839C524.539 175.639 524.339 175.439 524.139 175.539L520.339 176.439C520.139 176.539 519.939 176.739 520.039 176.939L520.939 180.439C520.939 180.539 521.139 180.739 521.339 180.739Z" fill="#FAD6BB"/>
<path d="M518.939 179.239H519.039C519.239 179.139 519.439 178.939 519.339 178.739L518.539 175.639L521.939 174.839C522.139 174.739 522.339 174.539 522.239 174.339C522.139 174.139 521.939 173.939 521.739 174.039L517.939 174.939C517.739 175.039 517.539 175.239 517.639 175.439L518.539 178.939C518.539 179.139 518.739 179.239 518.939 179.239Z" fill="#FAD6BB"/>
<path d="M510.339 153.839C510.539 153.839 510.739 153.639 510.739 153.439V149.839H515.239V153.439C515.239 153.639 515.439 153.839 515.639 153.839C515.839 153.839 516.039 153.639 516.039 153.439V149.439C516.039 149.239 515.839 149.039 515.639 149.039H510.239C510.039 149.039 509.839 149.239 509.839 149.439V153.439C509.939 153.639 510.139 153.839 510.339 153.839Z" fill="#FAD6BB"/>
<path d="M513.039 150.239C513.239 150.239 513.439 150.039 513.439 149.839V53.5392C513.439 53.3392 513.239 53.1392 513.039 53.1392C512.839 53.1392 512.639 53.3392 512.639 53.5392V149.739C512.639 150.039 512.839 150.239 513.039 150.239Z" fill="#FAD6BB"/>
<path d="M163.239 179.039C174.639 179.039 183.939 169.739 183.939 158.339C183.939 146.939 174.639 137.639 163.239 137.639C151.839 137.639 142.539 146.939 142.539 158.339C142.539 169.739 151.839 179.039 163.239 179.039ZM163.239 138.539C174.139 138.539 183.039 147.439 183.039 158.339C183.039 169.239 174.139 178.139 163.239 178.139C152.339 178.139 143.439 169.239 143.439 158.339C143.439 147.439 152.339 138.539 163.239 138.539Z" fill="#FAD6BB"/>
<path d="M163.439 170.539C163.639 170.539 163.839 170.339 163.839 170.139V144.339C163.839 144.139 163.639 143.939 163.439 143.939C163.239 143.939 163.039 144.139 163.039 144.339V170.139C163.039 170.339 163.239 170.539 163.439 170.539Z" fill="#FAD6BB"/>
<path d="M163.439 148.539C163.539 148.539 163.639 148.539 163.739 148.439L166.339 145.839C166.539 145.639 166.539 145.339 166.339 145.239C166.139 145.039 165.839 145.039 165.739 145.239L163.439 147.539L161.039 145.139C160.839 144.939 160.539 144.939 160.439 145.139C160.239 145.339 160.239 145.639 160.439 145.739L163.239 148.539C163.239 148.439 163.339 148.539 163.439 148.539Z" fill="#FAD6BB"/>
<path d="M163.439 151.339C163.539 151.339 163.639 151.339 163.739 151.239L166.339 148.639C166.539 148.439 166.539 148.139 166.339 148.039C166.139 147.839 165.839 147.839 165.739 148.039L163.439 150.339L161.039 147.939C160.839 147.739 160.539 147.739 160.439 147.939C160.339 148.139 160.239 148.439 160.439 148.539L163.239 151.339C163.239 151.339 163.339 151.339 163.439 151.339Z" fill="#FAD6BB"/>
<path d="M166.339 169.839C166.439 169.839 166.539 169.839 166.639 169.739C166.839 169.539 166.839 169.239 166.639 169.139L163.839 166.339C163.639 166.139 163.339 166.139 163.239 166.339L160.639 168.939C160.439 169.139 160.439 169.439 160.639 169.539C160.839 169.739 161.139 169.739 161.239 169.539L163.539 167.239L166.039 169.639C166.039 169.739 166.139 169.839 166.339 169.839Z" fill="#FAD6BB"/>
<path d="M166.339 166.939C166.439 166.939 166.539 166.939 166.639 166.839C166.839 166.639 166.839 166.339 166.639 166.239L163.839 163.439C163.739 163.339 163.639 163.339 163.539 163.339C163.439 163.339 163.339 163.339 163.239 163.439L160.639 166.039C160.439 166.239 160.439 166.539 160.639 166.639C160.839 166.839 161.139 166.839 161.239 166.639L163.539 164.339L166.039 166.839C166.039 166.939 166.139 166.939 166.339 166.939Z" fill="#FAD6BB"/>
<path d="M152.539 164.539C152.639 164.539 152.739 164.539 152.739 164.439L174.639 150.839C174.839 150.739 174.939 150.439 174.739 150.239C174.639 150.039 174.339 149.939 174.139 150.139L152.239 163.739C152.039 163.839 151.939 164.139 152.139 164.339C152.239 164.539 152.439 164.539 152.539 164.539Z" fill="#FAD6BB"/>
<path d="M174.139 154.039C174.339 154.039 174.539 153.939 174.539 153.739C174.639 153.539 174.439 153.239 174.239 153.239L171.139 152.539L171.939 149.139C172.039 148.939 171.839 148.639 171.639 148.639C171.439 148.539 171.139 148.739 171.139 148.939L170.239 152.739C170.239 152.839 170.239 152.939 170.339 153.039C170.439 153.139 170.539 153.239 170.639 153.239L174.139 154.039Z" fill="#FAD6BB"/>
<path d="M171.739 155.539C171.939 155.539 172.139 155.439 172.139 155.239C172.239 155.039 172.039 154.739 171.839 154.739L168.739 154.039L169.539 150.639C169.639 150.439 169.439 150.139 169.239 150.139C169.039 150.039 168.739 150.239 168.739 150.439L167.839 154.239C167.739 154.439 167.939 154.739 168.139 154.739L171.639 155.539H171.739Z" fill="#FAD6BB"/>
<path d="M154.839 166.439C155.039 166.439 155.239 166.339 155.239 166.139L156.139 162.339C156.139 162.239 156.139 162.139 156.039 162.039C155.939 161.939 155.839 161.839 155.739 161.839L152.239 161.039C152.039 160.939 151.739 161.139 151.739 161.339C151.639 161.539 151.839 161.839 152.039 161.839L155.139 162.539L154.339 165.939C154.239 166.139 154.439 166.439 154.639 166.439C154.839 166.439 154.839 166.439 154.839 166.439Z" fill="#FAD6BB"/>
<path d="M157.239 164.939C157.439 164.939 157.639 164.839 157.639 164.639L158.539 160.839C158.639 160.639 158.439 160.339 158.239 160.339L154.739 159.539C154.539 159.439 154.239 159.639 154.239 159.839C154.139 160.039 154.339 160.339 154.539 160.339L157.639 161.039L156.839 164.439C156.739 164.639 156.939 164.939 157.139 164.939C157.239 164.939 157.239 164.939 157.239 164.939Z" fill="#FAD6BB"/>
<path d="M174.539 164.439C174.739 164.439 174.839 164.339 174.939 164.239C175.039 164.039 175.039 163.739 174.739 163.639L152.739 150.239C152.539 150.139 152.239 150.139 152.139 150.439C152.039 150.639 152.039 150.939 152.339 151.039L174.339 164.439C174.339 164.339 174.439 164.439 174.539 164.439Z" fill="#FAD6BB"/>
<path d="M152.539 154.239H152.639L156.439 153.339C156.539 153.339 156.639 153.239 156.739 153.139C156.839 153.039 156.839 152.939 156.839 152.839L155.939 149.339C155.839 149.139 155.639 148.939 155.439 149.039C155.239 149.139 155.039 149.339 155.139 149.539L155.939 152.639L152.539 153.439C152.339 153.539 152.139 153.739 152.239 153.939C152.139 154.039 152.339 154.239 152.539 154.239Z" fill="#FAD6BB"/>
<path d="M154.939 155.639H155.039L158.839 154.739C158.939 154.739 159.039 154.639 159.139 154.539C159.239 154.439 159.239 154.339 159.239 154.239L158.339 150.739C158.239 150.539 158.039 150.339 157.839 150.439C157.639 150.539 157.439 150.739 157.539 150.939L158.339 154.039L154.939 154.839C154.739 154.939 154.539 155.139 154.639 155.339C154.539 155.539 154.739 155.639 154.939 155.639Z" fill="#FAD6BB"/>
<path d="M171.539 165.439H171.639C171.839 165.339 172.039 165.139 171.939 164.939L171.139 161.839L174.539 161.039C174.739 160.939 174.939 160.739 174.839 160.539C174.739 160.339 174.539 160.139 174.339 160.239L170.539 161.139C170.339 161.239 170.139 161.439 170.239 161.639L171.139 165.139C171.239 165.339 171.339 165.439 171.539 165.439Z" fill="#FAD6BB"/>
<path d="M169.139 163.939H169.239C169.439 163.839 169.639 163.639 169.539 163.439L168.739 160.339L172.139 159.539C172.339 159.439 172.539 159.239 172.439 159.039C172.339 158.839 172.139 158.639 171.939 158.739L168.139 159.639C167.939 159.739 167.739 159.939 167.839 160.139L168.739 163.639C168.739 163.839 168.939 163.939 169.139 163.939Z" fill="#FAD6BB"/>
<path d="M160.539 138.539C160.739 138.539 160.939 138.339 160.939 138.139V134.539H165.539V138.139C165.539 138.339 165.739 138.539 165.939 138.539C166.139 138.539 166.339 138.339 166.339 138.139V134.139C166.339 133.939 166.139 133.739 165.939 133.739H160.539C160.339 133.739 160.139 133.939 160.139 134.139V138.139C160.139 138.339 160.339 138.539 160.539 138.539Z" fill="#FAD6BB"/>
<path d="M163.4 135.1C163.6 135.1 163.8 134.9 163.8 134.7V38.4C163.8 38.2 163.6 38 163.4 38C163.2 38 163 38.2 163 38.4V134.6C163 134.9 163.2 135.1 163.4 135.1Z" fill="#FAD6BB"/>
<path d="M386.639 126.839C395.839 126.839 403.339 119.339 403.339 110.139C403.339 100.939 395.839 93.4392 386.639 93.4392C377.439 93.4392 369.939 100.939 369.939 110.139C369.939 119.339 377.439 126.839 386.639 126.839ZM386.639 94.3392C395.339 94.3392 402.439 101.439 402.439 110.139C402.439 118.839 395.339 125.939 386.639 125.939C377.939 125.939 370.839 118.839 370.839 110.139C370.839 101.439 377.939 94.3392 386.639 94.3392Z" fill="#FAD6BB"/>
<path d="M386.739 120.039C386.939 120.039 387.139 119.839 387.139 119.639V98.9391C387.139 98.7391 386.939 98.5391 386.739 98.5391C386.539 98.5391 386.339 98.7391 386.339 98.9391V119.639C386.339 119.839 386.539 120.039 386.739 120.039Z" fill="#FAD6BB"/>
<path d="M386.839 102.339C386.939 102.339 387.039 102.339 387.139 102.239L389.239 100.139C389.439 99.9391 389.439 99.6391 389.239 99.5391C389.039 99.3391 388.739 99.3391 388.639 99.5391L386.839 101.339L384.939 99.4391C384.739 99.2391 384.439 99.2391 384.339 99.4391C384.139 99.6391 384.139 99.9391 384.339 100.039L386.539 102.239C386.539 102.239 386.639 102.339 386.839 102.339Z" fill="#FAD6BB"/>
<path d="M386.839 104.639C386.939 104.639 387.039 104.639 387.139 104.539L389.239 102.439C389.439 102.239 389.439 101.939 389.239 101.839C389.039 101.639 388.739 101.639 388.639 101.839L386.839 103.639L384.939 101.739C384.739 101.539 384.439 101.539 384.339 101.739C384.239 101.939 384.139 102.239 384.339 102.339L386.539 104.539C386.539 104.539 386.639 104.639 386.839 104.639Z" fill="#FAD6BB"/>
<path d="M389.039 119.439C389.139 119.439 389.239 119.439 389.339 119.339C389.539 119.139 389.539 118.839 389.339 118.739L387.139 116.539C386.939 116.339 386.639 116.339 386.539 116.539L384.439 118.639C384.239 118.839 384.239 119.139 384.439 119.239C384.639 119.439 384.939 119.439 385.039 119.239L386.839 117.439L388.739 119.339C388.839 119.439 388.939 119.439 389.039 119.439Z" fill="#FAD6BB"/>
<path d="M389.039 117.139C389.139 117.139 389.239 117.139 389.339 117.039C389.539 116.839 389.539 116.539 389.339 116.439L387.139 114.239C387.039 114.139 386.939 114.139 386.839 114.139C386.739 114.139 386.639 114.139 386.539 114.239L384.439 116.339C384.239 116.539 384.239 116.839 384.439 116.939C384.639 117.139 384.939 117.139 385.039 116.939L386.839 115.139L388.739 117.039C388.839 117.139 388.939 117.139 389.039 117.139Z" fill="#FAD6BB"/>
<path d="M378.039 115.239C378.139 115.239 378.239 115.239 378.239 115.139L395.839 104.239C396.039 104.139 396.139 103.839 395.939 103.639C395.839 103.439 395.539 103.339 395.339 103.539L377.739 114.439C377.539 114.539 377.439 114.839 377.639 115.039C377.739 115.139 377.839 115.239 378.039 115.239Z" fill="#FAD6BB"/>
<path d="M395.339 106.839C395.539 106.839 395.739 106.739 395.739 106.539C395.839 106.339 395.639 106.039 395.439 106.039L393.039 105.439L393.639 102.839C393.739 102.639 393.539 102.339 393.339 102.339C393.139 102.239 392.839 102.439 392.839 102.639L392.139 105.739C392.039 105.939 392.239 106.239 392.439 106.239L395.339 106.939C395.339 106.839 395.339 106.839 395.339 106.839Z" fill="#FAD6BB"/>
<path d="M393.439 108.039C393.639 108.039 393.839 107.939 393.839 107.739C393.939 107.539 393.739 107.239 393.539 107.239L391.139 106.639L391.739 104.039C391.839 103.839 391.639 103.539 391.439 103.539C391.239 103.439 390.939 103.639 390.939 103.839L390.239 106.939C390.139 107.139 390.339 107.439 390.539 107.439L393.439 108.139C393.339 108.039 393.439 108.039 393.439 108.039Z" fill="#FAD6BB"/>
<path d="M379.839 116.739C380.039 116.739 380.239 116.639 380.239 116.439L380.939 113.339C380.939 113.239 380.939 113.139 380.839 113.039C380.739 112.939 380.639 112.839 380.539 112.839L377.639 112.139C377.439 112.039 377.139 112.239 377.139 112.439C377.039 112.639 377.239 112.939 377.439 112.939L379.839 113.539L379.239 116.139C379.139 116.339 379.339 116.639 379.539 116.639C379.839 116.739 379.839 116.739 379.839 116.739Z" fill="#FAD6BB"/>
<path d="M381.839 115.539C382.039 115.539 382.239 115.439 382.239 115.239L382.939 112.139C383.039 111.939 382.839 111.639 382.639 111.639L379.739 110.939C379.539 110.839 379.239 111.039 379.239 111.239C379.139 111.439 379.339 111.739 379.539 111.739L381.939 112.339L381.339 114.939C381.239 115.139 381.439 115.439 381.639 115.439C381.739 115.539 381.739 115.539 381.839 115.539Z" fill="#FAD6BB"/>
<path d="M395.639 115.139C395.839 115.139 395.939 115.039 396.039 114.939C396.139 114.739 396.139 114.439 395.839 114.339L378.139 103.539C377.939 103.439 377.639 103.439 377.539 103.739C377.439 103.939 377.439 104.239 377.739 104.339L395.439 115.139C395.539 115.039 395.539 115.139 395.639 115.139Z" fill="#FAD6BB"/>
<path d="M378.039 106.939H378.139L381.239 106.239C381.339 106.239 381.439 106.139 381.539 106.039C381.639 105.939 381.639 105.839 381.639 105.739L380.939 102.939C380.839 102.739 380.639 102.539 380.439 102.639C380.239 102.739 380.039 102.939 380.139 103.139L380.739 105.539L378.139 106.139C377.939 106.239 377.739 106.439 377.839 106.639C377.639 106.739 377.839 106.939 378.039 106.939Z" fill="#FAD6BB"/>
<path d="M379.939 108.039H380.039L383.139 107.339C383.339 107.239 383.539 107.039 383.439 106.839L382.739 104.039C382.639 103.839 382.439 103.639 382.239 103.739C382.039 103.839 381.839 104.039 381.939 104.239L382.539 106.639L379.939 107.239C379.739 107.339 379.539 107.539 379.639 107.739C379.539 107.939 379.739 108.039 379.939 108.039Z" fill="#FAD6BB"/>
<path d="M393.339 115.939H393.439C393.639 115.839 393.839 115.639 393.739 115.439L393.139 113.039L395.739 112.439C395.939 112.339 396.139 112.139 396.039 111.939C395.939 111.739 395.739 111.539 395.539 111.639L392.439 112.339C392.239 112.439 392.039 112.639 392.139 112.839L392.839 115.639C392.939 115.839 393.139 115.939 393.339 115.939Z" fill="#FAD6BB"/>
<path d="M391.339 114.739H391.439C391.639 114.639 391.839 114.439 391.739 114.239L391.139 111.839L393.739 111.239C393.939 111.139 394.139 110.939 394.039 110.739C393.939 110.539 393.739 110.339 393.539 110.439L390.439 111.139C390.339 111.139 390.239 111.239 390.139 111.339C390.039 111.439 390.039 111.539 390.039 111.639L390.739 114.439C390.939 114.639 391.139 114.739 391.339 114.739Z" fill="#FAD6BB"/>
<path d="M384.439 94.4391C384.639 94.4391 384.839 94.2391 384.839 94.0391V91.3391H388.539V94.0391C388.539 94.2391 388.739 94.4391 388.939 94.4391C389.139 94.4391 389.339 94.2391 389.339 94.0391V90.9391C389.339 90.7391 389.139 90.5391 388.939 90.5391H384.439C384.239 90.5391 384.039 90.7391 384.039 90.9391V94.0391C384.039 94.2391 384.239 94.4391 384.439 94.4391Z" fill="#FAD6BB"/>
<path d="M387.139 90.8392C387.339 90.8392 387.539 90.6392 387.539 90.4392V80.5392C387.539 80.3392 387.339 80.1392 387.139 80.1392C386.939 80.1392 386.739 80.3392 386.739 80.5392V90.4392C386.739 90.6392 386.939 90.8392 387.139 90.8392Z" fill="#FAD6BB"/>
<path d="M113.239 111.539C122.439 111.539 129.939 104.039 129.939 94.8394C129.939 85.6394 122.439 78.1394 113.239 78.1394C104.039 78.1394 96.5392 85.6394 96.5392 94.8394C96.5392 104.039 104.039 111.539 113.239 111.539ZM113.239 79.0394C121.939 79.0394 129.039 86.1394 129.039 94.8394C129.039 103.539 121.939 110.639 113.239 110.639C104.539 110.639 97.4392 103.539 97.4392 94.8394C97.4392 86.1394 104.539 79.0394 113.239 79.0394Z" fill="#FAD6BB"/>
<path d="M113.439 104.739C113.639 104.739 113.839 104.539 113.839 104.339V83.6393C113.839 83.4393 113.639 83.2393 113.439 83.2393C113.239 83.2393 113.039 83.4393 113.039 83.6393V104.339C112.939 104.539 113.139 104.739 113.439 104.739Z" fill="#FAD6BB"/>
<path d="M113.439 87.0393C113.539 87.0393 113.639 87.0393 113.739 86.9393L115.839 84.8393C116.039 84.6393 116.039 84.3393 115.839 84.2393C115.639 84.0393 115.339 84.0393 115.239 84.2393L113.439 86.0393L111.539 84.1393C111.339 83.9393 111.039 83.9393 110.939 84.1393C110.739 84.3393 110.739 84.6393 110.939 84.7393L113.139 86.9393C113.239 86.9393 113.339 87.0393 113.439 87.0393Z" fill="#FAD6BB"/>
<path d="M113.439 89.3393C113.539 89.3393 113.639 89.3393 113.739 89.2393L115.839 87.1393C116.039 86.9393 116.039 86.6393 115.839 86.5393C115.639 86.3393 115.339 86.3393 115.239 86.5393L113.439 88.3393L111.539 86.4393C111.339 86.2393 111.039 86.2393 110.939 86.4393C110.739 86.6393 110.739 86.9393 110.939 87.0393L113.139 89.2393C113.239 89.2393 113.339 89.3393 113.439 89.3393Z" fill="#FAD6BB"/>
<path d="M115.739 104.139C115.839 104.139 115.939 104.139 116.039 104.039C116.239 103.839 116.239 103.539 116.039 103.439L113.839 101.239C113.639 101.039 113.339 101.039 113.239 101.239L111.139 103.339C110.939 103.539 110.939 103.839 111.139 103.939C111.339 104.139 111.639 104.139 111.739 103.939L113.539 102.139L115.439 104.039C115.439 104.139 115.639 104.139 115.739 104.139Z" fill="#FAD6BB"/>
<path d="M115.739 101.839C115.839 101.839 115.939 101.839 116.039 101.739C116.239 101.539 116.239 101.239 116.039 101.139L113.839 98.9394C113.739 98.8394 113.639 98.8394 113.539 98.8394C113.439 98.8394 113.339 98.8394 113.239 98.9394L111.139 101.039C110.939 101.239 110.939 101.539 111.139 101.639C111.339 101.839 111.639 101.839 111.739 101.639L113.539 99.8394L115.439 101.739C115.439 101.839 115.639 101.839 115.739 101.839Z" fill="#FAD6BB"/>
<path d="M104.639 99.9394C104.739 99.9394 104.839 99.9394 104.839 99.8394L122.539 88.9394C122.739 88.8394 122.839 88.5394 122.639 88.3394C122.539 88.1394 122.239 88.0394 122.039 88.2394L104.439 99.1394C104.239 99.2394 104.139 99.5394 104.339 99.7394C104.339 99.8394 104.539 99.9394 104.639 99.9394Z" fill="#FAD6BB"/>
<path d="M122.039 91.5393C122.239 91.5393 122.439 91.4393 122.439 91.2393C122.539 91.0393 122.339 90.7393 122.139 90.7393L119.739 90.1393L120.339 87.5393C120.439 87.3393 120.239 87.0393 120.039 87.0393C119.839 86.9393 119.539 87.1393 119.539 87.3393L118.839 90.4393C118.739 90.6393 118.939 90.9393 119.139 90.9393L122.039 91.6393C121.939 91.5393 122.039 91.5393 122.039 91.5393Z" fill="#FAD6BB"/>
<path d="M120.039 92.7392C120.239 92.7392 120.439 92.6392 120.439 92.4392C120.539 92.2392 120.339 91.9392 120.139 91.9392L117.739 91.3392L118.339 88.7392C118.439 88.5392 118.239 88.2392 118.039 88.2392C117.839 88.1392 117.539 88.3392 117.539 88.5392L116.839 91.6392C116.739 91.8392 116.939 92.1392 117.139 92.1392L120.039 92.8392C120.039 92.7392 120.039 92.7392 120.039 92.7392Z" fill="#FAD6BB"/>
<path d="M106.539 101.439C106.739 101.439 106.939 101.339 106.939 101.139L107.639 98.0393C107.639 97.9393 107.639 97.8393 107.539 97.7393C107.439 97.6393 107.339 97.5393 107.239 97.5393L104.339 96.8393C104.139 96.7393 103.839 96.9393 103.839 97.1393C103.739 97.3393 103.939 97.6393 104.139 97.6393L106.539 98.2393L105.939 100.839C105.839 101.039 106.039 101.339 106.239 101.339C106.439 101.439 106.439 101.439 106.539 101.439Z" fill="#FAD6BB"/>
<path d="M108.439 100.239C108.639 100.239 108.839 100.139 108.839 99.9394L109.539 96.8394C109.639 96.6394 109.439 96.3394 109.239 96.3394L106.339 95.6394C106.139 95.5394 105.839 95.7394 105.839 95.9394C105.739 96.1394 105.939 96.4394 106.139 96.4394L108.539 97.0394L107.939 99.6394C107.839 99.8394 108.039 100.139 108.239 100.139C108.339 100.239 108.439 100.239 108.439 100.239Z" fill="#FAD6BB"/>
<path d="M122.339 99.8392C122.539 99.8392 122.639 99.7393 122.739 99.6393C122.839 99.4393 122.839 99.1393 122.539 99.0393L104.839 88.2392C104.639 88.1392 104.339 88.1393 104.239 88.4393C104.139 88.6393 104.139 88.9393 104.439 89.0393L122.139 99.8392C122.139 99.8392 122.239 99.8392 122.339 99.8392Z" fill="#FAD6BB"/>
<path d="M104.639 91.6393H104.739L107.839 90.9393C107.939 90.9393 108.039 90.8393 108.139 90.7393C108.239 90.6393 108.239 90.5393 108.239 90.4393L107.539 87.6393C107.439 87.4393 107.239 87.2393 107.039 87.3393C106.839 87.4393 106.639 87.6393 106.739 87.8393L107.339 90.2393L104.739 90.8393C104.539 90.9393 104.339 91.1393 104.439 91.3393C104.239 91.4393 104.439 91.6393 104.639 91.6393Z" fill="#FAD6BB"/>
<path d="M106.639 92.8393H106.739L109.839 92.1393C110.039 92.0393 110.239 91.8393 110.139 91.6393L109.439 88.8393C109.339 88.6393 109.139 88.4393 108.939 88.5393C108.739 88.6393 108.539 88.8393 108.639 89.0393L109.239 91.4393L106.639 92.0393C106.439 92.1393 106.239 92.3393 106.339 92.5393C106.239 92.6393 106.439 92.8393 106.639 92.8393Z" fill="#FAD6BB"/>
<path d="M119.939 100.639H120.039C120.239 100.539 120.439 100.339 120.339 100.139L119.739 97.7393L122.339 97.1393C122.539 97.0393 122.739 96.8393 122.639 96.6393C122.539 96.4393 122.339 96.2393 122.139 96.3393L119.039 97.0393C118.839 97.1393 118.639 97.3393 118.739 97.5393L119.439 100.339C119.539 100.539 119.739 100.639 119.939 100.639Z" fill="#FAD6BB"/>
<path d="M118.039 99.4394H118.139C118.339 99.3394 118.539 99.1394 118.439 98.9394L117.839 96.5394L120.439 95.9394C120.639 95.8394 120.839 95.6394 120.739 95.4394C120.639 95.2394 120.439 95.0394 120.239 95.1394L117.139 95.8394C117.039 95.8394 116.939 95.9394 116.839 96.0394C116.739 96.1394 116.739 96.2394 116.739 96.3394L117.439 99.1394C117.639 99.3394 117.839 99.4394 118.039 99.4394Z" fill="#FAD6BB"/>
<path d="M111.139 79.1393C111.339 79.1393 111.539 78.9393 111.539 78.7393V76.0393H115.139V78.7393C115.139 78.9393 115.339 79.1393 115.539 79.1393C115.739 79.1393 115.939 78.9393 115.939 78.7393V75.6393C115.939 75.4393 115.739 75.2393 115.539 75.2393H111.039C110.839 75.2393 110.639 75.4393 110.639 75.6393V78.7393C110.639 78.9393 110.839 79.1393 111.139 79.1393Z" fill="#FAD6BB"/>
<path d="M113.839 75.5394C114.039 75.5394 114.239 75.3394 114.239 75.1394V65.2394C114.239 65.0394 114.039 64.8394 113.839 64.8394C113.639 64.8394 113.439 65.0394 113.439 65.2394V75.1394C113.339 75.3394 113.539 75.5394 113.839 75.5394Z" fill="#FAD6BB"/>
<path d="M448.239 112.039C448.439 112.039 448.539 111.939 448.639 111.839L459.239 94.2394C459.339 94.1394 459.339 93.9394 459.239 93.8394L449.739 75.8394C449.639 75.7394 449.539 75.6394 449.339 75.6394C449.139 75.6394 449.039 75.7394 448.939 75.8394L438.339 93.3394C438.239 93.4394 438.239 93.6394 438.339 93.7394L447.839 111.939C447.939 111.939 448.139 112.039 448.239 112.039ZM458.339 93.9394L448.339 110.639L439.239 93.4394L449.239 76.8394L458.339 93.9394Z" fill="#FAD6BB"/>
<path d="M448.239 112.039C448.439 112.039 448.539 111.839 448.639 111.639L455.039 95.8393C455.039 95.7393 455.039 95.6393 455.039 95.5393L449.639 76.3393C449.539 76.1393 449.439 76.0393 449.239 76.0393C449.039 76.0393 448.839 76.1393 448.839 76.3393L442.539 95.2393C442.539 95.3393 442.539 95.4393 442.539 95.5393L447.739 111.739C447.939 111.739 448.039 112.039 448.239 112.039ZM454.239 95.5393L448.339 109.939L443.539 95.2393L449.239 77.8393L454.239 95.5393Z" fill="#FAD6BB"/>
<path d="M454.539 95.8394C454.639 95.8394 454.639 95.9394 454.739 95.9394L459.039 94.3394C459.239 94.2394 459.339 94.0394 459.339 93.7394C459.239 93.5394 458.939 93.4394 458.739 93.5394L454.439 95.1394L443.139 94.8394L438.939 92.9394C438.739 92.8394 438.439 92.9394 438.339 93.1394C438.239 93.3394 438.339 93.6394 438.539 93.7394L442.839 95.6394C442.939 95.6394 442.939 95.5394 443.039 95.5394L454.539 95.8394Z" fill="#FAD6BB"/>
<path d="M449.239 71.1394C449.439 71.1394 449.639 70.9394 449.639 70.7394V29.2394C449.639 29.0394 449.439 28.8394 449.239 28.8394C449.039 28.8394 448.839 29.0394 448.839 29.2394V70.6394C448.739 70.9394 448.939 71.1394 449.239 71.1394Z" fill="#FAD6BB"/>
<path d="M449.439 75.5394C450.939 75.5394 452.139 74.3394 452.139 72.8394C452.139 71.3394 450.939 70.1394 449.439 70.1394C447.939 70.1394 446.739 71.3394 446.739 72.8394C446.739 74.3394 447.939 75.5394 449.439 75.5394ZM449.439 71.1394C450.439 71.1394 451.239 71.9394 451.239 72.9394C451.239 73.9394 450.439 74.7394 449.439 74.7394C448.439 74.7394 447.639 73.9394 447.639 72.9394C447.639 71.9394 448.439 71.1394 449.439 71.1394Z" fill="#FAD6BB"/>
<path d="M235.939 153.739C237.239 153.739 238.339 152.839 238.339 151.539C238.339 151.339 238.139 151.139 237.939 151.139C237.739 151.139 237.439 151.239 237.439 151.439C237.439 152.239 236.739 152.839 235.939 152.839C235.539 152.839 235.139 152.839 234.839 152.539C234.539 152.239 234.439 151.939 234.439 151.539C234.439 151.339 234.239 151.139 234.039 151.139C233.839 151.139 233.539 151.339 233.539 151.639C233.539 152.239 233.739 152.739 234.239 153.239C234.639 153.639 235.239 153.739 235.939 153.739Z" fill="#FAD6BB"/>
<path d="M236.539 152.139C237.239 152.139 237.339 152.139 237.339 152.139C242.539 151.939 248.739 150.339 250.339 147.839C250.739 147.139 250.939 146.439 250.639 145.739C249.839 143.439 248.739 141.939 247.639 140.439C247.039 139.639 246.439 138.839 245.939 137.939C244.639 135.739 244.539 129.039 244.539 129.039C244.639 124.439 241.039 120.439 236.539 120.439H236.439C234.239 120.439 231.939 121.639 230.239 123.339C228.839 124.839 228.139 126.739 228.239 128.539V128.639C228.239 128.739 227.839 135.339 226.439 137.539C225.839 138.439 225.239 139.239 224.639 140.039C223.439 141.539 222.239 143.039 221.439 145.339C221.139 146.039 221.239 146.739 221.739 147.439C223.339 149.939 229.439 151.739 234.739 152.139C234.839 152.139 236.439 152.139 236.539 152.139ZM236.439 121.439H236.539C240.539 121.439 243.739 125.039 243.739 129.039C243.739 129.339 243.839 135.939 245.239 138.339C245.839 139.339 246.439 140.139 247.039 140.939C248.139 142.439 249.139 143.839 249.939 146.039C250.039 146.439 250.039 146.939 249.739 147.339C248.439 149.239 242.939 150.939 237.339 151.239C237.239 151.239 236.939 151.239 236.639 151.239C235.839 151.239 235.039 151.239 234.939 151.239C229.239 150.739 223.839 148.839 222.639 146.939C222.339 146.539 222.339 146.039 222.439 145.639C223.239 143.539 224.339 142.139 225.539 140.639C226.139 139.839 226.839 139.039 227.439 138.039C228.839 135.839 229.339 129.739 229.339 128.839C229.339 128.839 229.339 128.739 229.339 128.639C229.239 127.139 229.839 125.339 231.139 124.039C232.339 122.439 234.439 121.439 236.439 121.439Z" fill="#FAD6BB"/>
<path d="M236.639 150.539C237.139 150.539 237.239 150.539 237.339 150.539C242.739 150.239 249.239 148.539 250.539 145.939C250.639 145.839 250.639 145.739 250.539 145.539C250.439 145.239 250.339 144.939 250.239 144.739C250.139 144.639 250.039 144.539 249.939 144.439C249.739 144.439 249.639 144.439 249.539 144.639C248.039 146.439 242.739 148.039 237.239 148.339C237.139 148.339 236.839 148.339 236.639 148.339C235.839 148.339 234.939 148.339 234.839 148.239C229.339 147.739 224.139 146.039 222.639 144.139C222.539 144.039 222.339 143.939 222.239 143.939C222.039 143.939 221.939 144.039 221.839 144.239C221.739 144.539 221.539 144.839 221.439 145.039C221.439 145.139 221.439 145.239 221.439 145.439C222.639 148.139 229.139 150.039 234.539 150.439C234.839 150.539 236.339 150.539 236.639 150.539ZM249.639 145.739C248.339 147.639 242.939 149.339 237.239 149.639C236.739 149.739 234.939 149.639 234.839 149.639C229.139 149.139 223.739 147.239 222.539 145.339C224.839 147.439 230.239 148.839 234.739 149.239C234.939 149.339 236.639 149.339 236.639 149.339C237.239 149.339 237.339 149.339 237.439 149.339C241.839 149.039 247.339 147.739 249.639 145.739Z" fill="#FAD6BB"/>
<path d="M236.539 117.339C236.739 117.339 236.939 117.139 236.939 116.939V75.5392C236.939 75.3392 236.739 75.1392 236.539 75.1392C236.339 75.1392 236.139 75.3392 236.139 75.5392V116.939C236.139 117.139 236.339 117.339 236.539 117.339Z" fill="#FAD6BB"/>
<path d="M236.739 121.839C238.239 121.839 239.439 120.639 239.439 119.139C239.439 117.639 238.239 116.439 236.739 116.439C235.239 116.439 234.039 117.639 234.039 119.139C234.039 120.639 235.239 121.839 236.739 121.839ZM236.739 117.339C237.739 117.339 238.539 118.139 238.539 119.139C238.539 120.139 237.739 120.939 236.739 120.939C235.739 120.939 234.939 120.139 234.939 119.139C234.939 118.139 235.739 117.339 236.739 117.339Z" fill="#FAD6BB"/>
<path d="M534.739 154.239C534.139 154.239 533.539 154.739 533.539 155.339C533.539 155.939 534.039 156.539 534.639 156.539C535.239 156.539 535.839 156.039 535.839 155.439C535.839 154.839 535.439 154.239 534.739 154.239Z" fill="#FAD6BB"/>
<path d="M531.239 77.7392C531.539 77.7392 531.939 77.7392 532.239 77.6392C534.139 77.1392 535.239 75.1392 534.639 73.2392C534.239 71.7392 532.839 70.6392 531.239 70.6392C530.939 70.6392 530.539 70.6392 530.239 70.7392C528.339 71.2392 527.239 73.2392 527.839 75.1392C528.239 76.6392 529.739 77.7392 531.239 77.7392ZM531.239 71.5392C532.439 71.5392 533.439 72.3392 533.839 73.4392C534.239 74.8392 533.439 76.3392 532.039 76.7392C530.639 77.1392 529.139 76.3392 528.739 74.9392C528.339 73.5392 529.139 72.0392 530.539 71.6392C530.739 71.5392 531.039 71.5392 531.239 71.5392Z" fill="#FAD6BB"/>
<path d="M1027.3 67.5375C975.204 67.5375 944.204 49.3375 927.304 34.1375C909.004 17.5375 903.005 0.8375 902.905 0.6375C902.805 0.4375 902.905 0.1375 903.205 0.0375C903.405 -0.0625 903.704 0.0375 903.804 0.3375C903.904 0.5375 909.905 17.1375 928.005 33.4375C944.705 48.5375 975.604 66.6375 1027.3 66.6375C1093.1 66.6375 1132.8 48.6375 1154.5 33.5375C1178 17.1375 1186.1 0.5375 1186.1 0.4375C1186.2 0.2375 1186.5 0.1375 1186.7 0.2375C1186.9 0.3375 1187 0.6375 1186.9 0.8375C1186.8 1.0375 1178.7 17.7375 1155 34.2375C1133.3 49.3375 1093.4 67.5375 1027.3 67.5375Z" fill="#D7AD6C"/>
<path d="M805.606 2.0375C805.406 1.9375 805.106 2.0375 805.006 2.3375C804.906 2.4375 799.706 15.8375 784.206 29.1375C769.906 41.4375 743.706 56.0375 700.306 56.0375C690.306 56.0375 681.506 54.7375 673.806 52.7375C673.806 53.0375 673.706 53.3375 673.606 53.6375C681.406 55.7375 690.206 56.9375 700.306 56.9375C744.006 56.9375 770.406 42.2375 784.806 29.8375C800.506 16.4375 805.806 2.8375 805.906 2.6375C806.006 2.4375 805.906 2.1375 805.606 2.0375Z" fill="#D7AD6C"/>
<path d="M920.504 67.5392C861.404 67.5392 826.104 49.4392 806.904 34.1392C786.104 17.6392 779.204 0.83923 779.104 0.63923C779.004 0.43923 779.204 0.139231 779.404 0.0392305C779.604 -0.0607695 779.904 0.0392303 780.004 0.23923C780.104 0.43923 786.904 17.0392 807.504 33.3392C826.604 48.5392 861.604 66.6392 920.504 66.6392C995.304 66.6392 1040.4 48.6392 1065.1 33.4392C1091.8 17.0392 1101 0.43923 1101.1 0.33923C1101.2 0.13923 1101.5 0.0392304 1101.7 0.13923C1101.9 0.23923 1102 0.53923 1101.9 0.73923C1101.8 0.93923 1092.6 17.6392 1065.7 34.1392C1040.9 49.3392 995.604 67.5392 920.504 67.5392Z" fill="#D7AD6C"/>
<path d="M859.604 88.1393C795.804 88.1393 757.804 64.3393 737.104 44.4393C714.704 22.8393 707.304 0.839294 707.204 0.639294C707.104 0.439294 707.304 0.139294 707.504 0.039294C707.704 -0.060706 708.004 0.139294 708.104 0.339294C708.204 0.539294 715.504 22.3393 737.804 43.8393C758.304 63.6393 796.104 87.2393 859.604 87.2393C940.304 87.2393 989.004 63.5393 1015.6 43.7393C1044.4 22.2393 1054.3 0.539294 1054.3 0.339294C1054.4 0.139294 1054.7 0.0392938 1054.9 0.139294C1055.1 0.239294 1055.2 0.539294 1055.1 0.739294C1055 0.939294 1045.1 22.9393 1016.1 44.5393C989.404 64.4393 940.504 88.1393 859.604 88.1393Z" fill="#D7AD6C"/>
<path d="M872.004 75.3393C872.004 74.7393 872.504 74.2393 873.104 74.2393C873.704 74.2393 874.204 74.7393 874.204 75.3393C874.204 75.9393 873.704 76.4393 873.104 76.4393C872.604 76.4393 872.004 75.9393 872.004 75.3393Z" fill="#FAD6BB"/>
<path d="M687.804 33.3391C687.004 33.3391 686.204 33.1391 685.504 32.7391C684.304 32.1391 683.404 31.0391 683.004 29.8391C682.604 28.5391 682.704 27.2391 683.304 26.0391C684.204 24.3391 685.904 23.3391 687.804 23.3391C688.604 23.3391 689.404 23.5391 690.104 23.9391C692.604 25.2391 693.504 28.2391 692.304 30.7391C691.404 32.3391 689.704 33.3391 687.804 33.3391ZM687.804 24.2391C686.204 24.2391 684.804 25.1391 684.104 26.4391C683.604 27.4391 683.504 28.5391 683.804 29.6391C684.104 30.7391 684.904 31.5391 685.804 32.0391C686.404 32.3391 687.004 32.5391 687.704 32.5391C689.304 32.5391 690.704 31.6391 691.404 30.3391C692.404 28.3391 691.604 25.8391 689.604 24.7391C689.104 24.3391 688.504 24.2391 687.804 24.2391Z" fill="#FAD6BB"/>
<path d="M633.804 25.4391C631.804 25.5391 630.104 23.9391 630.004 21.8391C629.904 19.8391 631.504 18.1391 633.604 18.0391C635.604 17.9391 637.304 19.5391 637.404 21.6391C637.404 23.6391 635.804 25.3391 633.804 25.4391Z" fill="#FAD6BB"/>
<path d="M640.304 168.439C640.204 168.439 640.004 168.439 639.904 168.439C637.104 168.239 635.104 165.739 635.304 163.039C635.504 160.339 638.004 158.239 640.704 158.439C642.004 158.539 643.304 159.139 644.104 160.239C645.004 161.239 645.404 162.539 645.304 163.939C645.104 166.439 642.904 168.439 640.304 168.439ZM640.204 159.239C638.104 159.239 636.304 160.939 636.104 163.039C635.904 165.339 637.604 167.339 639.904 167.539C642.204 167.739 644.204 166.039 644.404 163.739C644.504 162.639 644.104 161.539 643.404 160.739C642.704 159.939 641.704 159.339 640.604 159.339C640.504 159.239 640.404 159.239 640.204 159.239Z" fill="#FAD6BB"/>
<path d="M763.204 80.5392C762.904 80.5392 762.604 80.4392 762.204 80.3392C761.604 80.0392 761.104 79.6392 760.904 79.0392C760.604 78.4392 760.604 77.7392 760.904 77.1392C761.304 76.2392 762.204 75.6392 763.204 75.6392C763.504 75.6392 763.804 75.7392 764.204 75.8392C765.504 76.3392 766.104 77.8392 765.504 79.0392C765.104 79.9392 764.204 80.5392 763.204 80.5392ZM763.204 76.4392C762.604 76.4392 762.004 76.8392 761.704 77.4392C761.504 77.8392 761.504 78.2392 761.704 78.6392C761.904 79.0392 762.204 79.3392 762.604 79.5392C763.404 79.8392 764.304 79.4392 764.704 78.6392C765.004 77.8392 764.704 76.9392 763.804 76.5392C763.604 76.4392 763.404 76.4392 763.204 76.4392Z" fill="#FAD6BB"/>
<path d="M726.904 134.639C726.604 134.639 726.304 134.539 725.904 134.439C725.304 134.139 724.804 133.739 724.604 133.139C724.304 132.539 724.304 131.839 724.604 131.239C725.004 130.339 725.904 129.739 726.904 129.739C727.204 129.739 727.504 129.839 727.904 129.939C728.504 130.239 729.004 130.639 729.204 131.239C729.504 131.839 729.504 132.539 729.204 133.139C728.804 134.039 727.904 134.639 726.904 134.639ZM726.904 130.639C726.304 130.639 725.704 131.039 725.404 131.639C725.204 132.039 725.204 132.439 725.404 132.839C725.604 133.239 725.904 133.539 726.304 133.739C727.104 134.039 728.004 133.639 728.404 132.839C728.604 132.439 728.604 132.039 728.404 131.639C728.204 131.239 727.904 130.939 727.504 130.739C727.304 130.639 727.104 130.639 726.904 130.639Z" fill="#FAD6BB"/>
<path d="M755.004 146.539C754.804 146.539 754.604 146.539 754.404 146.439C754.004 146.239 753.704 145.939 753.504 145.539C753.304 145.139 753.304 144.739 753.504 144.339C753.804 143.539 754.804 143.139 755.604 143.439C756.404 143.739 756.804 144.739 756.504 145.539C756.204 146.239 755.604 146.539 755.004 146.539ZM755.004 144.339C754.704 144.339 754.504 144.539 754.404 144.739C754.304 144.939 754.304 145.139 754.404 145.239C754.504 145.439 754.604 145.539 754.804 145.639C755.204 145.739 755.604 145.639 755.704 145.239C755.804 144.839 755.704 144.439 755.304 144.339C755.204 144.339 755.104 144.339 755.004 144.339Z" fill="#FAD6BB"/>
<path d="M702.504 99.8393C700.604 99.0393 699.704 96.9393 700.504 95.0393C701.304 93.1393 703.404 92.2393 705.304 93.0393C707.204 93.8393 708.104 95.9393 707.304 97.8393C706.504 99.7393 704.304 100.639 702.504 99.8393Z" fill="#FAD6BB"/>
<path d="M770.904 177.239C770.204 177.239 769.604 177.039 769.004 176.739C767.004 175.739 766.204 173.239 767.204 171.139C767.904 169.739 769.304 168.939 770.904 168.939C771.604 168.939 772.204 169.139 772.804 169.439C773.804 169.939 774.504 170.839 774.804 171.839C775.104 172.839 775.004 174.039 774.504 175.039C773.904 176.439 772.504 177.239 770.904 177.239ZM771.004 169.939C769.804 169.939 768.704 170.639 768.104 171.739C767.304 173.339 767.904 175.239 769.504 176.139C770.004 176.339 770.504 176.539 771.004 176.539C772.204 176.539 773.304 175.839 773.904 174.739C774.304 173.939 774.404 173.139 774.104 172.239C773.804 171.439 773.304 170.739 772.504 170.339C772.004 170.039 771.504 169.939 771.004 169.939Z" fill="#FAD6BB"/>
<path d="M821.404 89.1392C822.004 89.1392 822.604 89.6392 822.604 90.2392C822.604 90.8392 822.104 91.4392 821.504 91.4392C820.904 91.4392 820.304 90.9392 820.304 90.3392C820.204 89.7392 820.704 89.1392 821.404 89.1392Z" fill="#FAD6BB"/>
<path d="M1004.5 83.6392C1006.5 83.5392 1008.2 85.1392 1008.3 87.2392C1008.4 89.2392 1006.8 90.9392 1004.7 91.0392C1002.7 91.1392 1001 89.5392 1000.9 87.4392C1000.8 85.4392 1002.4 83.7392 1004.5 83.6392Z" fill="#FAD6BB"/>
<path d="M795.104 133.439C795.604 131.839 797.304 130.839 798.904 131.339C800.504 131.839 801.504 133.539 801.004 135.239C800.504 136.839 798.804 137.839 797.104 137.339C795.604 136.839 794.604 135.039 795.104 133.439Z" fill="#FAD6BB"/>
<path d="M1049.4 117.939C1049.2 117.939 1049.1 117.939 1048.9 117.839C1048.4 117.739 1048.1 117.439 1047.8 116.939C1047.6 116.539 1047.5 116.039 1047.7 115.539C1048 114.639 1049 114.039 1049.9 114.339C1050.4 114.439 1050.7 114.739 1051 115.239C1051.2 115.639 1051.3 116.139 1051.2 116.639C1050.9 117.339 1050.2 117.939 1049.4 117.939ZM1049.4 115.239C1049 115.239 1048.7 115.539 1048.5 115.839C1048.4 116.039 1048.5 116.339 1048.6 116.539C1048.7 116.739 1048.9 116.939 1049.1 116.939C1049.6 117.039 1050.1 116.839 1050.2 116.339C1050.3 116.139 1050.2 115.839 1050.1 115.639C1050 115.439 1049.8 115.239 1049.6 115.239C1049.5 115.239 1049.4 115.239 1049.4 115.239Z" fill="#FAD6BB"/>
<path d="M953.404 22.2392C953.304 22.2392 953.304 22.2392 953.204 22.2392C952.504 22.1392 951.904 21.8392 951.504 21.3392C951.104 20.8392 950.904 20.2392 950.904 19.5392C951.004 18.2392 952.204 17.1392 953.604 17.2392C955.004 17.3392 956.004 18.5392 955.904 19.9392C955.704 21.2392 954.704 22.2392 953.404 22.2392ZM953.404 18.2392C952.604 18.2392 951.904 18.8392 951.804 19.7392C951.804 20.1392 951.904 20.5392 952.204 20.9392C952.504 21.2392 952.904 21.4392 953.304 21.5392C954.204 21.6392 954.904 20.9392 955.004 20.1392C955.104 19.2392 954.404 18.5392 953.604 18.4392C953.504 18.2392 953.404 18.2392 953.404 18.2392Z" fill="#FAD6BB"/>
<path d="M979.505 26.3392C979.605 25.2392 980.605 24.3392 981.705 24.4392C982.805 24.5392 983.705 25.5392 983.605 26.6392C983.505 27.7392 982.505 28.6392 981.405 28.5392C980.205 28.4392 979.405 27.4392 979.505 26.3392Z" fill="#FAD6BB"/>
<path d="M913.204 56.8392H913.104C912.204 56.7392 911.604 56.0392 911.604 55.1392C911.704 54.2392 912.504 53.6392 913.304 53.6392C914.204 53.7392 914.804 54.4392 914.804 55.3392C914.704 56.2392 914.004 56.8392 913.204 56.8392ZM913.204 54.5392C912.804 54.5392 912.505 54.8392 912.505 55.1392C912.505 55.5392 912.804 55.8392 913.104 55.8392H913.204C913.604 55.8392 913.904 55.5392 913.904 55.2392C913.904 54.9392 913.604 54.6392 913.204 54.5392Z" fill="#FAD6BB"/>
<path d="M894.104 29.2392C894.304 27.2392 896.004 25.7392 898.104 25.8392C900.104 26.0392 901.604 27.7392 901.504 29.8392C901.304 31.8392 899.604 33.3392 897.504 33.2392C895.404 33.0392 893.904 31.2392 894.104 29.2392Z" fill="#FAD6BB"/>
<path d="M984.304 138.639C984.204 138.639 984.004 138.639 983.904 138.639C981.104 138.439 979.104 135.939 979.304 133.239C979.504 130.539 981.904 128.439 984.704 128.639C986.004 128.739 987.304 129.339 988.104 130.439C989.004 131.439 989.404 132.739 989.304 134.139C989.104 136.539 986.904 138.639 984.304 138.639ZM984.304 129.439C982.204 129.439 980.404 131.139 980.204 133.239C980.004 135.539 981.704 137.539 984.004 137.739C986.304 137.939 988.304 136.239 988.504 133.939C988.604 132.839 988.204 131.739 987.504 130.939C986.804 130.139 985.804 129.539 984.704 129.539C984.504 129.439 984.404 129.439 984.304 129.439Z" fill="#FAD6BB"/>
<path d="M1075.1 47.5392C1074.8 47.5392 1074.5 47.4392 1074.1 47.3392C1072.8 46.8392 1072.2 45.3392 1072.8 44.1392C1073.2 43.2392 1074.1 42.6392 1075.1 42.6392C1075.4 42.6392 1075.7 42.7392 1076.1 42.8392C1076.7 43.1392 1077.2 43.5392 1077.4 44.1392C1077.7 44.7392 1077.7 45.4392 1077.4 46.0392C1077 46.9392 1076.1 47.5392 1075.1 47.5392ZM1075.1 43.5392C1074.5 43.5392 1073.9 43.9392 1073.6 44.5392C1073.3 45.3392 1073.7 46.2392 1074.5 46.6392C1075.3 46.9392 1076.2 46.5392 1076.6 45.7392C1076.8 45.3392 1076.8 44.9392 1076.6 44.5392C1076.4 44.1392 1076.1 43.8392 1075.7 43.6392C1075.5 43.5392 1075.3 43.5392 1075.1 43.5392Z" fill="#FAD6BB"/>
<path d="M1027 27.7391C1026.6 27.7391 1026.2 27.6391 1025.9 27.4391C1024.7 26.8391 1024.2 25.3391 1024.8 24.1391C1025.2 23.3391 1026.1 22.8391 1027 22.8391C1027.4 22.8391 1027.8 22.9391 1028.1 23.1391C1029.3 23.7391 1029.8 25.2391 1029.2 26.4391C1028.7 27.2391 1027.9 27.7391 1027 27.7391ZM1027 23.7391C1026.4 23.7391 1025.9 24.0391 1025.6 24.6391C1025.2 25.4391 1025.5 26.3391 1026.3 26.7391C1027.1 27.1391 1028 26.8391 1028.4 26.0391C1028.8 25.2391 1028.5 24.3391 1027.7 23.9391C1027.4 23.7391 1027.2 23.7391 1027 23.7391Z" fill="#FAD6BB"/>
<path d="M961.304 104.739C961.004 104.739 960.804 104.639 960.604 104.539C959.804 104.139 959.504 103.139 959.904 102.439C960.304 101.639 961.304 101.339 962.004 101.739C962.804 102.139 963.104 103.139 962.704 103.839C962.504 104.439 961.904 104.739 961.304 104.739ZM961.304 102.439C961.004 102.439 960.804 102.539 960.704 102.839C960.504 103.139 960.704 103.639 961.004 103.739C961.304 103.939 961.804 103.739 961.904 103.439C962.104 103.139 961.904 102.639 961.604 102.539C961.504 102.439 961.404 102.439 961.304 102.439Z" fill="#FAD6BB"/>
<path d="M673.904 194.239C662.504 194.239 653.204 184.939 653.204 173.539C653.204 162.139 662.504 152.839 673.904 152.839C685.304 152.839 694.604 162.139 694.604 173.539C694.604 185.039 685.304 194.239 673.904 194.239ZM673.904 153.839C663.004 153.839 654.104 162.739 654.104 173.639C654.104 184.539 663.004 193.439 673.904 193.439C684.804 193.439 693.704 184.539 693.704 173.639C693.704 162.739 684.804 153.839 673.904 153.839Z" fill="#FAD6BB"/>
<path d="M673.704 185.839C673.504 185.839 673.304 185.639 673.304 185.439V159.639C673.304 159.439 673.504 159.239 673.704 159.239C673.904 159.239 674.104 159.439 674.104 159.639V185.439C674.104 185.639 673.904 185.839 673.704 185.839Z" fill="#FAD6BB"/>
<path d="M673.704 163.739C673.604 163.739 673.504 163.739 673.404 163.639L670.804 161.039C670.604 160.839 670.604 160.539 670.804 160.439C671.004 160.239 671.304 160.239 671.404 160.439L673.704 162.739L676.104 160.339C676.304 160.139 676.604 160.139 676.704 160.339C676.904 160.539 676.904 160.839 676.704 160.939L673.904 163.739C673.904 163.739 673.804 163.739 673.704 163.739Z" fill="#FAD6BB"/>
<path d="M673.704 166.639C673.604 166.639 673.504 166.639 673.404 166.539L670.804 163.939C670.604 163.739 670.604 163.439 670.804 163.339C671.004 163.139 671.304 163.139 671.404 163.339L673.704 165.639L676.104 163.239C676.304 163.039 676.604 163.039 676.704 163.239C676.804 163.439 676.904 163.739 676.704 163.839L673.904 166.639C673.904 166.539 673.804 166.639 673.704 166.639Z" fill="#FAD6BB"/>
<path d="M670.904 185.039C670.804 185.039 670.704 185.039 670.604 184.939C670.404 184.739 670.404 184.439 670.604 184.339L673.404 181.539C673.604 181.339 673.904 181.339 674.004 181.539L676.604 184.139C676.804 184.339 676.804 184.639 676.604 184.739C676.404 184.839 676.104 184.939 676.004 184.739L673.704 182.439L671.204 184.839C671.104 185.039 671.004 185.039 670.904 185.039Z" fill="#FAD6BB"/>
<path d="M670.904 182.239C670.804 182.239 670.704 182.239 670.604 182.139C670.404 181.939 670.404 181.639 670.604 181.539L673.404 178.739C673.504 178.639 673.604 178.639 673.704 178.639C673.804 178.639 673.904 178.639 674.004 178.739L676.604 181.339C676.804 181.539 676.804 181.839 676.604 181.939C676.404 182.039 676.104 182.139 676.004 181.939L673.704 179.639L671.204 182.139C671.104 182.239 671.004 182.239 670.904 182.239Z" fill="#FAD6BB"/>
<path d="M684.604 179.839C684.504 179.839 684.404 179.839 684.404 179.739L662.504 166.139C662.304 166.039 662.204 165.739 662.404 165.539C662.504 165.339 662.804 165.239 663.004 165.439L684.904 179.039C685.104 179.139 685.204 179.439 685.004 179.639C684.904 179.739 684.704 179.839 684.604 179.839Z" fill="#FAD6BB"/>
<path d="M663.004 169.339C662.804 169.339 662.604 169.239 662.604 169.039C662.504 168.839 662.704 168.539 662.904 168.539L666.004 167.839L665.204 164.439C665.104 164.239 665.304 163.939 665.504 163.939C665.704 163.839 666.004 164.039 666.004 164.239L666.904 168.039C666.904 168.139 666.904 168.239 666.804 168.339C666.704 168.439 666.604 168.539 666.504 168.539L663.004 169.339Z" fill="#FAD6BB"/>
<path d="M665.404 170.839C665.204 170.839 665.004 170.739 665.004 170.539C664.904 170.339 665.104 170.039 665.304 170.039L668.404 169.339L667.604 165.939C667.504 165.739 667.704 165.439 667.904 165.439C668.104 165.339 668.404 165.539 668.404 165.739L669.304 169.539C669.404 169.739 669.204 170.039 669.004 170.039L665.504 170.839H665.404Z" fill="#FAD6BB"/>
<path d="M682.304 181.739C682.104 181.739 681.904 181.639 681.904 181.439L681.004 177.639C681.004 177.539 681.004 177.439 681.104 177.339C681.204 177.239 681.304 177.139 681.404 177.139L684.904 176.339C685.104 176.239 685.404 176.439 685.404 176.639C685.504 176.839 685.304 177.139 685.104 177.139L682.004 177.839L682.804 181.239C682.904 181.439 682.704 181.739 682.504 181.739C682.404 181.739 682.304 181.739 682.304 181.739Z" fill="#FAD6BB"/>
<path d="M679.904 180.239C679.704 180.239 679.504 180.139 679.504 179.939L678.604 176.139C678.504 175.939 678.704 175.639 678.904 175.639L682.404 174.839C682.604 174.739 682.904 174.939 682.904 175.139C683.004 175.339 682.804 175.639 682.604 175.639L679.504 176.339L680.304 179.739C680.404 179.939 680.204 180.239 680.004 180.239H679.904Z" fill="#FAD6BB"/>
<path d="M662.704 179.639C662.504 179.639 662.404 179.539 662.304 179.439C662.204 179.239 662.204 178.939 662.504 178.839L684.504 165.439C684.704 165.339 685.004 165.339 685.104 165.639C685.204 165.839 685.204 166.139 684.904 166.239L662.904 179.639C662.804 179.639 662.704 179.639 662.704 179.639Z" fill="#FAD6BB"/>
<path d="M684.604 169.439H684.504L680.704 168.539C680.604 168.539 680.504 168.439 680.404 168.339C680.304 168.239 680.304 168.139 680.304 168.039L681.204 164.539C681.304 164.339 681.504 164.139 681.704 164.239C681.904 164.339 682.104 164.539 682.004 164.739L681.204 167.839L684.604 168.639C684.804 168.739 685.004 168.939 684.904 169.139C685.004 169.339 684.804 169.439 684.604 169.439Z" fill="#FAD6BB"/>
<path d="M682.204 170.939H682.104L678.304 170.039C678.204 170.039 678.104 169.939 678.004 169.839C677.904 169.739 677.904 169.639 677.904 169.539L678.804 166.039C678.904 165.839 679.104 165.639 679.304 165.739C679.504 165.839 679.704 166.039 679.604 166.239L678.804 169.339L682.204 170.139C682.404 170.239 682.604 170.439 682.504 170.639C682.604 170.839 682.404 170.939 682.204 170.939Z" fill="#FAD6BB"/>
<path d="M665.604 180.739H665.504C665.304 180.639 665.104 180.439 665.204 180.239L666.004 177.139L662.604 176.339C662.404 176.239 662.204 176.039 662.304 175.839C662.404 175.639 662.604 175.439 662.804 175.539L666.604 176.439C666.804 176.539 667.004 176.739 666.904 176.939L666.004 180.439C666.004 180.539 665.804 180.739 665.604 180.739Z" fill="#FAD6BB"/>
<path d="M668.004 179.239H667.904C667.704 179.139 667.504 178.939 667.604 178.739L668.404 175.639L665.004 174.839C664.804 174.739 664.604 174.539 664.704 174.339C664.804 174.139 665.004 173.939 665.204 174.039L669.004 174.939C669.204 175.039 669.404 175.239 669.304 175.439L668.404 178.939C668.404 179.139 668.204 179.239 668.004 179.239Z" fill="#FAD6BB"/>
<path d="M676.604 153.839C676.404 153.839 676.204 153.639 676.204 153.439V149.839H671.704V153.439C671.704 153.639 671.504 153.839 671.304 153.839C671.104 153.839 670.904 153.639 670.904 153.439V149.439C670.904 149.239 671.104 149.039 671.304 149.039H676.704C676.904 149.039 677.104 149.239 677.104 149.439V153.439C677.004 153.639 676.804 153.839 676.604 153.839Z" fill="#FAD6BB"/>
<path d="M673.904 150.239C673.704 150.239 673.504 150.039 673.504 149.839V53.5392C673.504 53.3392 673.704 53.1392 673.904 53.1392C674.104 53.1392 674.304 53.3392 674.304 53.5392V149.739C674.304 150.039 674.104 150.239 673.904 150.239Z" fill="#FAD6BB"/>
<path d="M1023.7 179.039C1012.3 179.039 1003 169.739 1003 158.339C1003 146.939 1012.3 137.639 1023.7 137.639C1035.1 137.639 1044.4 146.939 1044.4 158.339C1044.4 169.739 1035.1 179.039 1023.7 179.039ZM1023.7 138.539C1012.8 138.539 1003.9 147.439 1003.9 158.339C1003.9 169.239 1012.8 178.139 1023.7 178.139C1034.6 178.139 1043.5 169.239 1043.5 158.339C1043.5 147.439 1034.6 138.539 1023.7 138.539Z" fill="#FAD6BB"/>
<path d="M1023.5 170.539C1023.3 170.539 1023.1 170.339 1023.1 170.139V144.339C1023.1 144.139 1023.3 143.939 1023.5 143.939C1023.7 143.939 1023.9 144.139 1023.9 144.339V170.139C1023.9 170.339 1023.7 170.539 1023.5 170.539Z" fill="#FAD6BB"/>
<path d="M1023.5 148.539C1023.4 148.539 1023.3 148.539 1023.2 148.439L1020.6 145.839C1020.4 145.639 1020.4 145.339 1020.6 145.239C1020.8 145.039 1021.1 145.039 1021.2 145.239L1023.5 147.539L1025.9 145.139C1026.1 144.939 1026.4 144.939 1026.5 145.139C1026.7 145.339 1026.7 145.639 1026.5 145.739L1023.7 148.539C1023.7 148.439 1023.6 148.539 1023.5 148.539Z" fill="#FAD6BB"/>
<path d="M1023.5 151.339C1023.4 151.339 1023.3 151.339 1023.2 151.239L1020.6 148.639C1020.4 148.439 1020.4 148.139 1020.6 148.039C1020.8 147.839 1021.1 147.839 1021.2 148.039L1023.5 150.339L1025.9 147.939C1026.1 147.739 1026.4 147.739 1026.5 147.939C1026.6 148.139 1026.7 148.439 1026.5 148.539L1023.7 151.339C1023.7 151.339 1023.6 151.339 1023.5 151.339Z" fill="#FAD6BB"/>
<path d="M1020.6 169.839C1020.5 169.839 1020.4 169.839 1020.3 169.739C1020.1 169.539 1020.1 169.239 1020.3 169.139L1023.1 166.339C1023.3 166.139 1023.6 166.139 1023.7 166.339L1026.3 168.939C1026.5 169.139 1026.5 169.439 1026.3 169.539C1026.1 169.739 1025.8 169.739 1025.7 169.539L1023.4 167.239L1020.9 169.639C1020.9 169.739 1020.8 169.839 1020.6 169.839Z" fill="#FAD6BB"/>
<path d="M1020.6 166.939C1020.5 166.939 1020.4 166.939 1020.3 166.839C1020.1 166.639 1020.1 166.339 1020.3 166.239L1023.1 163.439C1023.2 163.339 1023.3 163.339 1023.4 163.339C1023.5 163.339 1023.6 163.339 1023.7 163.439L1026.3 166.039C1026.5 166.239 1026.5 166.539 1026.3 166.639C1026.1 166.839 1025.8 166.839 1025.7 166.639L1023.4 164.339L1020.9 166.839C1020.9 166.939 1020.8 166.939 1020.6 166.939Z" fill="#FAD6BB"/>
<path d="M1034.4 164.539C1034.3 164.539 1034.2 164.539 1034.2 164.439L1012.3 150.839C1012.1 150.739 1012 150.439 1012.2 150.239C1012.3 150.039 1012.6 149.939 1012.8 150.139L1034.7 163.739C1034.9 163.839 1035 164.139 1034.8 164.339C1034.7 164.539 1034.5 164.539 1034.4 164.539Z" fill="#FAD6BB"/>
<path d="M1012.8 154.039C1012.6 154.039 1012.4 153.939 1012.4 153.739C1012.3 153.539 1012.5 153.239 1012.7 153.239L1015.8 152.539L1015 149.139C1014.9 148.939 1015.1 148.639 1015.3 148.639C1015.5 148.539 1015.8 148.739 1015.8 148.939L1016.7 152.739C1016.7 152.839 1016.7 152.939 1016.6 153.039C1016.5 153.139 1016.4 153.239 1016.3 153.239L1012.8 154.039Z" fill="#FAD6BB"/>
<path d="M1015.2 155.539C1015 155.539 1014.8 155.439 1014.8 155.239C1014.7 155.039 1014.9 154.739 1015.1 154.739L1018.2 154.039L1017.4 150.639C1017.3 150.439 1017.5 150.139 1017.7 150.139C1017.9 150.039 1018.2 150.239 1018.2 150.439L1019.1 154.239C1019.2 154.439 1019 154.739 1018.8 154.739L1015.3 155.539H1015.2Z" fill="#FAD6BB"/>
<path d="M1032.1 166.439C1031.9 166.439 1031.7 166.339 1031.7 166.139L1030.8 162.339C1030.8 162.239 1030.8 162.139 1030.9 162.039C1031 161.939 1031.1 161.839 1031.2 161.839L1034.7 161.039C1034.9 160.939 1035.2 161.139 1035.2 161.339C1035.3 161.539 1035.1 161.839 1034.9 161.839L1031.8 162.539L1032.6 165.939C1032.7 166.139 1032.5 166.439 1032.3 166.439C1032.1 166.439 1032.1 166.439 1032.1 166.439Z" fill="#FAD6BB"/>
<path d="M1029.7 164.939C1029.5 164.939 1029.3 164.839 1029.3 164.639L1028.4 160.839C1028.3 160.639 1028.5 160.339 1028.7 160.339L1032.2 159.539C1032.4 159.439 1032.7 159.639 1032.7 159.839C1032.8 160.039 1032.6 160.339 1032.4 160.339L1029.3 161.039L1030.1 164.439C1030.2 164.639 1030 164.939 1029.8 164.939C1029.7 164.939 1029.7 164.939 1029.7 164.939Z" fill="#FAD6BB"/>
<path d="M1012.4 164.439C1012.2 164.439 1012.1 164.339 1012 164.239C1011.9 164.039 1011.9 163.739 1012.2 163.639L1034.2 150.239C1034.4 150.139 1034.7 150.139 1034.8 150.439C1034.9 150.639 1034.9 150.939 1034.6 151.039L1012.6 164.439C1012.6 164.339 1012.5 164.439 1012.4 164.439Z" fill="#FAD6BB"/>
<path d="M1034.4 154.239H1034.3L1030.5 153.339C1030.4 153.339 1030.3 153.239 1030.2 153.139C1030.1 153.039 1030.1 152.939 1030.1 152.839L1031 149.339C1031.1 149.139 1031.3 148.939 1031.5 149.039C1031.7 149.139 1031.9 149.339 1031.8 149.539L1031 152.639L1034.4 153.439C1034.6 153.539 1034.8 153.739 1034.7 153.939C1034.8 154.039 1034.6 154.239 1034.4 154.239Z" fill="#FAD6BB"/>
<path d="M1032 155.639H1031.9L1028.1 154.739C1028 154.739 1027.9 154.639 1027.8 154.539C1027.7 154.439 1027.7 154.339 1027.7 154.239L1028.6 150.739C1028.7 150.539 1028.9 150.339 1029.1 150.439C1029.3 150.539 1029.5 150.739 1029.4 150.939L1028.6 154.039L1032 154.839C1032.2 154.939 1032.4 155.139 1032.3 155.339C1032.4 155.539 1032.2 155.639 1032 155.639Z" fill="#FAD6BB"/>
<path d="M1015.4 165.439H1015.3C1015.1 165.339 1014.9 165.139 1015 164.939L1015.8 161.839L1012.4 161.039C1012.2 160.939 1012 160.739 1012.1 160.539C1012.2 160.339 1012.4 160.139 1012.6 160.239L1016.4 161.139C1016.6 161.239 1016.8 161.439 1016.7 161.639L1015.8 165.139C1015.7 165.339 1015.6 165.439 1015.4 165.439Z" fill="#FAD6BB"/>
<path d="M1017.8 163.939H1017.7C1017.5 163.839 1017.3 163.639 1017.4 163.439L1018.2 160.339L1014.8 159.539C1014.6 159.439 1014.4 159.239 1014.5 159.039C1014.6 158.839 1014.8 158.639 1015 158.739L1018.8 159.639C1019 159.739 1019.2 159.939 1019.1 160.139L1018.2 163.639C1018.2 163.839 1018 163.939 1017.8 163.939Z" fill="#FAD6BB"/>
<path d="M1026.4 138.539C1026.2 138.539 1026 138.339 1026 138.139V134.539H1021.4V138.139C1021.4 138.339 1021.2 138.539 1021 138.539C1020.8 138.539 1020.6 138.339 1020.6 138.139V134.139C1020.6 133.939 1020.8 133.739 1021 133.739H1026.4C1026.6 133.739 1026.8 133.939 1026.8 134.139V138.139C1026.8 138.339 1026.6 138.539 1026.4 138.539Z" fill="#FAD6BB"/>
<path d="M1023.7 134.939C1023.5 134.939 1023.3 134.739 1023.3 134.539V38.2391C1023.3 38.0391 1023.5 37.8391 1023.7 37.8391C1023.9 37.8391 1024.1 38.0391 1024.1 38.2391V134.439C1024.1 134.739 1023.9 134.939 1023.7 134.939Z" fill="#FAD6BB"/>
<path d="M800.304 126.839C791.104 126.839 783.604 119.339 783.604 110.139C783.604 100.939 791.104 93.4392 800.304 93.4392C809.504 93.4392 817.004 100.939 817.004 110.139C817.004 119.339 809.504 126.839 800.304 126.839ZM800.304 94.3392C791.604 94.3392 784.504 101.439 784.504 110.139C784.504 118.839 791.604 125.939 800.304 125.939C809.004 125.939 816.104 118.839 816.104 110.139C816.104 101.439 809.004 94.3392 800.304 94.3392Z" fill="#FAD6BB"/>
<path d="M800.204 120.039C800.004 120.039 799.804 119.839 799.804 119.639V98.9391C799.804 98.7391 800.004 98.5391 800.204 98.5391C800.404 98.5391 800.604 98.7391 800.604 98.9391V119.639C800.604 119.839 800.404 120.039 800.204 120.039Z" fill="#FAD6BB"/>
<path d="M800.104 102.339C800.004 102.339 799.904 102.339 799.804 102.239L797.704 100.139C797.504 99.9391 797.504 99.6391 797.704 99.5391C797.904 99.3391 798.204 99.3391 798.304 99.5391L800.104 101.339L802.004 99.4391C802.204 99.2391 802.504 99.2391 802.604 99.4391C802.804 99.6391 802.804 99.9391 802.604 100.039L800.404 102.239C800.404 102.239 800.304 102.339 800.104 102.339Z" fill="#FAD6BB"/>
<path d="M800.104 104.639C800.004 104.639 799.904 104.639 799.804 104.539L797.704 102.439C797.504 102.239 797.504 101.939 797.704 101.839C797.904 101.639 798.204 101.639 798.304 101.839L800.104 103.639L802.004 101.739C802.204 101.539 802.504 101.539 802.604 101.739C802.704 101.939 802.804 102.239 802.604 102.339L800.404 104.539C800.404 104.539 800.304 104.639 800.104 104.639Z" fill="#FAD6BB"/>
<path d="M797.904 119.439C797.804 119.439 797.704 119.439 797.604 119.339C797.404 119.139 797.404 118.839 797.604 118.739L799.804 116.539C800.004 116.339 800.304 116.339 800.404 116.539L802.504 118.639C802.704 118.839 802.704 119.139 802.504 119.239C802.304 119.439 802.004 119.439 801.904 119.239L800.104 117.439L798.204 119.339C798.104 119.439 798.004 119.439 797.904 119.439Z" fill="#FAD6BB"/>
<path d="M797.904 117.139C797.804 117.139 797.704 117.139 797.604 117.039C797.404 116.839 797.404 116.539 797.604 116.439L799.804 114.239C799.904 114.139 800.004 114.139 800.104 114.139C800.204 114.139 800.304 114.139 800.404 114.239L802.504 116.339C802.704 116.539 802.704 116.839 802.504 116.939C802.304 117.139 802.004 117.139 801.904 116.939L800.104 115.139L798.204 117.039C798.104 117.139 798.004 117.139 797.904 117.139Z" fill="#FAD6BB"/>
<path d="M808.904 115.239C808.804 115.239 808.704 115.239 808.704 115.139L791.104 104.239C790.904 104.139 790.804 103.839 791.004 103.639C791.104 103.439 791.404 103.339 791.604 103.539L809.204 114.439C809.404 114.539 809.504 114.839 809.304 115.039C809.204 115.139 809.104 115.239 808.904 115.239Z" fill="#FAD6BB"/>
<path d="M791.604 106.839C791.404 106.839 791.204 106.739 791.204 106.539C791.104 106.339 791.304 106.039 791.504 106.039L793.904 105.439L793.304 102.839C793.204 102.639 793.404 102.339 793.604 102.339C793.804 102.239 794.104 102.439 794.104 102.639L794.804 105.739C794.904 105.939 794.704 106.239 794.504 106.239L791.604 106.939C791.604 106.839 791.604 106.839 791.604 106.839Z" fill="#FAD6BB"/>
<path d="M793.504 108.039C793.304 108.039 793.104 107.939 793.104 107.739C793.004 107.539 793.204 107.239 793.404 107.239L795.804 106.639L795.204 104.039C795.104 103.839 795.304 103.539 795.504 103.539C795.704 103.439 796.004 103.639 796.004 103.839L796.704 106.939C796.804 107.139 796.604 107.439 796.404 107.439L793.504 108.139C793.604 108.039 793.504 108.039 793.504 108.039Z" fill="#FAD6BB"/>
<path d="M807.104 116.739C806.904 116.739 806.704 116.639 806.704 116.439L806.004 113.339C806.004 113.239 806.004 113.139 806.104 113.039C806.204 112.939 806.304 112.839 806.404 112.839L809.304 112.139C809.504 112.039 809.804 112.239 809.804 112.439C809.904 112.639 809.704 112.939 809.504 112.939L807.104 113.539L807.704 116.139C807.804 116.339 807.604 116.639 807.404 116.639C807.104 116.739 807.104 116.739 807.104 116.739Z" fill="#FAD6BB"/>
<path d="M805.104 115.539C804.904 115.539 804.704 115.439 804.704 115.239L804.004 112.139C803.904 111.939 804.104 111.639 804.304 111.639L807.204 110.939C807.404 110.839 807.704 111.039 807.704 111.239C807.804 111.439 807.604 111.739 807.404 111.739L805.004 112.339L805.604 114.939C805.704 115.139 805.504 115.439 805.304 115.439C805.204 115.539 805.204 115.539 805.104 115.539Z" fill="#FAD6BB"/>
<path d="M791.304 115.139C791.104 115.139 791.004 115.039 790.904 114.939C790.804 114.739 790.804 114.439 791.104 114.339L808.804 103.539C809.004 103.439 809.304 103.439 809.404 103.739C809.504 103.939 809.504 104.239 809.204 104.339L791.504 115.139C791.404 115.039 791.404 115.139 791.304 115.139Z" fill="#FAD6BB"/>
<path d="M808.904 106.939H808.804L805.704 106.239C805.604 106.239 805.504 106.139 805.404 106.039C805.304 105.939 805.304 105.839 805.304 105.739L806.004 102.939C806.104 102.739 806.304 102.539 806.504 102.639C806.704 102.739 806.904 102.939 806.804 103.139L806.204 105.539L808.804 106.139C809.004 106.239 809.204 106.439 809.104 106.639C809.304 106.739 809.104 106.939 808.904 106.939Z" fill="#FAD6BB"/>
<path d="M807.004 108.039H806.904L803.804 107.339C803.604 107.239 803.404 107.039 803.504 106.839L804.204 104.039C804.304 103.839 804.504 103.639 804.704 103.739C804.904 103.839 805.104 104.039 805.004 104.239L804.404 106.639L807.004 107.239C807.204 107.339 807.404 107.539 807.304 107.739C807.404 107.939 807.204 108.039 807.004 108.039Z" fill="#FAD6BB"/>
<path d="M793.604 115.939H793.504C793.304 115.839 793.104 115.639 793.204 115.439L793.804 113.039L791.204 112.439C791.004 112.339 790.804 112.139 790.904 111.939C791.004 111.739 791.204 111.539 791.404 111.639L794.504 112.339C794.704 112.439 794.904 112.639 794.804 112.839L794.104 115.639C794.004 115.839 793.804 115.939 793.604 115.939Z" fill="#FAD6BB"/>
<path d="M795.604 114.739H795.504C795.304 114.639 795.104 114.439 795.204 114.239L795.804 111.839L793.204 111.239C793.004 111.139 792.804 110.939 792.904 110.739C793.004 110.539 793.204 110.339 793.404 110.439L796.504 111.139C796.604 111.139 796.704 111.239 796.804 111.339C796.904 111.439 796.904 111.539 796.904 111.639L796.204 114.439C796.004 114.639 795.804 114.739 795.604 114.739Z" fill="#FAD6BB"/>
<path d="M802.504 94.4391C802.304 94.4391 802.104 94.2391 802.104 94.0391V91.3391H798.404V94.0391C798.404 94.2391 798.204 94.4391 798.004 94.4391C797.804 94.4391 797.604 94.2391 797.604 94.0391V90.9391C797.604 90.7391 797.804 90.5391 798.004 90.5391H802.504C802.704 90.5391 802.904 90.7391 802.904 90.9391V94.0391C802.904 94.2391 802.704 94.4391 802.504 94.4391Z" fill="#FAD6BB"/>
<path d="M799.804 90.8392C799.604 90.8392 799.404 90.6392 799.404 90.4392V80.5392C799.404 80.3392 799.604 80.1392 799.804 80.1392C800.004 80.1392 800.204 80.3392 800.204 80.5392V90.4392C800.204 90.6392 800.004 90.8392 799.804 90.8392Z" fill="#FAD6BB"/>
<path d="M1073.7 111.539C1064.5 111.539 1057 104.039 1057 94.8394C1057 85.6394 1064.5 78.1394 1073.7 78.1394C1082.9 78.1394 1090.4 85.6394 1090.4 94.8394C1090.4 104.039 1082.9 111.539 1073.7 111.539ZM1073.7 79.0394C1065 79.0394 1057.9 86.1394 1057.9 94.8394C1057.9 103.539 1065 110.639 1073.7 110.639C1082.4 110.639 1089.5 103.539 1089.5 94.8394C1089.5 86.1394 1082.4 79.0394 1073.7 79.0394Z" fill="#FAD6BB"/>
<path d="M1073.5 104.739C1073.3 104.739 1073.1 104.539 1073.1 104.339V83.6393C1073.1 83.4393 1073.3 83.2393 1073.5 83.2393C1073.7 83.2393 1073.9 83.4393 1073.9 83.6393V104.339C1074 104.539 1073.8 104.739 1073.5 104.739Z" fill="#FAD6BB"/>
<path d="M1073.5 87.0393C1073.4 87.0393 1073.3 87.0393 1073.2 86.9393L1071.1 84.8393C1070.9 84.6393 1070.9 84.3393 1071.1 84.2393C1071.3 84.0393 1071.6 84.0393 1071.7 84.2393L1073.5 86.0393L1075.4 84.1393C1075.6 83.9393 1075.9 83.9393 1076 84.1393C1076.2 84.3393 1076.2 84.6393 1076 84.7393L1073.8 86.9393C1073.7 86.9393 1073.6 87.0393 1073.5 87.0393Z" fill="#FAD6BB"/>
<path d="M1073.5 89.3393C1073.4 89.3393 1073.3 89.3393 1073.2 89.2393L1071.1 87.1393C1070.9 86.9393 1070.9 86.6393 1071.1 86.5393C1071.3 86.3393 1071.6 86.3393 1071.7 86.5393L1073.5 88.3393L1075.4 86.4393C1075.6 86.2393 1075.9 86.2393 1076 86.4393C1076.2 86.6393 1076.2 86.9393 1076 87.0393L1073.8 89.2393C1073.7 89.2393 1073.6 89.3393 1073.5 89.3393Z" fill="#FAD6BB"/>
<path d="M1071.2 104.139C1071.1 104.139 1071 104.139 1070.9 104.039C1070.7 103.839 1070.7 103.539 1070.9 103.439L1073.1 101.239C1073.3 101.039 1073.6 101.039 1073.7 101.239L1075.8 103.339C1076 103.539 1076 103.839 1075.8 103.939C1075.6 104.139 1075.3 104.139 1075.2 103.939L1073.4 102.139L1071.5 104.039C1071.5 104.139 1071.3 104.139 1071.2 104.139Z" fill="#FAD6BB"/>
<path d="M1071.2 101.839C1071.1 101.839 1071 101.839 1070.9 101.739C1070.7 101.539 1070.7 101.239 1070.9 101.139L1073.1 98.9394C1073.2 98.8394 1073.3 98.8394 1073.4 98.8394C1073.5 98.8394 1073.6 98.8394 1073.7 98.9394L1075.8 101.039C1076 101.239 1076 101.539 1075.8 101.639C1075.6 101.839 1075.3 101.839 1075.2 101.639L1073.4 99.8394L1071.5 101.739C1071.5 101.839 1071.3 101.839 1071.2 101.839Z" fill="#FAD6BB"/>
<path d="M1082.3 99.9394C1082.2 99.9394 1082.1 99.9394 1082.1 99.8394L1064.4 88.9394C1064.2 88.8394 1064.1 88.5394 1064.3 88.3394C1064.4 88.1394 1064.7 88.0394 1064.9 88.2394L1082.5 99.1394C1082.7 99.2394 1082.8 99.5394 1082.6 99.7394C1082.6 99.8394 1082.4 99.9394 1082.3 99.9394Z" fill="#FAD6BB"/>
<path d="M1064.9 91.5393C1064.7 91.5393 1064.5 91.4393 1064.5 91.2393C1064.4 91.0393 1064.6 90.7393 1064.8 90.7393L1067.2 90.1393L1066.6 87.5393C1066.5 87.3393 1066.7 87.0393 1066.9 87.0393C1067.1 86.9393 1067.4 87.1393 1067.4 87.3393L1068.1 90.4393C1068.2 90.6393 1068 90.9393 1067.8 90.9393L1064.9 91.6393C1065 91.5393 1064.9 91.5393 1064.9 91.5393Z" fill="#FAD6BB"/>
<path d="M1066.9 92.7392C1066.7 92.7392 1066.5 92.6392 1066.5 92.4392C1066.4 92.2392 1066.6 91.9392 1066.8 91.9392L1069.2 91.3392L1068.6 88.7392C1068.5 88.5392 1068.7 88.2392 1068.9 88.2392C1069.1 88.1392 1069.4 88.3392 1069.4 88.5392L1070.1 91.6392C1070.2 91.8392 1070 92.1392 1069.8 92.1392L1066.9 92.8392C1066.9 92.7392 1066.9 92.7392 1066.9 92.7392Z" fill="#FAD6BB"/>
<path d="M1080.4 101.439C1080.2 101.439 1080 101.339 1080 101.139L1079.3 98.0393C1079.3 97.9393 1079.3 97.8393 1079.4 97.7393C1079.5 97.6393 1079.6 97.5393 1079.7 97.5393L1082.6 96.8393C1082.8 96.7393 1083.1 96.9393 1083.1 97.1393C1083.2 97.3393 1083 97.6393 1082.8 97.6393L1080.4 98.2393L1081 100.839C1081.1 101.039 1080.9 101.339 1080.7 101.339C1080.5 101.439 1080.5 101.439 1080.4 101.439Z" fill="#FAD6BB"/>
<path d="M1078.5 100.239C1078.3 100.239 1078.1 100.139 1078.1 99.9394L1077.4 96.8394C1077.3 96.6394 1077.5 96.3394 1077.7 96.3394L1080.6 95.6394C1080.8 95.5394 1081.1 95.7394 1081.1 95.9394C1081.2 96.1394 1081 96.4394 1080.8 96.4394L1078.4 97.0394L1079 99.6394C1079.1 99.8394 1078.9 100.139 1078.7 100.139C1078.6 100.239 1078.5 100.239 1078.5 100.239Z" fill="#FAD6BB"/>
<path d="M1064.6 99.8392C1064.4 99.8392 1064.3 99.7393 1064.2 99.6393C1064.1 99.4393 1064.1 99.1393 1064.4 99.0393L1082.1 88.2392C1082.3 88.1392 1082.6 88.1393 1082.7 88.4393C1082.8 88.6393 1082.8 88.9393 1082.5 89.0393L1064.8 99.8392C1064.8 99.8392 1064.7 99.8392 1064.6 99.8392Z" fill="#FAD6BB"/>
<path d="M1082.3 91.6393H1082.2L1079.1 90.9393C1079 90.9393 1078.9 90.8393 1078.8 90.7393C1078.7 90.6393 1078.7 90.5393 1078.7 90.4393L1079.4 87.6393C1079.5 87.4393 1079.7 87.2393 1079.9 87.3393C1080.1 87.4393 1080.3 87.6393 1080.2 87.8393L1079.6 90.2393L1082.2 90.8393C1082.4 90.9393 1082.6 91.1393 1082.5 91.3393C1082.7 91.4393 1082.5 91.6393 1082.3 91.6393Z" fill="#FAD6BB"/>
<path d="M1080.3 92.8393H1080.2L1077.1 92.1393C1076.9 92.0393 1076.7 91.8393 1076.8 91.6393L1077.5 88.8393C1077.6 88.6393 1077.8 88.4393 1078 88.5393C1078.2 88.6393 1078.4 88.8393 1078.3 89.0393L1077.7 91.4393L1080.3 92.0393C1080.5 92.1393 1080.7 92.3393 1080.6 92.5393C1080.7 92.6393 1080.5 92.8393 1080.3 92.8393Z" fill="#FAD6BB"/>
<path d="M1067 100.639H1066.9C1066.7 100.539 1066.5 100.339 1066.6 100.139L1067.2 97.7393L1064.6 97.1393C1064.4 97.0393 1064.2 96.8393 1064.3 96.6393C1064.4 96.4393 1064.6 96.2393 1064.8 96.3393L1067.9 97.0393C1068.1 97.1393 1068.3 97.3393 1068.2 97.5393L1067.5 100.339C1067.4 100.539 1067.2 100.639 1067 100.639Z" fill="#FAD6BB"/>
<path d="M1068.9 99.4394H1068.8C1068.6 99.3394 1068.4 99.1394 1068.5 98.9394L1069.1 96.5394L1066.5 95.9394C1066.3 95.8394 1066.1 95.6394 1066.2 95.4394C1066.3 95.2394 1066.5 95.0394 1066.7 95.1394L1069.8 95.8394C1069.9 95.8394 1070 95.9394 1070.1 96.0394C1070.2 96.1394 1070.2 96.2394 1070.2 96.3394L1069.5 99.1394C1069.3 99.3394 1069.1 99.4394 1068.9 99.4394Z" fill="#FAD6BB"/>
<path d="M1075.8 79.1393C1075.6 79.1393 1075.4 78.9393 1075.4 78.7393V76.0393H1071.8V78.7393C1071.8 78.9393 1071.6 79.1393 1071.4 79.1393C1071.2 79.1393 1071 78.9393 1071 78.7393V75.6393C1071 75.4393 1071.2 75.2393 1071.4 75.2393H1075.9C1076.1 75.2393 1076.3 75.4393 1076.3 75.6393V78.7393C1076.3 78.9393 1076.1 79.1393 1075.8 79.1393Z" fill="#FAD6BB"/>
<path d="M1073.1 75.5394C1072.9 75.5394 1072.7 75.3394 1072.7 75.1394V65.2394C1072.7 65.0394 1072.9 64.8394 1073.1 64.8394C1073.3 64.8394 1073.5 65.0394 1073.5 65.2394V75.1394C1073.6 75.3394 1073.4 75.5394 1073.1 75.5394Z" fill="#FAD6BB"/>
<path d="M738.704 112.039C738.504 112.039 738.404 111.939 738.304 111.839L727.704 94.2394C727.604 94.1394 727.604 93.9394 727.704 93.8394L737.204 75.8394C737.304 75.7394 737.404 75.6394 737.604 75.6394C737.804 75.6394 737.904 75.7394 738.004 75.8394L748.604 93.3394C748.704 93.4394 748.704 93.6394 748.604 93.7394L739.104 111.939C739.004 111.939 738.804 112.039 738.704 112.039ZM728.604 93.9394L738.604 110.639L747.704 93.4394L737.704 76.8394L728.604 93.9394Z" fill="#FAD6BB"/>
<path d="M738.704 112.039C738.504 112.039 738.404 111.839 738.304 111.639L731.904 95.8393C731.904 95.7393 731.904 95.6393 731.904 95.5393L737.304 76.3393C737.404 76.1393 737.504 76.0393 737.704 76.0393C737.904 76.0393 738.104 76.1393 738.104 76.3393L744.404 95.2393C744.404 95.3393 744.404 95.4393 744.404 95.5393L739.204 111.739C739.004 111.739 738.904 112.039 738.704 112.039ZM732.704 95.5393L738.604 109.939L743.404 95.2393L737.704 77.8393L732.704 95.5393Z" fill="#FAD6BB"/>
<path d="M732.404 95.8394C732.304 95.8394 732.304 95.9394 732.204 95.9394L727.904 94.3394C727.704 94.2394 727.604 94.0394 727.604 93.7394C727.704 93.5394 728.004 93.4394 728.204 93.5394L732.504 95.1394L743.804 94.8394L748.004 92.9394C748.204 92.8394 748.504 92.9394 748.604 93.1394C748.704 93.3394 748.604 93.6394 748.404 93.7394L744.104 95.6394C744.004 95.6394 744.004 95.5394 743.904 95.5394L732.404 95.8394Z" fill="#FAD6BB"/>
<path d="M737.704 71.1394C737.504 71.1394 737.304 70.9394 737.304 70.7394V29.2394C737.304 29.0394 737.504 28.8394 737.704 28.8394C737.904 28.8394 738.104 29.0394 738.104 29.2394V70.6394C738.204 70.9394 738.004 71.1394 737.704 71.1394Z" fill="#FAD6BB"/>
<path d="M737.504 75.5394C736.004 75.5394 734.804 74.3394 734.804 72.8394C734.804 71.3394 736.004 70.1394 737.504 70.1394C739.004 70.1394 740.204 71.3394 740.204 72.8394C740.204 74.3394 739.004 75.5394 737.504 75.5394ZM737.504 71.1394C736.504 71.1394 735.704 71.9394 735.704 72.9394C735.704 73.9394 736.504 74.7394 737.504 74.7394C738.504 74.7394 739.304 73.9394 739.304 72.9394C739.304 71.9394 738.504 71.1394 737.504 71.1394Z" fill="#FAD6BB"/>
<path d="M951.005 153.739C949.705 153.739 948.604 152.839 948.604 151.539C948.604 151.339 948.805 151.139 949.005 151.139C949.205 151.139 949.505 151.239 949.505 151.439C949.505 152.239 950.205 152.839 951.005 152.839C951.405 152.839 951.804 152.839 952.104 152.539C952.404 152.239 952.505 151.939 952.505 151.539C952.505 151.339 952.704 151.139 952.904 151.139C953.104 151.139 953.404 151.339 953.404 151.639C953.404 152.239 953.204 152.739 952.704 153.239C952.304 153.639 951.705 153.739 951.005 153.739Z" fill="#FAD6BB"/>
<path d="M950.404 152.139C949.704 152.139 949.604 152.139 949.604 152.139C944.404 151.939 938.204 150.339 936.604 147.839C936.204 147.139 936.004 146.439 936.304 145.739C937.104 143.439 938.204 141.939 939.304 140.439C939.904 139.639 940.504 138.839 941.004 137.939C942.304 135.739 942.404 129.039 942.404 129.039C942.304 124.439 945.904 120.439 950.404 120.439H950.504C952.704 120.439 955.004 121.639 956.704 123.339C958.104 124.839 958.804 126.739 958.704 128.539V128.639C958.704 128.739 959.104 135.339 960.504 137.539C961.104 138.439 961.704 139.239 962.304 140.039C963.504 141.539 964.704 143.039 965.504 145.339C965.804 146.039 965.704 146.739 965.204 147.439C963.604 149.939 957.504 151.739 952.204 152.139C952.104 152.139 950.504 152.139 950.404 152.139ZM950.504 121.439H950.404C946.404 121.439 943.204 125.039 943.204 129.039C943.204 129.339 943.104 135.939 941.704 138.339C941.104 139.339 940.504 140.139 939.904 140.939C938.804 142.439 937.804 143.839 937.004 146.039C936.904 146.439 936.904 146.939 937.204 147.339C938.504 149.239 944.004 150.939 949.604 151.239C949.704 151.239 950.004 151.239 950.304 151.239C951.104 151.239 951.904 151.239 952.004 151.239C957.704 150.739 963.104 148.839 964.304 146.939C964.604 146.539 964.604 146.039 964.504 145.639C963.704 143.539 962.604 142.139 961.404 140.639C960.804 139.839 960.104 139.039 959.504 138.039C958.104 135.839 957.604 129.739 957.604 128.839C957.604 128.839 957.604 128.739 957.604 128.639C957.704 127.139 957.104 125.339 955.804 124.039C954.604 122.439 952.504 121.439 950.504 121.439Z" fill="#FAD6BB"/>
<path d="M950.304 150.539C949.804 150.539 949.704 150.539 949.604 150.539C944.204 150.239 937.704 148.539 936.404 145.939C936.304 145.839 936.304 145.739 936.404 145.539C936.504 145.239 936.604 144.939 936.704 144.739C936.804 144.639 936.904 144.539 937.004 144.439C937.204 144.439 937.304 144.439 937.404 144.639C938.904 146.439 944.204 148.039 949.704 148.339C949.804 148.339 950.104 148.339 950.304 148.339C951.104 148.339 952.004 148.339 952.104 148.239C957.604 147.739 962.804 146.039 964.304 144.139C964.404 144.039 964.604 143.939 964.704 143.939C964.904 143.939 965.004 144.039 965.104 144.239C965.204 144.539 965.404 144.839 965.504 145.039C965.504 145.139 965.504 145.239 965.504 145.439C964.304 148.139 957.804 150.039 952.404 150.439C952.104 150.539 950.604 150.539 950.304 150.539ZM937.304 145.739C938.604 147.639 944.004 149.339 949.704 149.639C950.204 149.739 952.004 149.639 952.104 149.639C957.804 149.139 963.204 147.239 964.404 145.339C962.104 147.439 956.704 148.839 952.204 149.239C952.004 149.339 950.304 149.339 950.304 149.339C949.704 149.339 949.604 149.339 949.504 149.339C945.104 149.039 939.604 147.739 937.304 145.739Z" fill="#FAD6BB"/>
<path d="M950.405 117.339C950.205 117.339 950.005 117.139 950.005 116.939V75.5392C950.005 75.3392 950.205 75.1392 950.405 75.1392C950.605 75.1392 950.805 75.3392 950.805 75.5392V116.939C950.805 117.139 950.605 117.339 950.405 117.339Z" fill="#FAD6BB"/>
<path d="M950.205 121.839C948.705 121.839 947.505 120.639 947.505 119.139C947.505 117.639 948.705 116.439 950.205 116.439C951.705 116.439 952.905 117.639 952.905 119.139C952.905 120.639 951.705 121.839 950.205 121.839ZM950.205 117.339C949.205 117.339 948.405 118.139 948.405 119.139C948.405 120.139 949.205 120.939 950.205 120.939C951.205 120.939 952.005 120.139 952.005 119.139C952.005 118.139 951.205 117.339 950.205 117.339Z" fill="#FAD6BB"/>
<path d="M652.204 154.239C652.804 154.239 653.404 154.739 653.404 155.339C653.404 155.939 652.904 156.539 652.304 156.539C651.704 156.539 651.104 156.039 651.104 155.439C651.104 154.839 651.504 154.239 652.204 154.239Z" fill="#FAD6BB"/>
<path d="M655.704 77.7392C655.404 77.7392 655.004 77.7392 654.704 77.6392C652.804 77.1392 651.704 75.1392 652.304 73.2392C652.704 71.7392 654.104 70.6392 655.704 70.6392C656.004 70.6392 656.404 70.6392 656.704 70.7392C658.604 71.2392 659.704 73.2392 659.104 75.1392C658.704 76.6392 657.204 77.7392 655.704 77.7392ZM655.704 71.5392C654.504 71.5392 653.504 72.3392 653.104 73.4392C652.704 74.8392 653.504 76.3392 654.904 76.7392C656.304 77.1392 657.804 76.3392 658.204 74.9392C658.604 73.5392 657.804 72.0392 656.404 71.6392C656.204 71.5392 655.904 71.5392 655.704 71.5392Z" fill="#FAD6BB"/>
<g clip-path="url(#clip0_1_2699)">
<path d="M587.054 46.0426C587.054 45.2408 586.399 44.5884 585.594 44.5884C584.802 44.5884 584.132 45.2299 584.13 45.9521L585.594 67.6406L587.054 46.0426Z" fill="#D6AC6C"/>
<path d="M584.133 131.546C584.133 132.348 584.788 133 585.594 133C586.385 133 587.055 132.358 587.058 131.636L585.593 109.948L584.133 131.546Z" fill="#D6AC6C"/>
<path d="M628.63 87.3367L606.852 88.7943L628.577 90.248C629.363 90.2278 630 89.5797 630 88.7943C630 88.0063 629.355 87.3396 628.63 87.3367Z" fill="#D6AC6C"/>
<path d="M542.609 90.248L564.343 88.7935L542.647 87.3401C541.842 87.3401 541.187 87.9925 541.187 88.7943C541.187 89.5797 541.823 90.2278 542.609 90.248Z" fill="#D6AC6C"/>
<path d="M568.589 71.849L557.76 59.5132C557.551 59.3052 557.273 59.1909 556.978 59.1909C556.682 59.1909 556.405 59.3052 556.196 59.5127C555.987 59.7213 555.872 59.9977 555.872 60.2917C555.872 60.5774 555.979 60.8552 556.13 61.0086L568.589 71.849Z" fill="#D6AC6C"/>
<path d="M614.982 59.9525C614.979 59.6588 614.861 59.3839 614.649 59.1781C614.442 58.9761 614.167 58.8647 613.877 58.8647C613.585 58.8647 613.302 58.9746 613.146 59.1295L602.401 71.6568L614.667 60.7352C614.874 60.5248 614.986 60.2468 614.982 59.9525Z" fill="#D6AC6C"/>
<path d="M602.985 105.312L614.097 117.396C614.304 117.593 614.575 117.701 614.861 117.701C615.166 117.701 615.45 117.58 615.661 117.361C616.075 116.929 616.076 116.232 615.693 115.864L602.985 105.312Z" fill="#D6AC6C"/>
<path d="M557.231 119.039C557.436 119.23 557.704 119.335 557.984 119.335C558.286 119.335 558.575 119.219 558.734 119.053L569.185 106.283L557.176 117.483C556.76 117.927 556.785 118.625 557.231 119.039Z" fill="#D6AC6C"/>
<path d="M576.639 67.5744C576.555 67.3804 576.363 67.2549 576.151 67.2549C576.08 67.2549 576.009 67.2698 575.942 67.2985C575.673 67.4134 575.549 67.7247 575.641 67.9431L579.266 74.9793L576.639 67.5744Z" fill="#D6AC6C"/>
<path d="M573.798 41.3699C573.728 41.1487 573.525 41 573.292 41C573.239 41 573.185 41.0083 573.133 41.0244C572.998 41.0665 572.888 41.159 572.822 41.2841C572.756 41.4088 572.744 41.5517 572.768 41.6351L575.65 49.0039L573.798 41.3699Z" fill="#D6AC6C"/>
<path d="M609.239 123.531L612.735 130.569C612.831 130.734 613.003 130.832 613.195 130.832C613.289 130.832 613.378 130.808 613.46 130.761C613.583 130.69 613.67 130.576 613.706 130.439C613.743 130.303 613.724 130.161 613.681 130.085L609.239 123.531Z" fill="#D6AC6C"/>
<path d="M628.602 63.8303C628.51 63.6564 628.33 63.5486 628.132 63.5486C628.046 63.5486 627.963 63.5691 627.933 63.5828L621.169 67.7286L628.38 64.5438C628.639 64.408 628.738 64.0881 628.602 63.8303Z" fill="#D6AC6C"/>
<path d="M538.06 117.333C538.152 117.508 538.333 117.616 538.531 117.616C538.617 117.616 538.699 117.596 538.729 117.582L545.499 113.449L538.284 116.621C538.025 116.756 537.925 117.076 538.06 117.333Z" fill="#D6AC6C"/>
<path d="M596.047 67.6751C595.971 67.6361 595.89 67.6165 595.806 67.6165C595.606 67.6165 595.424 67.7266 595.356 67.8549L592.217 75.1198L596.277 68.3854C596.342 68.2599 596.353 68.117 596.31 67.9828C596.266 67.8486 596.173 67.7392 596.047 67.6751Z" fill="#D6AC6C"/>
<path d="M607.985 81.8249C608.051 81.6998 608.064 81.5569 608.022 81.4223C607.952 81.2004 607.749 81.0513 607.516 81.0513C607.468 81.0513 607.419 81.058 607.41 81.058C607.409 81.058 600.002 83.9118 600.002 83.9118L607.674 82.0835C607.809 82.0413 607.919 81.9497 607.985 81.8249Z" fill="#D6AC6C"/>
<path d="M606.117 99.2294C606.192 99.2667 606.272 99.286 606.354 99.286C606.557 99.286 606.739 99.1743 606.829 98.9952C606.961 98.7351 606.855 98.4171 606.643 98.3089L599.325 95.2371L606.117 99.2294Z" fill="#D6AC6C"/>
<path d="M591.101 102.844L593.29 110.391C593.366 110.599 593.566 110.739 593.789 110.739C593.85 110.739 593.91 110.728 593.969 110.707C594.244 110.608 594.387 110.304 594.307 110.081L591.101 102.844Z" fill="#D6AC6C"/>
<path d="M576.68 110.497C576.746 110.525 576.816 110.539 576.886 110.539C577.1 110.539 577.292 110.413 577.356 110.268L579.964 102.8L576.399 109.805C576.285 110.073 576.411 110.383 576.68 110.497Z" fill="#D6AC6C"/>
<path d="M563.887 97.5607C563.832 97.691 563.831 97.8342 563.886 97.9652C563.967 98.1639 564.16 98.2927 564.376 98.2927C564.444 98.2927 564.512 98.2793 564.527 98.275L571.657 94.7935L564.175 97.2762C564.044 97.3297 563.941 97.4309 563.887 97.5607Z" fill="#D6AC6C"/>
<path d="M564.552 78.7888C564.347 78.7888 564.158 78.9085 564.071 79.0934C564.011 79.2213 564.004 79.3645 564.053 79.4972C564.101 79.6298 564.199 79.7356 564.276 79.7742L571.681 82.6371L564.776 78.8392C564.705 78.8058 564.63 78.7888 564.552 78.7888Z" fill="#D6AC6C"/>
<path d="M543.98 103.392C543.98 103.665 544.203 103.888 544.479 103.888C544.754 103.888 544.977 103.665 544.977 103.392C544.977 103.118 544.754 102.895 544.479 102.895C544.203 102.895 543.98 103.118 543.98 103.392Z" fill="#D6AC6C"/>
<path d="M553.909 76.6339C554.831 76.6339 555.581 75.8873 555.581 74.9695C555.581 74.0515 554.831 73.3049 553.909 73.3049C552.987 73.3049 552.237 74.0515 552.237 74.9695C552.237 75.8873 552.987 76.6339 553.909 76.6339Z" fill="#D6AC6C"/>
<path d="M567.434 56.9468C567.551 56.9468 567.646 56.8521 567.646 56.7358C567.646 56.6196 567.551 56.5249 567.434 56.5249C567.318 56.5249 567.223 56.6196 567.223 56.7358C567.223 56.8521 567.318 56.9468 567.434 56.9468Z" fill="#D6AC6C"/>
<path d="M598.648 59.7628C599.112 59.7628 599.49 59.3866 599.49 58.9238C599.49 58.4614 599.112 58.0852 598.648 58.0852C598.183 58.0852 597.805 58.4614 597.805 58.9238C597.805 59.3866 598.183 59.7628 598.648 59.7628Z" fill="#D6AC6C"/>
<path d="M620.523 79.4393C620.703 79.4393 620.85 79.2933 620.85 79.1143C620.85 78.9348 620.703 78.7888 620.523 78.7888C620.343 78.7888 620.196 78.9348 620.196 79.1143C620.196 79.2933 620.343 79.4393 620.523 79.4393Z" fill="#D6AC6C"/>
<path d="M614.869 105.161C614.869 105.071 614.795 104.997 614.704 104.997C614.613 104.997 614.538 105.071 614.538 105.161C614.538 105.252 614.613 105.326 614.704 105.326C614.795 105.326 614.869 105.252 614.869 105.161Z" fill="#D6AC6C"/>
<path d="M600.273 122.894C598.912 122.894 597.805 123.996 597.805 125.35C597.805 126.704 598.912 127.806 600.273 127.806C601.633 127.806 602.74 126.704 602.74 125.35C602.74 123.996 601.633 122.894 600.273 122.894Z" fill="#D6AC6C"/>
<path d="M574.412 122.034C574.331 122.034 574.265 122.099 574.265 122.18C574.265 122.261 574.331 122.326 574.412 122.326C574.493 122.326 574.559 122.261 574.559 122.18C574.559 122.099 574.493 122.034 574.412 122.034Z" fill="#D6AC6C"/>
<path d="M623.774 98.6904C623.355 98.6904 623.015 99.0295 623.015 99.446C623.015 99.8629 623.355 100.202 623.774 100.202C624.192 100.202 624.533 99.8629 624.533 99.446C624.533 99.0295 624.192 98.6904 623.774 98.6904Z" fill="#D6AC6C"/>
</g>
<defs>
<clipPath id="clip0_1_2699">
<rect width="92" height="92" fill="white" transform="translate(538 41)"/>
</clipPath>
</defs>
</svg>
