<svg width="430" height="52" viewBox="0 0 430 52" fill="none" xmlns="http://www.w3.org/2000/svg">
<g clip-path="url(#clip0_1_4544)">
<path fill-rule="evenodd" clip-rule="evenodd" d="M-74.5391 87.9182C-67.1373 64.5003 -57.6846 47.7363 -45.9858 37.4148C-38.7422 31.0253 -31.4045 27.2628 -23.72 28.1655C-13.0296 29.4242 -2.58649 26.1307 7.77834 20.4497C12.9347 17.6324 18.1129 14.9911 23.316 12.6956C27.0455 11.0523 30.8302 10.1709 34.6463 10.125C43.4071 10.012 52.1995 9.50789 60.851 13.087C72.8809 18.0556 84.9822 16.92 97.0732 16.5109C101.774 16.3524 106.361 13.0589 111.115 12.4981C120.118 11.4332 129.042 11.1794 137.947 15.3366C141.225 16.8673 144.433 18.9757 147.695 20.6154C151.878 22.7206 156.086 24.1982 160.36 24.2549C169.241 24.3675 178.123 24.3181 187.004 24.3253C190.021 24.3253 192.99 23.1546 195.881 21.4091C204.143 16.4159 212.582 13.577 220.909 9.4512C227.331 6.27071 233.675 2.42689 240.234 0.917889C242.192 0.466525 244.14 0.159598 246.096 0.138293C253.362 0.046576 260.631 0.103267 267.897 0.00107848C272.768 -0.0660845 277.48 3.02305 282.294 3.85501C288.268 4.89892 293.636 10.7526 299.245 14.635C309.651 21.8464 320.169 21.2152 330.747 17.9921C336.8 16.1476 342.723 12.5158 348.795 10.8053C352.592 9.73682 356.388 9.96251 360.187 9.58553C361.684 9.43712 363.19 9.64872 364.684 9.40209C375.437 7.61758 385.738 13.0975 396.001 19.6845C401.966 23.5107 408.127 23.3377 414.204 21.9132C424.628 19.4588 434.963 14.8185 445.465 14.2259C453.75 13.7605 462.073 13.1715 470.31 15.693C478.088 18.073 485.826 20.1572 493.703 19.8503C502.62 19.4906 511.384 16.7897 520.087 12.6743C524.291 10.6926 528.531 9.98742 532.791 9.92026C543.628 9.74766 554.473 9.86754 565.316 9.83937C566.711 9.83215 568.055 10.234 569.405 11.144C573.936 14.2118 578.505 16.98 582.769 21.8886C583.812 23.0979 584.85 24.3357 585.669 26.2542C591.77 40.5885 598.276 54.1153 602.474 72.2721C603.022 74.6383 603.482 77.1172 603.98 79.547C604.268 92.439 601.338 102.432 598.116 111.484C593.431 124.648 587.573 131.485 580.022 124.997C577.301 122.663 574.578 124.133 571.862 125.85C563.029 131.422 554.247 130.942 545.722 122.991C539.384 117.084 532.809 114.908 526.097 114.595C518.254 114.238 510.395 115.141 502.564 114.337C494.524 113.516 487.206 118.727 480.374 127.529C475.209 134.183 470.49 135.467 465.466 127.635C463.34 124.323 461.017 125.579 458.806 127.592C457.086 129.158 455.521 131.559 453.804 133.146C449.619 137.018 445.15 140.157 441.229 133.213C433.442 119.429 424.679 122.003 415.977 123.432C400.997 125.893 386.826 136.933 372.588 146.994C359.836 156.007 347.785 152.781 336.159 137.868C330.459 130.558 324.288 126.044 318.048 121.978C313.015 118.706 307.942 121.224 302.896 121.175C298.686 121.129 295.059 119.295 291.767 112.475C286.423 101.406 279.836 104.7 273.552 105.447C261.204 106.918 249.616 116.566 237.841 124.091C233.141 127.092 228.385 128.982 223.57 130.269C220.85 130.999 218.206 129.56 215.849 126.718C207.266 116.365 198.123 113.138 188.646 114.644C181.982 115.702 175.33 117.366 168.665 118.47C161.533 119.644 155.044 126.531 148.27 130.777C140.393 135.717 132.41 137.413 124.368 138.901C120.34 139.642 116.35 140.622 112.541 144.311C107.862 148.838 103.207 147.936 98.9123 141.807C91.5467 131.299 83.3655 128.322 75.0267 127.66C66.269 126.968 57.4909 127.688 48.7233 127.427C44.9298 127.31 41.4678 129.553 38.0126 132.921C26.7592 143.891 15.0912 146.334 3.5618 137.141C-5.609 129.825 -14.8078 129.98 -24.1203 131.538C-33.6725 133.132 -43.2323 135.34 -52.7838 133.693C-63.132 131.908 -70.3249 118.71 -74.4766 96.4165C-74.9974 93.6202 -75.3049 90.7852 -74.5391 87.9182Z" fill="white"/>
</g>
<defs>
<clipPath id="clip0_1_4544">
<rect width="430" height="52" fill="white"/>
</clipPath>
</defs>
</svg>
