<svg width="1600" height="159" viewBox="0 0 1600 159" fill="none" xmlns="http://www.w3.org/2000/svg">
<path fill-rule="evenodd" clip-rule="evenodd" d="M-26.8048 91.7725C-8.21906 67.328 15.5165 49.829 44.8923 39.0551C63.0807 32.3855 81.5056 28.458 100.801 29.4003C127.645 30.7142 153.867 27.2763 179.893 21.3462C192.841 18.4055 205.843 15.6483 218.908 13.2522C228.273 11.5368 237.776 10.6167 247.359 10.5689C269.357 10.4509 291.435 9.92472 313.158 13.6608C343.365 18.8472 373.752 17.6618 404.112 17.2347C415.916 17.0693 427.433 13.6314 439.372 13.046C461.978 11.9345 484.385 11.6695 506.744 16.009C514.977 17.6068 523.032 19.8076 531.224 21.5192C541.726 23.7167 552.293 25.259 563.024 25.3182C585.325 25.4358 607.627 25.3842 629.928 25.3917C637.502 25.3917 644.957 24.1697 652.217 22.3477C672.963 17.1356 694.153 14.1723 715.062 9.86554C731.188 6.54562 747.119 2.53329 763.586 0.95813C768.504 0.486978 773.394 0.166594 778.306 0.144356C796.551 0.0486179 814.804 0.107795 833.049 0.00112576C845.279 -0.0689817 857.112 3.15558 869.198 4.02401C884.199 5.11369 897.679 11.224 911.764 15.2766C937.894 22.8041 964.304 22.1453 990.866 18.7809C1006.06 16.8556 1020.94 13.0645 1036.18 11.279C1045.72 10.1637 1055.25 10.3993 1064.79 10.0058C1068.55 9.85084 1072.33 10.0717 1076.08 9.81428C1103.08 7.95154 1128.95 13.6717 1154.72 20.5475C1169.69 24.5414 1185.16 24.3608 1200.42 22.8739C1226.6 20.3119 1252.55 15.4681 1278.92 14.8496C1299.72 14.3637 1320.62 13.749 1341.3 16.381C1360.84 18.8653 1380.27 21.0409 1400.04 20.7205C1422.44 20.3451 1444.44 17.5257 1466.3 13.2299C1476.85 11.1614 1487.5 10.4253 1498.19 10.3552C1525.41 10.175 1552.64 10.3001 1579.87 10.2707C1583.37 10.2632 1586.74 10.6827 1590.13 11.6326C1601.51 14.8349 1612.98 17.7244 1623.69 22.8482C1626.31 24.1105 1628.92 25.4026 1630.97 27.4052C1646.29 42.3679 1662.63 56.4877 1673.17 75.4405C1674.54 77.9105 1675.7 80.498 1676.95 83.0343C1677.67 96.4916 1670.32 106.923 1662.23 116.372C1650.46 130.113 1635.75 137.25 1616.79 130.477C1609.96 128.04 1603.12 129.575 1596.3 131.368C1574.12 137.184 1552.07 136.683 1530.66 128.383C1514.75 122.217 1498.24 119.946 1481.39 119.618C1461.69 119.247 1441.96 120.189 1422.3 119.35C1402.11 118.492 1383.73 123.932 1366.58 133.12C1353.61 140.066 1341.76 141.406 1329.14 133.23C1323.81 129.774 1317.97 131.084 1312.42 133.186C1308.1 134.82 1304.17 137.327 1299.86 138.983C1289.35 143.025 1278.13 146.301 1268.28 139.054C1248.73 124.665 1226.73 127.352 1204.88 128.843C1167.26 131.412 1131.68 142.937 1095.93 153.438C1063.91 162.847 1033.65 159.479 1004.45 143.912C990.142 136.282 974.645 131.57 958.978 127.326C946.339 123.91 933.601 126.538 920.932 126.487C910.359 126.439 901.252 124.525 892.985 117.406C879.566 105.852 863.028 109.29 847.247 110.07C816.242 111.605 787.144 121.676 757.577 129.531C745.777 132.663 733.834 134.636 721.744 135.98C714.913 136.742 708.276 135.24 702.357 132.273C680.806 121.466 657.848 118.098 634.05 119.67C617.317 120.774 600.614 122.512 583.879 123.663C565.969 124.889 549.676 132.078 532.666 136.51C512.886 141.667 492.841 143.437 472.648 144.991C462.534 145.764 452.516 146.787 442.951 150.637C431.203 155.363 419.514 154.421 408.73 148.024C390.235 137.055 369.692 133.948 348.753 133.256C326.763 132.535 304.721 133.286 282.706 133.013C273.18 132.892 264.487 135.233 255.811 138.748C227.554 150.199 198.256 152.75 169.306 143.154C146.278 135.516 123.18 135.678 99.7963 137.305C75.8107 138.969 51.8062 141.273 27.8225 139.554C1.83837 137.691 -16.2229 123.914 -26.6478 100.643C-27.9556 97.7245 -28.7278 94.7653 -26.8048 91.7725Z" fill="white"/>
</svg>
