<svg width="230" height="95" viewBox="0 0 230 95" fill="none" xmlns="http://www.w3.org/2000/svg">
<path d="M27.4344 31.1154C27.7795 34.4512 28.1246 37.672 28.9298 40.8353C29.1599 41.7555 29.4474 42.6182 29.735 43.481C30.0801 44.4587 30.6552 45.0913 31.3454 45.5515C32.8408 46.4717 34.3937 46.9319 36.0041 47.3345C37.6145 47.7371 39.2824 48.0246 40.9503 48.4272C40.6052 48.4847 40.2601 48.5422 39.9151 48.5997C37.4419 49.0599 34.9688 49.635 32.5532 50.6128C30.8278 51.3029 29.735 52.6258 29.2174 54.8113C28.5847 57.342 28.1821 59.9301 27.837 62.5758C27.722 63.5535 27.607 64.5888 27.4344 65.5665C27.3194 64.6463 27.2619 63.726 27.1469 62.8058C26.8018 60.0451 26.3992 57.2844 25.6515 54.6388C25.5365 54.1786 25.3639 53.776 25.1914 53.3159C24.8463 52.3382 24.2136 51.648 23.4659 51.2454C21.9706 50.3252 20.3602 49.8651 18.6922 49.4625C17.1969 49.1174 15.759 48.8873 14.2636 48.5422C14.2061 48.5422 14.0911 48.4847 14.0336 48.4847C15.5289 48.1397 17.0818 47.9096 18.5197 47.507C19.9001 47.1044 21.2804 46.5867 22.6607 46.1266C24.2136 45.5515 25.1339 44.2287 25.6515 42.2732C26.3417 39.8 26.7443 37.2694 27.0893 34.6813C27.2044 33.7035 27.3194 32.7257 27.4344 31.748C27.3769 31.5179 27.3769 31.4029 27.4344 31.1154Z" fill="#D7AD6C"/>
<path d="M59.5274 37.2117C58.262 34.2784 56.3641 31.8053 53.8334 29.7348C51.3028 27.6643 48.197 26.1114 44.4586 25.0186C40.7201 23.9259 36.3491 23.3507 31.3453 23.3507H20.4176V26.2839H31.978C32.093 26.2839 32.208 26.2839 32.3231 26.2839H32.8982C32.9557 26.2839 33.0707 26.2839 33.1283 26.2839H33.1858C35.7164 26.3414 38.017 26.8016 40.0875 27.7794C42.273 28.7571 44.1135 30.1949 45.6664 32.0354C47.2193 33.8758 48.4271 36.1189 49.2898 38.7071C50.1525 41.2952 50.5551 44.2285 50.5551 47.3918C50.5551 50.6701 50.095 53.6033 49.2323 56.1914C48.3696 58.8371 47.1618 61.0227 45.6089 62.8631C44.056 64.7036 42.2155 66.0839 40.0875 67.0616C37.9595 68.0394 35.6014 68.4995 33.0707 68.4995H32.3231C31.8629 68.4995 24.6161 68.4995 20.4176 68.442V71.3752H33.2433C37.7869 71.3752 41.8704 70.8001 45.3788 69.5923C48.8872 68.3845 51.8779 66.7166 54.236 64.5886C56.5941 62.4605 58.4346 59.8724 59.6424 56.8816C60.8502 53.8909 61.4828 50.6125 61.4828 46.9891C61.4253 43.4232 60.7927 40.1449 59.5274 37.2117Z" fill="#FAD6BB"/>
<path d="M37.6719 94.7262C16.9092 94.7262 0 77.8169 0 57.0543V37.6719C0 16.9092 16.9092 0 37.6719 0C58.4346 0 75.3439 16.9092 75.3439 37.6719V57.0543C75.3439 77.8745 58.4346 94.7262 37.6719 94.7262ZM37.6719 1.61043C17.772 1.61043 1.5529 17.8294 1.5529 37.7294V57.1118C1.5529 77.0118 17.772 93.2308 37.6719 93.2308C57.5719 93.2308 73.791 77.0118 73.791 57.1118V37.7294C73.791 17.8294 57.6294 1.61043 37.6719 1.61043Z" fill="#FAD6BB"/>
<path d="M37.672 89.9525C19.0948 89.9525 3.96851 74.8262 3.96851 56.2491V38.6496C3.96851 20.0724 19.0948 4.94617 37.672 4.94617C56.2491 4.94617 71.3754 20.0724 71.3754 38.6496V56.2491C71.4329 74.8262 56.3066 89.9525 37.672 89.9525ZM37.672 5.23374C19.2673 5.23374 4.3136 20.1875 4.3136 38.5921V56.1915C4.3136 74.5961 19.2673 89.5498 37.672 89.5498C56.0766 89.5498 71.0303 74.5961 71.0303 56.1915V38.5921C71.0303 20.245 56.0766 5.23374 37.672 5.23374Z" fill="#FAD6BB"/>
<path d="M222.868 10.0078C222.983 11.158 223.098 12.1933 223.386 13.286C223.443 13.5736 223.558 13.8612 223.673 14.1488C223.788 14.4938 223.961 14.6664 224.191 14.839C224.709 15.1265 225.226 15.2991 225.744 15.4716C226.262 15.5866 226.837 15.7017 227.412 15.8167C227.297 15.8167 227.182 15.8742 227.067 15.8742C226.204 16.0467 225.399 16.2193 224.594 16.5644C224.018 16.7945 223.673 17.2546 223.443 18.0023C223.213 18.865 223.098 19.7277 222.983 20.5904C222.926 20.9355 222.926 21.2806 222.868 21.5681C222.811 21.2806 222.811 20.9355 222.753 20.6479C222.638 19.7277 222.523 18.8074 222.236 17.8872C222.178 17.7147 222.12 17.5997 222.063 17.4271C221.948 17.082 221.718 16.8519 221.488 16.7369C220.97 16.4493 220.453 16.2768 219.877 16.1618C219.36 16.0467 218.9 15.9317 218.382 15.8742C218.382 15.8742 218.325 15.8742 218.325 15.8167C218.842 15.7017 219.36 15.6442 219.82 15.4716C220.28 15.3566 220.74 15.184 221.2 15.0115C221.718 14.8389 222.005 14.3788 222.236 13.7462C222.466 12.941 222.581 12.0783 222.696 11.2155C222.753 10.8705 222.753 10.5829 222.811 10.2378C222.868 10.1228 222.868 10.0653 222.868 10.0078Z" fill="#FAD6BB"/>
<path d="M100.247 23.4664C103.583 23.4664 106.517 23.8115 109.047 24.5591C111.578 25.3068 113.648 26.3421 115.316 27.7224C116.984 29.1028 118.249 30.7707 119.112 32.7262C119.975 34.6817 120.378 36.9248 120.378 39.3979C120.378 41.8135 119.975 43.999 119.17 46.012C118.365 48.025 117.157 49.7505 115.546 51.1308C113.936 52.5687 111.98 53.6614 109.622 54.4666C107.264 55.2718 104.561 55.6745 101.513 55.6745H90.8726V29.8505C90.8726 28.4127 90.6426 27.2049 90.24 26.3422C89.8374 25.4219 88.9171 25.0193 87.4218 25.0193H86.9617V23.5814H100.247V23.4664ZM100.88 25.4219C100.42 25.4219 99.9024 25.4219 99.4998 25.4794C99.0397 25.5369 98.6371 25.5369 98.292 25.6519C97.8894 25.7094 97.5443 25.767 97.1992 25.8245V53.4314C97.5443 53.4889 97.8894 53.5464 98.292 53.6039C98.9822 53.7189 99.8449 53.7765 100.88 53.7765H101.34C103.008 53.7765 104.619 53.4314 105.999 52.7988C107.437 52.1661 108.645 51.1884 109.68 49.9806C110.715 48.7727 111.52 47.2773 112.095 45.4944C112.671 43.7115 112.958 41.756 112.958 39.5705C112.958 37.4424 112.671 35.4869 112.095 33.7615C111.52 32.036 110.715 30.5407 109.68 29.2754C108.645 28.0676 107.379 27.0898 105.941 26.3997C104.504 25.7095 102.893 25.4219 101.168 25.4219H100.88Z" fill="#FAD6BB"/>
<path d="M148.847 49.4626C149.422 50.9005 150.17 52.0508 150.975 52.856C151.838 53.7187 152.816 54.1788 153.909 54.2938V55.5016C153.621 55.5591 153.276 55.6167 152.816 55.6742C152.356 55.7317 151.953 55.7317 151.55 55.7317C150.745 55.7317 149.94 55.6742 149.02 55.5016C148.1 55.3291 147.237 55.0415 146.374 54.6389C145.511 54.1788 144.706 53.5461 143.959 52.7409C143.211 51.9357 142.521 50.7855 141.946 49.4051L140.795 46.7019H127.739L123.713 55.5591H121.355L135.734 23.4086H137.92L148.847 49.4626ZM128.832 44.5739H139.933L134.526 31.8632L128.832 44.5739Z" fill="#FAD6BB"/>
<path d="M165.469 40.8932H163.513V55.6169H157.129V29.7929C157.129 28.3551 156.899 27.1472 156.497 26.2845C156.094 25.3643 155.174 24.9617 153.678 24.9617H153.218V23.5239H166.677C167.482 23.5239 168.345 23.5814 169.265 23.6389C170.185 23.6964 171.163 23.869 172.14 24.099C173.118 24.3291 174.038 24.6166 175.016 25.0767C175.936 25.4793 176.742 25.997 177.489 26.6872C178.18 27.3773 178.755 28.1825 179.215 29.1027C179.675 30.0805 179.847 31.2308 179.847 32.5536C179.847 33.8189 179.617 34.9117 179.157 35.832C178.697 36.7522 178.064 37.5574 177.317 38.19C176.569 38.8227 175.706 39.3403 174.786 39.7429C173.866 40.1455 172.888 40.4331 172.025 40.6631L177.144 49.1753C177.777 50.2105 178.352 51.0733 178.927 51.7059C179.502 52.3961 180.02 52.9137 180.538 53.3163C181.055 53.7189 181.515 54.0065 181.975 54.179C182.436 54.3515 182.838 54.4666 183.183 54.5241V55.7319C182.896 55.847 182.436 55.962 181.803 56.077C181.113 56.192 180.48 56.2496 179.905 56.2496C179.042 56.2496 178.237 56.1345 177.432 55.9044C176.627 55.6744 175.879 55.2718 175.074 54.7541C174.326 54.179 173.521 53.4889 172.773 52.5686C172.025 51.6484 171.22 50.5556 170.415 49.2328L165.469 40.8932ZM166.677 25.4218C166.274 25.4218 165.871 25.4219 165.526 25.4794C165.124 25.5369 164.779 25.5368 164.491 25.6519C164.146 25.7094 163.801 25.7669 163.513 25.8244V39.0528H166.447C167.252 39.0528 167.999 38.9377 168.805 38.7077C169.61 38.4776 170.3 38.1325 170.933 37.6149C171.565 37.0973 172.083 36.4071 172.486 35.5444C172.888 34.6817 173.061 33.5888 173.061 32.3235C173.061 31.0582 172.888 29.9654 172.486 29.1027C172.083 28.24 171.565 27.5499 170.99 27.0322C170.358 26.5146 169.667 26.112 168.92 25.8819C168.115 25.5369 167.424 25.4218 166.677 25.4218Z" fill="#FAD6BB"/>
<path d="M192.961 43.0788C193.018 46.4722 193.651 49.1179 194.916 51.0733C196.182 53.0288 198.137 53.9491 200.668 53.9491C204.003 53.9491 206.419 52.9713 207.914 50.9583C209.41 49.0028 210.158 45.8395 210.158 41.5835V23.4664H212.573V41.5835C212.573 43.884 212.343 45.9545 211.883 47.7375C211.423 49.5204 210.675 51.0158 209.64 52.2811C208.605 53.5464 207.282 54.4667 205.614 55.1569C203.946 55.7895 201.99 56.1346 199.575 56.1346C190.775 56.1346 186.404 51.3034 186.404 41.5835V29.793C186.404 28.3552 186.174 27.1473 185.771 26.2846C185.369 25.3643 184.449 24.9618 182.953 24.9618V23.5239H188.302C189.165 23.5239 189.855 23.6389 190.43 23.869C191.005 24.0991 191.465 24.4442 191.81 24.9043C192.155 25.3644 192.386 26.0545 192.501 26.8597C192.616 27.6649 192.673 28.7002 192.673 29.908L192.961 43.0788Z" fill="#FAD6BB"/>
<path d="M219.762 23.4664H226.089V49.2903C226.089 50.7282 226.319 51.9361 226.722 52.7988C227.124 53.719 228.044 54.1216 229.54 54.1216H230V55.5594H224.134C223.271 55.5594 222.581 55.4444 222.005 55.2718C221.43 55.0993 220.97 54.7543 220.625 54.2366C220.28 53.7765 220.05 53.0863 219.935 52.2811C219.82 51.4759 219.762 50.4406 219.762 49.2328V23.4664Z" fill="#FAD6BB"/>
<path d="M91.3905 76.3792C90.5853 75.9766 90.0101 75.3439 89.55 74.5962C89.0899 73.8485 88.8598 72.9858 88.8598 72.0081C88.8598 71.0303 89.0899 70.2251 89.55 69.4199C90.0101 68.6722 90.5853 68.0971 91.3905 67.637C92.1957 67.2344 93.0584 67.0043 94.0361 67.0043C94.8988 67.0043 95.7041 67.1769 96.3942 67.522C97.0844 67.8671 97.602 68.3847 98.0046 69.0748L96.6818 69.9376C96.3942 69.4774 95.9916 69.1324 95.5315 68.9023C95.0714 68.6723 94.5538 68.5572 94.0361 68.5572C93.4035 68.5572 92.8283 68.6723 92.3107 68.9598C91.7931 69.2474 91.3905 69.65 91.1029 70.1676C90.8153 70.6853 90.6428 71.2604 90.6428 71.9506C90.6428 72.6407 90.8153 73.2159 91.1029 73.7335C91.3905 74.2511 91.7931 74.6538 92.3107 74.9413C92.8283 75.2289 93.4035 75.3439 94.0361 75.3439C94.6113 75.3439 95.0714 75.2289 95.5315 74.9988C95.9916 74.7688 96.3367 74.4237 96.6818 73.9636L98.0046 74.8263C97.602 75.5164 97.0844 76.0341 96.3942 76.3792C95.7041 76.7243 94.8988 76.8968 94.0361 76.8968C93.0584 77.0118 92.1957 76.7818 91.3905 76.3792Z" fill="#D7AD6C"/>
<path d="M111.521 67.1772V76.8971H109.91V69.7653L106.287 75.8043H105.539L101.916 69.7653V76.8971H100.305V67.1772H102.146L105.999 73.7338L109.91 67.1772H111.521Z" fill="#D7AD6C"/>
<path d="M124.116 67.1769V76.8968H122.448V75.3439C122.046 75.8616 121.586 76.3217 120.953 76.5517C120.378 76.8393 119.688 76.9544 118.94 76.9544C118.02 76.9544 117.157 76.7242 116.409 76.3216C115.662 75.919 115.086 75.3439 114.626 74.5387C114.224 73.791 113.994 72.9283 113.994 71.9506C113.994 70.9728 114.224 70.1101 114.626 69.3624C115.029 68.6147 115.662 68.0396 116.409 67.637C117.157 67.2344 118.02 67.0043 118.94 67.0043C119.63 67.0043 120.263 67.1193 120.895 67.4069C121.471 67.6945 121.988 68.0396 122.391 68.5572V67.0618H124.116V67.1769ZM120.78 75.0563C121.298 74.7688 121.701 74.3662 121.931 73.8486C122.218 73.3309 122.333 72.7558 122.333 72.0656C122.333 71.3755 122.218 70.8003 121.931 70.2826C121.643 69.765 121.24 69.3624 120.78 69.0748C120.263 68.7873 119.745 68.6723 119.112 68.6723C118.48 68.6723 117.905 68.7873 117.445 69.0748C116.927 69.3624 116.582 69.765 116.294 70.2826C116.007 70.8003 115.834 71.3755 115.834 72.0656C115.834 72.7558 116.007 73.3309 116.294 73.8486C116.582 74.3662 116.984 74.7688 117.445 75.0563C117.962 75.3439 118.48 75.5165 119.112 75.5165C119.745 75.459 120.263 75.3439 120.78 75.0563Z" fill="#D7AD6C"/>
<path d="M131.305 72.8135H129.292V76.9546H127.509V67.2346H129.292V71.3756H131.363L134.526 67.2346H136.424L132.743 71.9508L136.712 77.0121H134.584L131.305 72.8135Z" fill="#D7AD6C"/>
<path d="M147.41 67.1771V75.5742C147.41 77.2997 147.007 78.565 146.202 79.3702C145.397 80.1754 144.189 80.578 142.636 80.578C141.773 80.578 140.91 80.463 140.163 80.1754C139.358 79.9453 138.725 79.5427 138.207 79.0826L139.07 77.7022C139.473 78.1048 139.99 78.3924 140.623 78.6225C141.255 78.8525 141.888 78.9676 142.521 78.9676C143.614 78.9676 144.361 78.68 144.879 78.1624C145.397 77.6448 145.627 76.8395 145.627 75.6892V74.9991C145.281 75.4592 144.821 75.8043 144.246 76.0919C143.671 76.3219 143.096 76.4944 142.406 76.4944C141.083 76.4944 140.105 76.1493 139.357 75.4017C138.61 74.7115 138.207 73.6187 138.207 72.2384V67.1196H139.99V72.0083C139.99 72.9285 140.22 73.6763 140.68 74.1364C141.14 74.5965 141.773 74.884 142.636 74.884C143.556 74.884 144.304 74.5964 144.821 74.0213C145.339 73.4462 145.627 72.641 145.627 71.6057V67.0621H147.41V67.1771Z" fill="#D7AD6C"/>
<path d="M159.66 67.1772V76.8971H157.992V75.4592C157.647 75.9768 157.187 76.3219 156.612 76.6095C156.037 76.8971 155.404 77.0121 154.714 77.0121C153.391 77.0121 152.413 76.667 151.666 75.9193C150.918 75.2292 150.515 74.1364 150.515 72.756V67.1196H152.298V72.526C152.298 73.4462 152.528 74.1939 152.988 74.654C153.448 75.1142 154.081 75.4017 154.944 75.4017C155.864 75.4017 156.612 75.1141 157.129 74.539C157.647 73.9638 157.935 73.1587 157.935 72.1234V67.0621H159.66V67.1772ZM152.931 65.2217C152.413 64.7616 152.183 64.1864 152.183 63.3237H153.391C153.391 63.7838 153.563 64.1289 153.851 64.4165C154.139 64.704 154.541 64.819 155.059 64.819C155.576 64.819 155.979 64.704 156.267 64.4165C156.554 64.1289 156.727 63.7838 156.727 63.3237H157.935C157.935 64.1289 157.647 64.7616 157.129 65.2217C156.612 65.6818 155.922 65.8543 155.001 65.8543C154.139 65.9118 153.448 65.6818 152.931 65.2217Z" fill="#D7AD6C"/>
<path d="M184.391 67.6945C185.139 68.0971 185.714 68.6723 186.117 69.4775C186.519 70.2252 186.749 71.0879 186.749 72.0656C186.749 73.0434 186.519 73.9061 186.117 74.6538C185.714 75.4015 185.139 75.9766 184.449 76.4367C183.701 76.8393 182.896 77.0694 181.976 77.0694C181.228 77.0694 180.595 76.9544 179.963 76.6668C179.387 76.3792 178.87 76.0341 178.467 75.5165V80.5202H176.684V72.1231C176.684 71.1454 176.914 70.2827 177.317 69.535C177.72 68.7873 178.352 68.2122 179.1 67.7521C179.848 67.3495 180.768 67.1193 181.746 67.1193C182.781 67.0618 183.644 67.2919 184.391 67.6945ZM183.413 75.0564C183.931 74.7688 184.334 74.3662 184.564 73.8486C184.851 73.3309 184.966 72.7558 184.966 72.0656C184.966 71.3755 184.851 70.8003 184.564 70.2826C184.276 69.765 183.874 69.3624 183.413 69.0748C182.896 68.7873 182.378 68.6148 181.688 68.6148C180.71 68.6148 179.963 68.9023 179.33 69.535C178.755 70.1676 178.41 70.9728 178.41 72.0081C178.41 72.6982 178.525 73.2734 178.812 73.7911C179.1 74.3087 179.445 74.7113 179.963 74.9989C180.48 75.2864 180.998 75.4589 181.631 75.4589C182.378 75.4589 182.953 75.3439 183.413 75.0564Z" fill="#D7AD6C"/>
<path d="M198.482 67.1769V76.8968H196.814V75.3439C196.412 75.8616 195.952 76.3217 195.319 76.5517C194.744 76.8393 194.054 76.9544 193.306 76.9544C192.386 76.9544 191.523 76.7242 190.775 76.3216C190.028 75.919 189.453 75.3439 188.992 74.5387C188.59 73.791 188.36 72.9283 188.36 71.9506C188.36 70.9728 188.59 70.1101 188.992 69.3624C189.395 68.6147 190.028 68.0396 190.775 67.637C191.523 67.2344 192.386 67.0043 193.306 67.0043C193.996 67.0043 194.629 67.1193 195.261 67.4069C195.837 67.6945 196.354 68.0396 196.757 68.5572V67.0618H198.482V67.1769ZM195.146 75.0563C195.664 74.7688 196.067 74.3662 196.297 73.8486C196.584 73.3309 196.699 72.7558 196.699 72.0656C196.699 71.3755 196.584 70.8003 196.297 70.2826C196.009 69.765 195.607 69.3624 195.146 69.0748C194.629 68.7873 194.111 68.6723 193.479 68.6723C192.846 68.6723 192.271 68.7873 191.811 69.0748C191.293 69.3624 190.948 69.765 190.66 70.2826C190.373 70.8003 190.2 71.3755 190.2 72.0656C190.2 72.7558 190.373 73.3309 190.66 73.8486C190.948 74.3662 191.35 74.7688 191.811 75.0563C192.328 75.3439 192.846 75.5165 193.479 75.5165C194.111 75.459 194.629 75.3439 195.146 75.0563Z" fill="#D7AD6C"/>
<path d="M211.135 67.1771V75.5742C211.135 77.2997 210.733 78.565 209.87 79.3702C209.007 80.1754 207.742 80.578 206.074 80.578C205.154 80.578 204.291 80.463 203.429 80.1754C202.623 79.9453 201.933 79.5427 201.416 79.0826L202.278 77.7022C202.738 78.1048 203.314 78.3924 203.946 78.6225C204.636 78.8525 205.327 78.9676 206.017 78.9676C207.167 78.9676 207.972 78.68 208.547 78.1624C209.065 77.6448 209.353 76.782 209.353 75.6892V74.9416C208.95 75.4592 208.432 75.8043 207.8 76.0919C207.167 76.3219 206.534 76.4944 205.844 76.4944C204.924 76.4944 204.061 76.3219 203.314 75.9193C202.566 75.5167 201.991 74.9415 201.531 74.2514C201.128 73.5612 200.898 72.6985 200.898 71.7783C200.898 70.8581 201.128 70.0528 201.531 69.3051C201.933 68.615 202.566 68.0398 203.314 67.6372C204.061 67.2346 204.924 67.0621 205.844 67.0621C206.592 67.0621 207.282 67.1771 207.915 67.4647C208.547 67.7523 209.065 68.1549 209.468 68.6725V67.1771H211.135ZM207.8 74.5389C208.317 74.2514 208.72 73.9063 209.007 73.3887C209.295 72.9285 209.468 72.3534 209.468 71.7207C209.468 70.8005 209.18 69.9953 208.547 69.4201C207.915 68.845 207.109 68.5574 206.132 68.5574C205.154 68.5574 204.349 68.845 203.716 69.4201C203.083 69.9953 202.796 70.743 202.796 71.7207C202.796 72.3534 202.968 72.871 203.256 73.3887C203.544 73.8488 203.946 74.2514 204.464 74.5389C204.981 74.8265 205.557 74.9416 206.189 74.9416C206.707 74.9416 207.282 74.8265 207.8 74.5389Z" fill="#D7AD6C"/>
<path d="M214.644 64.9338C214.414 64.7038 214.299 64.4162 214.299 64.1286C214.299 63.7835 214.414 63.5535 214.644 63.3234C214.874 63.0933 215.161 62.9783 215.507 62.9783C215.852 62.9783 216.139 63.0933 216.369 63.3234C216.599 63.5535 216.714 63.7835 216.714 64.1286C216.714 64.4737 216.599 64.7613 216.369 64.9913C216.139 65.2214 215.852 65.3364 215.507 65.3364C215.104 65.2789 214.874 65.1639 214.644 64.9338ZM214.586 67.1769H216.369V76.8968H214.586V67.1769Z" fill="#D7AD6C"/>
<path d="M228.677 67.1772V76.8971H227.009V75.4592C226.664 75.9768 226.204 76.3219 225.629 76.6095C225.054 76.8971 224.421 77.0121 223.731 77.0121C222.408 77.0121 221.431 76.667 220.683 75.9193C219.935 75.2292 219.533 74.1364 219.533 72.756V67.1196H221.315V72.526C221.315 73.4462 221.546 74.1939 222.006 74.654C222.466 75.1142 223.098 75.4017 223.961 75.4017C224.881 75.4017 225.629 75.1141 226.147 74.539C226.664 73.9638 226.952 73.1587 226.952 72.1234V67.0621H228.677V67.1772ZM221.948 65.2217C221.431 64.7616 221.2 64.1864 221.2 63.3237H222.408C222.408 63.7838 222.581 64.1289 222.868 64.4165C223.156 64.704 223.559 64.819 224.076 64.819C224.594 64.819 224.996 64.704 225.284 64.4165C225.572 64.1289 225.744 63.7838 225.744 63.3237H226.952C226.952 64.1289 226.664 64.7616 226.147 65.2217C225.629 65.6818 224.939 65.8543 224.019 65.8543C223.156 65.9118 222.466 65.6818 221.948 65.2217Z" fill="#D7AD6C"/>
<path d="M168.402 74.5965C169.641 74.5965 170.645 73.5923 170.645 72.3535C170.645 71.1147 169.641 70.1104 168.402 70.1104C167.163 70.1104 166.159 71.1147 166.159 72.3535C166.159 73.5923 167.163 74.5965 168.402 74.5965Z" fill="#D7AD6C"/>
</svg>
